<?xml version="1.0" encoding="utf-8"?>
<!-- Generator: Adobe Illustrator 19.0.0, SVG Export Plug-In . SVG Version: 6.00 Build 0)  -->
<svg version="1.1" xmlns="http://www.w3.org/2000/svg" xmlns:xlink="http://www.w3.org/1999/xlink" x="0px" y="0px"
	 viewBox="0 0 1163.1 536.6" style="enable-background:new 0 0 1163.1 536.6;" xml:space="preserve">
<style type="text/css">
	.st0{fill:none;}
	.st1{fill:#F7BC60;}
	.st2{fill:#FFFFFF;}
	.st3{fill:none;stroke:#004990;stroke-width:10;stroke-miterlimit:10;}
	.st4{fill:none;stroke:#FFC528;stroke-width:10;stroke-miterlimit:10;}
	.st5{fill:none;stroke:#FFC425;stroke-width:10;stroke-miterlimit:10;}
	.st6{display:none;fill:#FFFFFF;stroke:#FFC528;stroke-width:10;stroke-miterlimit:10;}
	.st7{fill:none;stroke:#FFFFFF;stroke-width:10;stroke-miterlimit:10;}
	.st8{display:none;fill:#FFFFFF;stroke:#C3C5C7;stroke-width:10;stroke-miterlimit:10;}
	.st9{fill:#004990;}
	.st10{fill:none;stroke:#004990;stroke-width:10;}
	.st11{fill:none;stroke:#FFC425;stroke-width:10;}
	.st12{fill:none;stroke:#BFC6E0;stroke-width:10;}
	.st13{fill:#FFC425;}
	.st14{fill:none;stroke:#BCBCBC;stroke-width:10;}
</style>
<pattern  x="-24.4" y="653.5" width="69" height="69" patternUnits="userSpaceOnUse" id="Unnamed_Pattern" viewBox="2.1 -70.9 69 69" style="overflow:visible;">
	<g>
		<polygon class="st0" points="71.1,-1.9 2.1,-1.9 2.1,-70.9 71.1,-70.9 		"/>
		<polygon class="st1" points="71.1,-1.9 2.1,-1.9 2.1,-70.9 71.1,-70.9 		"/>
		<g>
			<path class="st2" d="M61.8-71.7c0,0.1,0,0.1,0,0.2c-0.1,0.1-0.1,0.1-0.2,0.1c-0.1,0.1-0.1,0.3-0.1,0.4c-0.2,0.1,0,0.2,0,0.3
				c0,0,0,0.1,0,0.2c0,0.1,0,0.3,0.1,0.4c0.1,0.2,0.3,0.4,0.4,0.5c0.2,0.1,0.4,0.6,0.6,0.6c0.2,0,0.4-0.1,0.5-0.1
				c0.2,0,0.4,0,0.6-0.1c0.2-0.1,0.1-0.3,0.3-0.5c0.1-0.1,0.3,0,0.4-0.1c0.2-0.1,0.3-0.3,0.4-0.5c0-0.1,0-0.1,0-0.2
				c0-0.1,0.1-0.2,0.1-0.3c0-0.1-0.1-0.1-0.1-0.2c0-0.1,0-0.2,0-0.3c0-0.2,0-0.4-0.1-0.5c-0.4-0.7-1.2-0.9-2-0.8
				c-0.2,0-0.3,0.1-0.4,0.2c-0.2,0.1-0.1,0.2-0.3,0.2c-0.1,0-0.2,0.1-0.2,0.2C61.8-71.7,61.8-71.7,61.8-71.7
				C61.8-71.6,61.8-71.6,61.8-71.7"/>
			<path class="st2" d="M54.1-71.7c0,0.1,0,0.1,0,0.2c-0.1,0.1-0.1,0.1-0.2,0.1c-0.1,0.1-0.1,0.3-0.1,0.4c-0.2,0.1,0,0.2,0,0.3
				c0,0,0,0.1,0,0.2c0,0.1,0,0.3,0.1,0.4c0.1,0.2,0.3,0.4,0.4,0.5c0.2,0.1,0.4,0.6,0.6,0.6c0.2,0,0.4-0.1,0.5-0.1
				c0.2,0,0.4,0,0.6-0.1c0.2-0.1,0.1-0.3,0.3-0.5c0.1-0.1,0.3,0,0.4-0.1c0.2-0.1,0.3-0.3,0.4-0.5c0-0.1,0-0.1,0-0.2
				c0-0.1,0.1-0.2,0.1-0.3c0-0.1-0.1-0.1-0.1-0.2c0-0.1,0-0.2,0-0.3c0-0.2,0-0.4-0.1-0.5c-0.4-0.7-1.2-0.9-2-0.8
				c-0.2,0-0.3,0.1-0.4,0.2c-0.2,0.1-0.1,0.2-0.3,0.2c-0.1,0-0.2,0.1-0.2,0.2C54.1-71.7,54.1-71.7,54.1-71.7
				C54.1-71.6,54.1-71.6,54.1-71.7"/>
			<path class="st2" d="M46.4-71.7c0,0.1,0,0.1,0,0.2c-0.1,0.1-0.1,0.1-0.2,0.1c-0.1,0.1-0.1,0.3-0.1,0.4c-0.2,0.1,0,0.2,0,0.3
				c0,0,0,0.1,0,0.2c0,0.1,0,0.3,0.1,0.4c0.1,0.2,0.3,0.4,0.4,0.5c0.2,0.1,0.4,0.6,0.6,0.6c0.2,0,0.4-0.1,0.5-0.1
				c0.2,0,0.4,0,0.6-0.1c0.2-0.1,0.1-0.3,0.3-0.5c0.1-0.1,0.3,0,0.4-0.1c0.2-0.1,0.3-0.3,0.4-0.5c0-0.1,0-0.1,0-0.2
				c0-0.1,0.1-0.2,0.1-0.3c0-0.1-0.1-0.1-0.1-0.2c0-0.1,0-0.2,0-0.3c0-0.2,0-0.4-0.1-0.5c-0.4-0.7-1.2-0.9-2-0.8
				c-0.2,0-0.3,0.1-0.4,0.2c-0.2,0.1-0.1,0.2-0.3,0.2c-0.1,0-0.2,0.1-0.2,0.2C46.4-71.7,46.4-71.7,46.4-71.7
				C46.4-71.6,46.4-71.6,46.4-71.7"/>
			<path class="st2" d="M38.8-71.7c0,0.1,0,0.1,0,0.2c-0.1,0.1-0.1,0.1-0.2,0.1c-0.1,0.1-0.1,0.3-0.1,0.4c-0.2,0.1,0,0.2,0,0.3
				c0,0,0,0.1,0,0.2c0,0.1,0,0.3,0.1,0.4c0.1,0.2,0.3,0.4,0.4,0.5c0.2,0.1,0.4,0.6,0.6,0.6c0.2,0,0.4-0.1,0.5-0.1
				c0.2,0,0.4,0,0.6-0.1c0.2-0.1,0.1-0.3,0.3-0.5c0.1-0.1,0.3,0,0.4-0.1c0.2-0.1,0.3-0.3,0.4-0.5c0-0.1,0-0.1,0-0.2
				c0-0.1,0.1-0.2,0.1-0.3c0-0.1-0.1-0.1-0.1-0.2c0-0.1,0-0.2,0-0.3c0-0.2,0-0.4-0.1-0.5c-0.4-0.7-1.2-0.9-2-0.8
				c-0.2,0-0.3,0.1-0.4,0.2c-0.2,0.1-0.1,0.2-0.3,0.2c-0.1,0-0.2,0.1-0.2,0.2C38.8-71.7,38.8-71.7,38.8-71.7
				C38.8-71.6,38.8-71.6,38.8-71.7"/>
			<path class="st2" d="M31.1-71.7c0,0.1,0,0.1,0,0.2c-0.1,0.1-0.1,0.1-0.2,0.1c-0.1,0.1-0.1,0.3-0.1,0.4c-0.2,0.1,0,0.2,0,0.3
				c0,0,0,0.1,0,0.2c0,0.1,0,0.3,0.1,0.4c0.1,0.2,0.3,0.4,0.4,0.5c0.2,0.1,0.4,0.6,0.6,0.6c0.2,0,0.4-0.1,0.5-0.1
				c0.2,0,0.4,0,0.6-0.1c0.2-0.1,0.1-0.3,0.3-0.5c0.1-0.1,0.3,0,0.4-0.1c0.2-0.1,0.3-0.3,0.4-0.5c0-0.1,0-0.1,0-0.2
				c0-0.1,0.1-0.2,0.1-0.3c0-0.1-0.1-0.1-0.1-0.2c0-0.1,0-0.2,0-0.3c0-0.2,0-0.4-0.1-0.5c-0.4-0.7-1.2-0.9-2-0.8
				c-0.2,0-0.3,0.1-0.4,0.2c-0.2,0.1-0.1,0.2-0.3,0.2c-0.1,0-0.2,0.1-0.2,0.2C31.1-71.7,31.1-71.7,31.1-71.7
				C31.1-71.6,31.1-71.6,31.1-71.7"/>
			<path class="st2" d="M23.4-71.7c0,0.1,0,0.1,0,0.2c-0.1,0.1-0.1,0.1-0.2,0.1c-0.1,0.1-0.1,0.3-0.1,0.4c-0.2,0.1,0,0.2,0,0.3
				c0,0,0,0.1,0,0.2c0,0.1,0,0.3,0.1,0.4c0.1,0.2,0.3,0.4,0.4,0.5c0.2,0.1,0.4,0.6,0.6,0.6c0.2,0,0.4-0.1,0.5-0.1
				c0.2,0,0.4,0,0.6-0.1c0.2-0.1,0.1-0.3,0.3-0.5c0.1-0.1,0.3,0,0.4-0.1c0.2-0.1,0.3-0.3,0.4-0.5c0-0.1,0-0.1,0-0.2
				c0-0.1,0.1-0.2,0.1-0.3c0-0.1-0.1-0.1-0.1-0.2c0-0.1,0-0.2,0-0.3c0-0.2,0-0.4-0.1-0.5c-0.4-0.7-1.2-0.9-2-0.8
				c-0.2,0-0.3,0.1-0.4,0.2c-0.2,0.1-0.1,0.2-0.3,0.2c-0.1,0-0.2,0.1-0.2,0.2C23.4-71.7,23.4-71.7,23.4-71.7
				C23.4-71.6,23.4-71.6,23.4-71.7"/>
			<path class="st2" d="M15.8-71.7c0,0.1,0,0.1,0,0.2c-0.1,0.1-0.1,0.1-0.2,0.1c-0.1,0.1-0.1,0.3-0.1,0.4c-0.2,0.1,0,0.2,0,0.3
				c0,0,0,0.1,0,0.2c0,0.1,0,0.3,0.1,0.4c0.1,0.2,0.3,0.4,0.4,0.5c0.2,0.1,0.4,0.6,0.6,0.6c0.2,0,0.4-0.1,0.5-0.1
				c0.2,0,0.4,0,0.6-0.1c0.2-0.1,0.1-0.3,0.3-0.5c0.1-0.1,0.3,0,0.4-0.1c0.2-0.1,0.3-0.3,0.4-0.5c0-0.1,0-0.1,0-0.2
				c0-0.1,0.1-0.2,0.1-0.3c0-0.1-0.1-0.1-0.1-0.2c0-0.1,0-0.2,0-0.3c0-0.2,0-0.4-0.1-0.5c-0.4-0.7-1.2-0.9-2-0.8
				c-0.2,0-0.3,0.1-0.4,0.2c-0.2,0.1-0.1,0.2-0.3,0.2c-0.1,0-0.2,0.1-0.2,0.2C15.8-71.7,15.8-71.7,15.8-71.7
				C15.8-71.6,15.8-71.6,15.8-71.7"/>
			<path class="st2" d="M8.1-71.7c0,0.1,0,0.1,0,0.2C8-71.4,8-71.4,7.9-71.3c-0.1,0.1-0.1,0.3-0.1,0.4c-0.2,0.1,0,0.2,0,0.3
				c0,0,0,0.1,0,0.2c0,0.1,0,0.3,0.1,0.4c0.1,0.2,0.3,0.4,0.4,0.5c0.2,0.1,0.4,0.6,0.6,0.6c0.2,0,0.4-0.1,0.5-0.1
				c0.2,0,0.4,0,0.6-0.1c0.2-0.1,0.1-0.3,0.3-0.5c0.1-0.1,0.3,0,0.4-0.1c0.2-0.1,0.3-0.3,0.4-0.5c0-0.1,0-0.1,0-0.2
				c0-0.1,0.1-0.2,0.1-0.3c0-0.1-0.1-0.1-0.1-0.2c0-0.1,0-0.2,0-0.3c0-0.2,0-0.4-0.1-0.5c-0.4-0.7-1.2-0.9-2-0.8
				c-0.2,0-0.3,0.1-0.4,0.2c-0.2,0.1-0.1,0.2-0.3,0.2c-0.1,0-0.2,0.1-0.2,0.2C8.1-71.7,8.1-71.7,8.1-71.7
				C8.1-71.6,8.1-71.6,8.1-71.7"/>
			<path class="st2" d="M0.4-71.7c0,0.1,0,0.1,0,0.2c-0.1,0.1-0.1,0.1-0.2,0.1c-0.1,0.1-0.1,0.3-0.1,0.4c-0.2,0.1,0,0.2,0,0.3
				c0,0,0,0.1,0,0.2c0,0.1,0,0.3,0.1,0.4c0.1,0.2,0.3,0.4,0.4,0.5C0.8-69.4,1-69,1.2-68.9c0.2,0,0.4-0.1,0.5-0.1
				c0.2,0,0.4,0,0.6-0.1c0.2-0.1,0.1-0.3,0.3-0.5c0.1-0.1,0.3,0,0.4-0.1c0.2-0.1,0.3-0.3,0.4-0.5c0-0.1,0-0.1,0-0.2
				c0-0.1,0.1-0.2,0.1-0.3c0-0.1-0.1-0.1-0.1-0.2c0-0.1,0-0.2,0-0.3c0-0.2,0-0.4-0.1-0.5c-0.4-0.7-1.2-0.9-2-0.8
				c-0.2,0-0.3,0.1-0.4,0.2c-0.2,0.1-0.1,0.2-0.3,0.2c-0.1,0-0.2,0.1-0.2,0.2C0.4-71.7,0.4-71.7,0.4-71.7
				C0.4-71.6,0.4-71.6,0.4-71.7"/>
		</g>
		<g>
			<path class="st2" d="M69.4-71.7c0,0.1,0,0.1,0,0.2c-0.1,0.1-0.1,0.1-0.2,0.1c-0.1,0.1-0.1,0.3-0.1,0.4c-0.2,0.1,0,0.2,0,0.3
				c0,0,0,0.1,0,0.2c0,0.1,0,0.3,0.1,0.4c0.1,0.2,0.3,0.4,0.4,0.5c0.2,0.1,0.4,0.6,0.6,0.6c0.2,0,0.4-0.1,0.5-0.1
				c0.2,0,0.4,0,0.6-0.1c0.2-0.1,0.1-0.3,0.3-0.5c0.1-0.1,0.3,0,0.4-0.1c0.2-0.1,0.3-0.3,0.4-0.5c0-0.1,0-0.1,0-0.2
				c0-0.1,0.1-0.2,0.1-0.3c0-0.1-0.1-0.1-0.1-0.2c0-0.1,0-0.2,0-0.3c0-0.2,0-0.4-0.1-0.5c-0.4-0.7-1.2-0.9-2-0.8
				c-0.2,0-0.3,0.1-0.4,0.2c-0.2,0.1-0.1,0.2-0.3,0.2c-0.1,0-0.2,0.1-0.2,0.2C69.4-71.7,69.4-71.7,69.4-71.7
				C69.4-71.6,69.4-71.6,69.4-71.7"/>
		</g>
		<path class="st2" d="M0.5-71.7c0,0.1,0,0.1,0,0.2c-0.1,0.1-0.1,0.1-0.2,0.1c-0.1,0.1-0.1,0.3-0.1,0.4c-0.2,0.1,0,0.2,0,0.3
			c0,0,0,0.1,0,0.2c0,0.1,0,0.3,0.1,0.4c0.1,0.2,0.3,0.4,0.4,0.5C0.9-69.4,1-69,1.3-68.9c0.2,0,0.4-0.1,0.5-0.1c0.2,0,0.4,0,0.6-0.1
			c0.2-0.1,0.1-0.3,0.3-0.5c0.1-0.1,0.3,0,0.4-0.1c0.2-0.1,0.3-0.3,0.4-0.5c0-0.1,0-0.1,0-0.2c0-0.1,0.1-0.2,0.1-0.3
			c0-0.1-0.1-0.1-0.1-0.2c0-0.1,0-0.2,0-0.3c0-0.2,0-0.4-0.1-0.5c-0.4-0.7-1.2-0.9-2-0.8c-0.2,0-0.3,0.1-0.4,0.2
			c-0.2,0.1-0.1,0.2-0.3,0.2c-0.1,0-0.2,0.1-0.2,0.2C0.5-71.7,0.5-71.7,0.5-71.7C0.5-71.6,0.5-71.6,0.5-71.7"/>
		<g>
			<g>
				<path class="st2" d="M69.4-64c0,0.1,0,0.1,0,0.2c-0.1,0.1-0.1,0.1-0.2,0.1c-0.1,0.1-0.1,0.3-0.1,0.4c-0.2,0.1,0,0.2,0,0.3
					c0,0,0,0.1,0,0.2c0,0.1,0,0.3,0.1,0.4c0.1,0.2,0.3,0.4,0.4,0.5c0.2,0.1,0.4,0.6,0.6,0.6c0.2,0,0.4-0.1,0.5-0.1
					c0.2,0,0.4,0,0.6-0.1c0.2-0.1,0.1-0.3,0.3-0.5c0.1-0.1,0.3,0,0.4-0.1c0.2-0.1,0.3-0.3,0.4-0.5c0-0.1,0-0.1,0-0.2
					c0-0.1,0.1-0.2,0.1-0.3c0-0.1-0.1-0.1-0.1-0.2c0-0.1,0-0.2,0-0.3c0-0.2,0-0.4-0.1-0.5c-0.4-0.7-1.2-0.9-2-0.8
					c-0.2,0-0.3,0.1-0.4,0.2c-0.2,0.1-0.1,0.2-0.3,0.2c-0.1,0-0.2,0.1-0.2,0.2C69.4-64,69.4-64.1,69.4-64C69.4-64,69.4-64,69.4-64"
					/>
				<path class="st2" d="M61.8-64c0,0.1,0,0.1,0,0.2c-0.1,0.1-0.1,0.1-0.2,0.1c-0.1,0.1-0.1,0.3-0.1,0.4c-0.2,0.1,0,0.2,0,0.3
					c0,0,0,0.1,0,0.2c0,0.1,0,0.3,0.1,0.4c0.1,0.2,0.3,0.4,0.4,0.5c0.2,0.1,0.4,0.6,0.6,0.6c0.2,0,0.4-0.1,0.5-0.1
					c0.2,0,0.4,0,0.6-0.1c0.2-0.1,0.1-0.3,0.3-0.5c0.1-0.1,0.3,0,0.4-0.1c0.2-0.1,0.3-0.3,0.4-0.5c0-0.1,0-0.1,0-0.2
					c0-0.1,0.1-0.2,0.1-0.3c0-0.1-0.1-0.1-0.1-0.2c0-0.1,0-0.2,0-0.3c0-0.2,0-0.4-0.1-0.5c-0.4-0.7-1.2-0.9-2-0.8
					c-0.2,0-0.3,0.1-0.4,0.2c-0.2,0.1-0.1,0.2-0.3,0.2c-0.1,0-0.2,0.1-0.2,0.2C61.8-64,61.8-64.1,61.8-64C61.8-64,61.8-64,61.8-64"
					/>
				<path class="st2" d="M54.1-64c0,0.1,0,0.1,0,0.2c-0.1,0.1-0.1,0.1-0.2,0.1c-0.1,0.1-0.1,0.3-0.1,0.4c-0.2,0.1,0,0.2,0,0.3
					c0,0,0,0.1,0,0.2c0,0.1,0,0.3,0.1,0.4c0.1,0.2,0.3,0.4,0.4,0.5c0.2,0.1,0.4,0.6,0.6,0.6c0.2,0,0.4-0.1,0.5-0.1
					c0.2,0,0.4,0,0.6-0.1c0.2-0.1,0.1-0.3,0.3-0.5c0.1-0.1,0.3,0,0.4-0.1c0.2-0.1,0.3-0.3,0.4-0.5c0-0.1,0-0.1,0-0.2
					c0-0.1,0.1-0.2,0.1-0.3c0-0.1-0.1-0.1-0.1-0.2c0-0.1,0-0.2,0-0.3c0-0.2,0-0.4-0.1-0.5c-0.4-0.7-1.2-0.9-2-0.8
					c-0.2,0-0.3,0.1-0.4,0.2c-0.2,0.1-0.1,0.2-0.3,0.2c-0.1,0-0.2,0.1-0.2,0.2C54.1-64,54.1-64.1,54.1-64C54.1-64,54.1-64,54.1-64"
					/>
				<path class="st2" d="M46.5-64c0,0.1,0,0.1,0,0.2c-0.1,0.1-0.1,0.1-0.2,0.1c-0.1,0.1-0.1,0.3-0.1,0.4c-0.2,0.1,0,0.2,0,0.3
					c0,0,0,0.1,0,0.2c0,0.1,0,0.3,0.1,0.4c0.1,0.2,0.3,0.4,0.4,0.5c0.2,0.1,0.4,0.6,0.6,0.6c0.2,0,0.4-0.1,0.5-0.1
					c0.2,0,0.4,0,0.6-0.1c0.2-0.1,0.1-0.3,0.3-0.5c0.1-0.1,0.3,0,0.4-0.1c0.2-0.1,0.3-0.3,0.4-0.5c0-0.1,0-0.1,0-0.2
					c0-0.1,0.1-0.2,0.1-0.3c0-0.1-0.1-0.1-0.1-0.2c0-0.1,0-0.2,0-0.3c0-0.2,0-0.4-0.1-0.5c-0.4-0.7-1.2-0.9-2-0.8
					c-0.2,0-0.3,0.1-0.4,0.2c-0.2,0.1-0.1,0.2-0.3,0.2c-0.1,0-0.2,0.1-0.2,0.2C46.5-64,46.5-64.1,46.5-64C46.5-64,46.5-64,46.5-64"
					/>
				<path class="st2" d="M38.8-64c0,0.1,0,0.1,0,0.2c-0.1,0.1-0.1,0.1-0.2,0.1c-0.1,0.1-0.1,0.3-0.1,0.4c-0.2,0.1,0,0.2,0,0.3
					c0,0,0,0.1,0,0.2c0,0.1,0,0.3,0.1,0.4c0.1,0.2,0.3,0.4,0.4,0.5c0.2,0.1,0.4,0.6,0.6,0.6c0.2,0,0.4-0.1,0.5-0.1
					c0.2,0,0.4,0,0.6-0.1c0.2-0.1,0.1-0.3,0.3-0.5c0.1-0.1,0.3,0,0.4-0.1c0.2-0.1,0.3-0.3,0.4-0.5c0-0.1,0-0.1,0-0.2
					c0-0.1,0.1-0.2,0.1-0.3c0-0.1-0.1-0.1-0.1-0.2c0-0.1,0-0.2,0-0.3c0-0.2,0-0.4-0.1-0.5c-0.4-0.7-1.2-0.9-2-0.8
					c-0.2,0-0.3,0.1-0.4,0.2c-0.2,0.1-0.1,0.2-0.3,0.2c-0.1,0-0.2,0.1-0.2,0.2C38.8-64,38.8-64.1,38.8-64C38.8-64,38.8-64,38.8-64"
					/>
				<path class="st2" d="M31.1-64c0,0.1,0,0.1,0,0.2c-0.1,0.1-0.1,0.1-0.2,0.1c-0.1,0.1-0.1,0.3-0.1,0.4c-0.2,0.1,0,0.2,0,0.3
					c0,0,0,0.1,0,0.2c0,0.1,0,0.3,0.1,0.4c0.1,0.2,0.3,0.4,0.4,0.5c0.2,0.1,0.4,0.6,0.6,0.6c0.2,0,0.4-0.1,0.5-0.1
					c0.2,0,0.4,0,0.6-0.1c0.2-0.1,0.1-0.3,0.3-0.5c0.1-0.1,0.3,0,0.4-0.1c0.2-0.1,0.3-0.3,0.4-0.5c0-0.1,0-0.1,0-0.2
					c0-0.1,0.1-0.2,0.1-0.3c0-0.1-0.1-0.1-0.1-0.2c0-0.1,0-0.2,0-0.3c0-0.2,0-0.4-0.1-0.5c-0.4-0.7-1.2-0.9-2-0.8
					c-0.2,0-0.3,0.1-0.4,0.2c-0.2,0.1-0.1,0.2-0.3,0.2c-0.1,0-0.2,0.1-0.2,0.2C31.1-64,31.1-64.1,31.1-64C31.1-64,31.1-64,31.1-64"
					/>
				<path class="st2" d="M23.5-64c0,0.1,0,0.1,0,0.2c-0.1,0.1-0.1,0.1-0.2,0.1c-0.1,0.1-0.1,0.3-0.1,0.4c-0.2,0.1,0,0.2,0,0.3
					c0,0,0,0.1,0,0.2c0,0.1,0,0.3,0.1,0.4c0.1,0.2,0.3,0.4,0.4,0.5c0.2,0.1,0.4,0.6,0.6,0.6c0.2,0,0.4-0.1,0.5-0.1
					c0.2,0,0.4,0,0.6-0.1c0.2-0.1,0.1-0.3,0.3-0.5c0.1-0.1,0.3,0,0.4-0.1c0.2-0.1,0.3-0.3,0.4-0.5c0-0.1,0-0.1,0-0.2
					c0-0.1,0.1-0.2,0.1-0.3c0-0.1-0.1-0.1-0.1-0.2c0-0.1,0-0.2,0-0.3c0-0.2,0-0.4-0.1-0.5c-0.4-0.7-1.2-0.9-2-0.8
					c-0.2,0-0.3,0.1-0.4,0.2c-0.2,0.1-0.1,0.2-0.3,0.2c-0.1,0-0.2,0.1-0.2,0.2C23.5-64,23.5-64.1,23.5-64C23.5-64,23.5-64,23.5-64"
					/>
				<path class="st2" d="M15.8-64c0,0.1,0,0.1,0,0.2c-0.1,0.1-0.1,0.1-0.2,0.1c-0.1,0.1-0.1,0.3-0.1,0.4c-0.2,0.1,0,0.2,0,0.3
					c0,0,0,0.1,0,0.2c0,0.1,0,0.3,0.1,0.4c0.1,0.2,0.3,0.4,0.4,0.5c0.2,0.1,0.4,0.6,0.6,0.6c0.2,0,0.4-0.1,0.5-0.1
					c0.2,0,0.4,0,0.6-0.1c0.2-0.1,0.1-0.3,0.3-0.5c0.1-0.1,0.3,0,0.4-0.1c0.2-0.1,0.3-0.3,0.4-0.5c0-0.1,0-0.1,0-0.2
					c0-0.1,0.1-0.2,0.1-0.3c0-0.1-0.1-0.1-0.1-0.2c0-0.1,0-0.2,0-0.3c0-0.2,0-0.4-0.1-0.5c-0.4-0.7-1.2-0.9-2-0.8
					c-0.2,0-0.3,0.1-0.4,0.2c-0.2,0.1-0.1,0.2-0.3,0.2c-0.1,0-0.2,0.1-0.2,0.2C15.8-64,15.8-64.1,15.8-64C15.8-64,15.8-64,15.8-64"
					/>
				<path class="st2" d="M8.2-64c0,0.1,0,0.1,0,0.2C8.1-63.7,8-63.7,8-63.7c-0.1,0.1-0.1,0.3-0.1,0.4c-0.2,0.1,0,0.2,0,0.3
					c0,0,0,0.1,0,0.2c0,0.1,0,0.3,0.1,0.4C8-62.2,8.2-62,8.3-61.9c0.2,0.1,0.4,0.6,0.6,0.6c0.2,0,0.4-0.1,0.5-0.1
					c0.2,0,0.4,0,0.6-0.1c0.2-0.1,0.1-0.3,0.3-0.5c0.1-0.1,0.3,0,0.4-0.1c0.2-0.1,0.3-0.3,0.4-0.5c0-0.1,0-0.1,0-0.2
					c0-0.1,0.1-0.2,0.1-0.3c0-0.1-0.1-0.1-0.1-0.2c0-0.1,0-0.2,0-0.3c0-0.2,0-0.4-0.1-0.5c-0.4-0.7-1.2-0.9-2-0.8
					c-0.2,0-0.3,0.1-0.4,0.2c-0.2,0.1-0.1,0.2-0.3,0.2c-0.1,0-0.2,0.1-0.2,0.2C8.2-64,8.2-64.1,8.2-64C8.1-64,8.1-64,8.2-64"/>
				<path class="st2" d="M0.5-64c0,0.1,0,0.1,0,0.2c-0.1,0.1-0.1,0.1-0.2,0.1c-0.1,0.1-0.1,0.3-0.1,0.4c-0.2,0.1,0,0.2,0,0.3
					c0,0,0,0.1,0,0.2c0,0.1,0,0.3,0.1,0.4c0.1,0.2,0.3,0.4,0.4,0.5c0.2,0.1,0.4,0.6,0.6,0.6c0.2,0,0.4-0.1,0.5-0.1
					c0.2,0,0.4,0,0.6-0.1c0.2-0.1,0.1-0.3,0.3-0.5C2.8-62,3-61.9,3.1-62c0.2-0.1,0.3-0.3,0.4-0.5c0-0.1,0-0.1,0-0.2
					c0-0.1,0.1-0.2,0.1-0.3c0-0.1-0.1-0.1-0.1-0.2c0-0.1,0-0.2,0-0.3c0-0.2,0-0.4-0.1-0.5c-0.4-0.7-1.2-0.9-2-0.8
					c-0.2,0-0.3,0.1-0.4,0.2c-0.2,0.1-0.1,0.2-0.3,0.2c-0.1,0-0.2,0.1-0.2,0.2C0.5-64,0.5-64.1,0.5-64C0.5-64,0.5-64,0.5-64"/>
			</g>
			<g>
				<path class="st2" d="M69.4-56.3c0,0.1,0,0.1,0,0.2c-0.1,0.1-0.1,0.1-0.2,0.1c-0.1,0.1-0.1,0.3-0.1,0.4c-0.2,0.1,0,0.2,0,0.3
					c0,0,0,0.1,0,0.2c0,0.1,0,0.3,0.1,0.4c0.1,0.2,0.3,0.4,0.4,0.5c0.2,0.1,0.4,0.6,0.6,0.6c0.2,0,0.4-0.1,0.5-0.1
					c0.2,0,0.4,0,0.6-0.1c0.2-0.1,0.1-0.3,0.3-0.5c0.1-0.1,0.3,0,0.4-0.1c0.2-0.1,0.3-0.3,0.4-0.5c0-0.1,0-0.1,0-0.2
					c0-0.1,0.1-0.2,0.1-0.3c0-0.1-0.1-0.1-0.1-0.2c0-0.1,0-0.2,0-0.3c0-0.2,0-0.4-0.1-0.5c-0.4-0.7-1.2-0.9-2-0.8
					c-0.2,0-0.3,0.1-0.4,0.2c-0.2,0.1-0.1,0.2-0.3,0.2c-0.1,0-0.2,0.1-0.2,0.2C69.4-56.4,69.4-56.4,69.4-56.3
					C69.4-56.3,69.4-56.3,69.4-56.3"/>
				<path class="st2" d="M61.8-56.3c0,0.1,0,0.1,0,0.2c-0.1,0.1-0.1,0.1-0.2,0.1c-0.1,0.1-0.1,0.3-0.1,0.4c-0.2,0.1,0,0.2,0,0.3
					c0,0,0,0.1,0,0.2c0,0.1,0,0.3,0.1,0.4c0.1,0.2,0.3,0.4,0.4,0.5c0.2,0.1,0.4,0.6,0.6,0.6c0.2,0,0.4-0.1,0.5-0.1
					c0.2,0,0.4,0,0.6-0.1c0.2-0.1,0.1-0.3,0.3-0.5c0.1-0.1,0.3,0,0.4-0.1c0.2-0.1,0.3-0.3,0.4-0.5c0-0.1,0-0.1,0-0.2
					c0-0.1,0.1-0.2,0.1-0.3c0-0.1-0.1-0.1-0.1-0.2c0-0.1,0-0.2,0-0.3c0-0.2,0-0.4-0.1-0.5c-0.4-0.7-1.2-0.9-2-0.8
					c-0.2,0-0.3,0.1-0.4,0.2c-0.2,0.1-0.1,0.2-0.3,0.2c-0.1,0-0.2,0.1-0.2,0.2C61.8-56.4,61.8-56.4,61.8-56.3
					C61.8-56.3,61.8-56.3,61.8-56.3"/>
				<path class="st2" d="M54.1-56.3c0,0.1,0,0.1,0,0.2C54-56.1,54-56.1,53.9-56c-0.1,0.1-0.1,0.3-0.1,0.4c-0.2,0.1,0,0.2,0,0.3
					c0,0,0,0.1,0,0.2c0,0.1,0,0.3,0.1,0.4c0.1,0.2,0.3,0.4,0.4,0.5c0.2,0.1,0.4,0.6,0.6,0.6c0.2,0,0.4-0.1,0.5-0.1
					c0.2,0,0.4,0,0.6-0.1c0.2-0.1,0.1-0.3,0.3-0.5c0.1-0.1,0.3,0,0.4-0.1c0.2-0.1,0.3-0.3,0.4-0.5c0-0.1,0-0.1,0-0.2
					c0-0.1,0.1-0.2,0.1-0.3c0-0.1-0.1-0.1-0.1-0.2c0-0.1,0-0.2,0-0.3c0-0.2,0-0.4-0.1-0.5c-0.4-0.7-1.2-0.9-2-0.8
					c-0.2,0-0.3,0.1-0.4,0.2c-0.2,0.1-0.1,0.2-0.3,0.2c-0.1,0-0.2,0.1-0.2,0.2C54.1-56.4,54.1-56.4,54.1-56.3
					C54.1-56.3,54.1-56.3,54.1-56.3"/>
				<path class="st2" d="M46.5-56.3c0,0.1,0,0.1,0,0.2c-0.1,0.1-0.1,0.1-0.2,0.1c-0.1,0.1-0.1,0.3-0.1,0.4c-0.2,0.1,0,0.2,0,0.3
					c0,0,0,0.1,0,0.2c0,0.1,0,0.3,0.1,0.4c0.1,0.2,0.3,0.4,0.4,0.5c0.2,0.1,0.4,0.6,0.6,0.6c0.2,0,0.4-0.1,0.5-0.1
					c0.2,0,0.4,0,0.6-0.1c0.2-0.1,0.1-0.3,0.3-0.5c0.1-0.1,0.3,0,0.4-0.1c0.2-0.1,0.3-0.3,0.4-0.5c0-0.1,0-0.1,0-0.2
					c0-0.1,0.1-0.2,0.1-0.3c0-0.1-0.1-0.1-0.1-0.2c0-0.1,0-0.2,0-0.3c0-0.2,0-0.4-0.1-0.5c-0.4-0.7-1.2-0.9-2-0.8
					c-0.2,0-0.3,0.1-0.4,0.2c-0.2,0.1-0.1,0.2-0.3,0.2c-0.1,0-0.2,0.1-0.2,0.2C46.5-56.4,46.5-56.4,46.5-56.3
					C46.5-56.3,46.5-56.3,46.5-56.3"/>
				<path class="st2" d="M38.8-56.3c0,0.1,0,0.1,0,0.2c-0.1,0.1-0.1,0.1-0.2,0.1c-0.1,0.1-0.1,0.3-0.1,0.4c-0.2,0.1,0,0.2,0,0.3
					c0,0,0,0.1,0,0.2c0,0.1,0,0.3,0.1,0.4c0.1,0.2,0.3,0.4,0.4,0.5c0.2,0.1,0.4,0.6,0.6,0.6c0.2,0,0.4-0.1,0.5-0.1
					c0.2,0,0.4,0,0.6-0.1c0.2-0.1,0.1-0.3,0.3-0.5c0.1-0.1,0.3,0,0.4-0.1c0.2-0.1,0.3-0.3,0.4-0.5c0-0.1,0-0.1,0-0.2
					c0-0.1,0.1-0.2,0.1-0.3c0-0.1-0.1-0.1-0.1-0.2c0-0.1,0-0.2,0-0.3c0-0.2,0-0.4-0.1-0.5c-0.4-0.7-1.2-0.9-2-0.8
					c-0.2,0-0.3,0.1-0.4,0.2c-0.2,0.1-0.1,0.2-0.3,0.2c-0.1,0-0.2,0.1-0.2,0.2C38.8-56.4,38.8-56.4,38.8-56.3
					C38.8-56.3,38.8-56.3,38.8-56.3"/>
				<path class="st2" d="M31.1-56.3c0,0.1,0,0.1,0,0.2c-0.1,0.1-0.1,0.1-0.2,0.1c-0.1,0.1-0.1,0.3-0.1,0.4c-0.2,0.1,0,0.2,0,0.3
					c0,0,0,0.1,0,0.2c0,0.1,0,0.3,0.1,0.4c0.1,0.2,0.3,0.4,0.4,0.5c0.2,0.1,0.4,0.6,0.6,0.6c0.2,0,0.4-0.1,0.5-0.1
					c0.2,0,0.4,0,0.6-0.1c0.2-0.1,0.1-0.3,0.3-0.5c0.1-0.1,0.3,0,0.4-0.1c0.2-0.1,0.3-0.3,0.4-0.5c0-0.1,0-0.1,0-0.2
					c0-0.1,0.1-0.2,0.1-0.3c0-0.1-0.1-0.1-0.1-0.2c0-0.1,0-0.2,0-0.3c0-0.2,0-0.4-0.1-0.5c-0.4-0.7-1.2-0.9-2-0.8
					c-0.2,0-0.3,0.1-0.4,0.2c-0.2,0.1-0.1,0.2-0.3,0.2c-0.1,0-0.2,0.1-0.2,0.2C31.1-56.4,31.1-56.4,31.1-56.3
					C31.1-56.3,31.1-56.3,31.1-56.3"/>
				<path class="st2" d="M23.5-56.3c0,0.1,0,0.1,0,0.2c-0.1,0.1-0.1,0.1-0.2,0.1c-0.1,0.1-0.1,0.3-0.1,0.4c-0.2,0.1,0,0.2,0,0.3
					c0,0,0,0.1,0,0.2c0,0.1,0,0.3,0.1,0.4c0.1,0.2,0.3,0.4,0.4,0.5c0.2,0.1,0.4,0.6,0.6,0.6c0.2,0,0.4-0.1,0.5-0.1
					c0.2,0,0.4,0,0.6-0.1c0.2-0.1,0.1-0.3,0.3-0.5c0.1-0.1,0.3,0,0.4-0.1c0.2-0.1,0.3-0.3,0.4-0.5c0-0.1,0-0.1,0-0.2
					c0-0.1,0.1-0.2,0.1-0.3c0-0.1-0.1-0.1-0.1-0.2c0-0.1,0-0.2,0-0.3c0-0.2,0-0.4-0.1-0.5c-0.4-0.7-1.2-0.9-2-0.8
					c-0.2,0-0.3,0.1-0.4,0.2c-0.2,0.1-0.1,0.2-0.3,0.2c-0.1,0-0.2,0.1-0.2,0.2C23.5-56.4,23.5-56.4,23.5-56.3
					C23.5-56.3,23.5-56.3,23.5-56.3"/>
				<path class="st2" d="M15.8-56.3c0,0.1,0,0.1,0,0.2c-0.1,0.1-0.1,0.1-0.2,0.1c-0.1,0.1-0.1,0.3-0.1,0.4c-0.2,0.1,0,0.2,0,0.3
					c0,0,0,0.1,0,0.2c0,0.1,0,0.3,0.1,0.4c0.1,0.2,0.3,0.4,0.4,0.5c0.2,0.1,0.4,0.6,0.6,0.6c0.2,0,0.4-0.1,0.5-0.1
					c0.2,0,0.4,0,0.6-0.1c0.2-0.1,0.1-0.3,0.3-0.5c0.1-0.1,0.3,0,0.4-0.1c0.2-0.1,0.3-0.3,0.4-0.5c0-0.1,0-0.1,0-0.2
					c0-0.1,0.1-0.2,0.1-0.3c0-0.1-0.1-0.1-0.1-0.2c0-0.1,0-0.2,0-0.3c0-0.2,0-0.4-0.1-0.5c-0.4-0.7-1.2-0.9-2-0.8
					c-0.2,0-0.3,0.1-0.4,0.2c-0.2,0.1-0.1,0.2-0.3,0.2c-0.1,0-0.2,0.1-0.2,0.2C15.8-56.4,15.8-56.4,15.8-56.3
					C15.8-56.3,15.8-56.3,15.8-56.3"/>
				<path class="st2" d="M8.2-56.3c0,0.1,0,0.1,0,0.2C8.1-56.1,8-56.1,8-56c-0.1,0.1-0.1,0.3-0.1,0.4c-0.2,0.1,0,0.2,0,0.3
					c0,0,0,0.1,0,0.2c0,0.1,0,0.3,0.1,0.4c0.1,0.2,0.3,0.4,0.4,0.5c0.2,0.1,0.4,0.6,0.6,0.6c0.2,0,0.4-0.1,0.5-0.1
					c0.2,0,0.4,0,0.6-0.1c0.2-0.1,0.1-0.3,0.3-0.5c0.1-0.1,0.3,0,0.4-0.1c0.2-0.1,0.3-0.3,0.4-0.5c0-0.1,0-0.1,0-0.2
					c0-0.1,0.1-0.2,0.1-0.3c0-0.1-0.1-0.1-0.1-0.2c0-0.1,0-0.2,0-0.3c0-0.2,0-0.4-0.1-0.5c-0.4-0.7-1.2-0.9-2-0.8
					c-0.2,0-0.3,0.1-0.4,0.2c-0.2,0.1-0.1,0.2-0.3,0.2c-0.1,0-0.2,0.1-0.2,0.2C8.2-56.4,8.2-56.4,8.2-56.3
					C8.1-56.3,8.1-56.3,8.2-56.3"/>
				<path class="st2" d="M0.5-56.3c0,0.1,0,0.1,0,0.2c-0.1,0.1-0.1,0.1-0.2,0.1c-0.1,0.1-0.1,0.3-0.1,0.4c-0.2,0.1,0,0.2,0,0.3
					c0,0,0,0.1,0,0.2c0,0.1,0,0.3,0.1,0.4c0.1,0.2,0.3,0.4,0.4,0.5c0.2,0.1,0.4,0.6,0.6,0.6c0.2,0,0.4-0.1,0.5-0.1
					c0.2,0,0.4,0,0.6-0.1c0.2-0.1,0.1-0.3,0.3-0.5c0.1-0.1,0.3,0,0.4-0.1c0.2-0.1,0.3-0.3,0.4-0.5c0-0.1,0-0.1,0-0.2
					c0-0.1,0.1-0.2,0.1-0.3c0-0.1-0.1-0.1-0.1-0.2c0-0.1,0-0.2,0-0.3c0-0.2,0-0.4-0.1-0.5c-0.4-0.7-1.2-0.9-2-0.8
					c-0.2,0-0.3,0.1-0.4,0.2c-0.2,0.1-0.1,0.2-0.3,0.2c-0.1,0-0.2,0.1-0.2,0.2C0.5-56.4,0.5-56.4,0.5-56.3
					C0.5-56.3,0.5-56.3,0.5-56.3"/>
			</g>
			<g>
				<path class="st2" d="M69.4-48.7c0,0.1,0,0.1,0,0.2c-0.1,0.1-0.1,0.1-0.2,0.1c-0.1,0.1-0.1,0.3-0.1,0.4c-0.2,0.1,0,0.2,0,0.3
					c0,0,0,0.1,0,0.2c0,0.1,0,0.3,0.1,0.4c0.1,0.2,0.3,0.4,0.4,0.5c0.2,0.1,0.4,0.6,0.6,0.6c0.2,0,0.4-0.1,0.5-0.1
					c0.2,0,0.4,0,0.6-0.1c0.2-0.1,0.1-0.3,0.3-0.5c0.1-0.1,0.3,0,0.4-0.1c0.2-0.1,0.3-0.3,0.4-0.5c0-0.1,0-0.1,0-0.2
					c0-0.1,0.1-0.2,0.1-0.3c0-0.1-0.1-0.1-0.1-0.2c0-0.1,0-0.2,0-0.3c0-0.2,0-0.4-0.1-0.5c-0.4-0.7-1.2-0.9-2-0.8
					c-0.2,0-0.3,0.1-0.4,0.2c-0.2,0.1-0.1,0.2-0.3,0.2c-0.1,0-0.2,0.1-0.2,0.2C69.4-48.7,69.4-48.8,69.4-48.7
					C69.4-48.7,69.4-48.7,69.4-48.7"/>
				<path class="st2" d="M61.8-48.7c0,0.1,0,0.1,0,0.2c-0.1,0.1-0.1,0.1-0.2,0.1c-0.1,0.1-0.1,0.3-0.1,0.4c-0.2,0.1,0,0.2,0,0.3
					c0,0,0,0.1,0,0.2c0,0.1,0,0.3,0.1,0.4c0.1,0.2,0.3,0.4,0.4,0.5c0.2,0.1,0.4,0.6,0.6,0.6c0.2,0,0.4-0.1,0.5-0.1
					c0.2,0,0.4,0,0.6-0.1c0.2-0.1,0.1-0.3,0.3-0.5c0.1-0.1,0.3,0,0.4-0.1c0.2-0.1,0.3-0.3,0.4-0.5c0-0.1,0-0.1,0-0.2
					c0-0.1,0.1-0.2,0.1-0.3c0-0.1-0.1-0.1-0.1-0.2c0-0.1,0-0.2,0-0.3c0-0.2,0-0.4-0.1-0.5c-0.4-0.7-1.2-0.9-2-0.8
					c-0.2,0-0.3,0.1-0.4,0.2c-0.2,0.1-0.1,0.2-0.3,0.2c-0.1,0-0.2,0.1-0.2,0.2C61.8-48.7,61.8-48.8,61.8-48.7
					C61.8-48.7,61.8-48.7,61.8-48.7"/>
				<path class="st2" d="M54.1-48.7c0,0.1,0,0.1,0,0.2c-0.1,0.1-0.1,0.1-0.2,0.1c-0.1,0.1-0.1,0.3-0.1,0.4c-0.2,0.1,0,0.2,0,0.3
					c0,0,0,0.1,0,0.2c0,0.1,0,0.3,0.1,0.4c0.1,0.2,0.3,0.4,0.4,0.5c0.2,0.1,0.4,0.6,0.6,0.6c0.2,0,0.4-0.1,0.5-0.1
					c0.2,0,0.4,0,0.6-0.1c0.2-0.1,0.1-0.3,0.3-0.5c0.1-0.1,0.3,0,0.4-0.1c0.2-0.1,0.3-0.3,0.4-0.5c0-0.1,0-0.1,0-0.2
					c0-0.1,0.1-0.2,0.1-0.3c0-0.1-0.1-0.1-0.1-0.2c0-0.1,0-0.2,0-0.3c0-0.2,0-0.4-0.1-0.5c-0.4-0.7-1.2-0.9-2-0.8
					c-0.2,0-0.3,0.1-0.4,0.2c-0.2,0.1-0.1,0.2-0.3,0.2c-0.1,0-0.2,0.1-0.2,0.2C54.1-48.7,54.1-48.8,54.1-48.7
					C54.1-48.7,54.1-48.7,54.1-48.7"/>
				<path class="st2" d="M46.5-48.7c0,0.1,0,0.1,0,0.2c-0.1,0.1-0.1,0.1-0.2,0.1c-0.1,0.1-0.1,0.3-0.1,0.4c-0.2,0.1,0,0.2,0,0.3
					c0,0,0,0.1,0,0.2c0,0.1,0,0.3,0.1,0.4c0.1,0.2,0.3,0.4,0.4,0.5c0.2,0.1,0.4,0.6,0.6,0.6c0.2,0,0.4-0.1,0.5-0.1
					c0.2,0,0.4,0,0.6-0.1c0.2-0.1,0.1-0.3,0.3-0.5c0.1-0.1,0.3,0,0.4-0.1c0.2-0.1,0.3-0.3,0.4-0.5c0-0.1,0-0.1,0-0.2
					c0-0.1,0.1-0.2,0.1-0.3c0-0.1-0.1-0.1-0.1-0.2c0-0.1,0-0.2,0-0.3c0-0.2,0-0.4-0.1-0.5c-0.4-0.7-1.2-0.9-2-0.8
					c-0.2,0-0.3,0.1-0.4,0.2c-0.2,0.1-0.1,0.2-0.3,0.2c-0.1,0-0.2,0.1-0.2,0.2C46.5-48.7,46.5-48.8,46.5-48.7
					C46.5-48.7,46.5-48.7,46.5-48.7"/>
				<path class="st2" d="M38.8-48.7c0,0.1,0,0.1,0,0.2c-0.1,0.1-0.1,0.1-0.2,0.1c-0.1,0.1-0.1,0.3-0.1,0.4c-0.2,0.1,0,0.2,0,0.3
					c0,0,0,0.1,0,0.2c0,0.1,0,0.3,0.1,0.4c0.1,0.2,0.3,0.4,0.4,0.5c0.2,0.1,0.4,0.6,0.6,0.6c0.2,0,0.4-0.1,0.5-0.1
					c0.2,0,0.4,0,0.6-0.1c0.2-0.1,0.1-0.3,0.3-0.5c0.1-0.1,0.3,0,0.4-0.1c0.2-0.1,0.3-0.3,0.4-0.5c0-0.1,0-0.1,0-0.2
					c0-0.1,0.1-0.2,0.1-0.3c0-0.1-0.1-0.1-0.1-0.2c0-0.1,0-0.2,0-0.3c0-0.2,0-0.4-0.1-0.5c-0.4-0.7-1.2-0.9-2-0.8
					c-0.2,0-0.3,0.1-0.4,0.2c-0.2,0.1-0.1,0.2-0.3,0.2c-0.1,0-0.2,0.1-0.2,0.2C38.8-48.7,38.8-48.8,38.8-48.7
					C38.8-48.7,38.8-48.7,38.8-48.7"/>
				<path class="st2" d="M31.1-48.7c0,0.1,0,0.1,0,0.2c-0.1,0.1-0.1,0.1-0.2,0.1c-0.1,0.1-0.1,0.3-0.1,0.4c-0.2,0.1,0,0.2,0,0.3
					c0,0,0,0.1,0,0.2c0,0.1,0,0.3,0.1,0.4c0.1,0.2,0.3,0.4,0.4,0.5c0.2,0.1,0.4,0.6,0.6,0.6c0.2,0,0.4-0.1,0.5-0.1
					c0.2,0,0.4,0,0.6-0.1c0.2-0.1,0.1-0.3,0.3-0.5c0.1-0.1,0.3,0,0.4-0.1c0.2-0.1,0.3-0.3,0.4-0.5c0-0.1,0-0.1,0-0.2
					c0-0.1,0.1-0.2,0.1-0.3c0-0.1-0.1-0.1-0.1-0.2c0-0.1,0-0.2,0-0.3c0-0.2,0-0.4-0.1-0.5c-0.4-0.7-1.2-0.9-2-0.8
					c-0.2,0-0.3,0.1-0.4,0.2c-0.2,0.1-0.1,0.2-0.3,0.2c-0.1,0-0.2,0.1-0.2,0.2C31.1-48.7,31.1-48.8,31.1-48.7
					C31.1-48.7,31.1-48.7,31.1-48.7"/>
				<path class="st2" d="M23.5-48.7c0,0.1,0,0.1,0,0.2c-0.1,0.1-0.1,0.1-0.2,0.1c-0.1,0.1-0.1,0.3-0.1,0.4c-0.2,0.1,0,0.2,0,0.3
					c0,0,0,0.1,0,0.2c0,0.1,0,0.3,0.1,0.4c0.1,0.2,0.3,0.4,0.4,0.5c0.2,0.1,0.4,0.6,0.6,0.6c0.2,0,0.4-0.1,0.5-0.1
					c0.2,0,0.4,0,0.6-0.1c0.2-0.1,0.1-0.3,0.3-0.5c0.1-0.1,0.3,0,0.4-0.1c0.2-0.1,0.3-0.3,0.4-0.5c0-0.1,0-0.1,0-0.2
					c0-0.1,0.1-0.2,0.1-0.3c0-0.1-0.1-0.1-0.1-0.2c0-0.1,0-0.2,0-0.3c0-0.2,0-0.4-0.1-0.5c-0.4-0.7-1.2-0.9-2-0.8
					c-0.2,0-0.3,0.1-0.4,0.2c-0.2,0.1-0.1,0.2-0.3,0.2c-0.1,0-0.2,0.1-0.2,0.2C23.5-48.7,23.5-48.8,23.5-48.7
					C23.5-48.7,23.5-48.7,23.5-48.7"/>
				<path class="st2" d="M15.8-48.7c0,0.1,0,0.1,0,0.2c-0.1,0.1-0.1,0.1-0.2,0.1c-0.1,0.1-0.1,0.3-0.1,0.4c-0.2,0.1,0,0.2,0,0.3
					c0,0,0,0.1,0,0.2c0,0.1,0,0.3,0.1,0.4c0.1,0.2,0.3,0.4,0.4,0.5c0.2,0.1,0.4,0.6,0.6,0.6c0.2,0,0.4-0.1,0.5-0.1
					c0.2,0,0.4,0,0.6-0.1c0.2-0.1,0.1-0.3,0.3-0.5c0.1-0.1,0.3,0,0.4-0.1c0.2-0.1,0.3-0.3,0.4-0.5c0-0.1,0-0.1,0-0.2
					c0-0.1,0.1-0.2,0.1-0.3c0-0.1-0.1-0.1-0.1-0.2c0-0.1,0-0.2,0-0.3c0-0.2,0-0.4-0.1-0.5c-0.4-0.7-1.2-0.9-2-0.8
					c-0.2,0-0.3,0.1-0.4,0.2c-0.2,0.1-0.1,0.2-0.3,0.2c-0.1,0-0.2,0.1-0.2,0.2C15.8-48.7,15.8-48.8,15.8-48.7
					C15.8-48.7,15.8-48.7,15.8-48.7"/>
				<path class="st2" d="M8.2-48.7c0,0.1,0,0.1,0,0.2C8.1-48.4,8-48.4,8-48.4c-0.1,0.1-0.1,0.3-0.1,0.4c-0.2,0.1,0,0.2,0,0.3
					c0,0,0,0.1,0,0.2c0,0.1,0,0.3,0.1,0.4c0.1,0.2,0.3,0.4,0.4,0.5C8.5-46.4,8.7-46,8.9-46c0.2,0,0.4-0.1,0.5-0.1
					c0.2,0,0.4,0,0.6-0.1c0.2-0.1,0.1-0.3,0.3-0.5c0.1-0.1,0.3,0,0.4-0.1c0.2-0.1,0.3-0.3,0.4-0.5c0-0.1,0-0.1,0-0.2
					c0-0.1,0.1-0.2,0.1-0.3c0-0.1-0.1-0.1-0.1-0.2c0-0.1,0-0.2,0-0.3c0-0.2,0-0.4-0.1-0.5c-0.4-0.7-1.2-0.9-2-0.8
					c-0.2,0-0.3,0.1-0.4,0.2c-0.2,0.1-0.1,0.2-0.3,0.2c-0.1,0-0.2,0.1-0.2,0.2C8.2-48.7,8.2-48.8,8.2-48.7
					C8.1-48.7,8.1-48.7,8.2-48.7"/>
				<path class="st2" d="M0.5-48.7c0,0.1,0,0.1,0,0.2c-0.1,0.1-0.1,0.1-0.2,0.1c-0.1,0.1-0.1,0.3-0.1,0.4c-0.2,0.1,0,0.2,0,0.3
					c0,0,0,0.1,0,0.2c0,0.1,0,0.3,0.1,0.4c0.1,0.2,0.3,0.4,0.4,0.5C0.9-46.4,1-46,1.3-46c0.2,0,0.4-0.1,0.5-0.1c0.2,0,0.4,0,0.6-0.1
					c0.2-0.1,0.1-0.3,0.3-0.5c0.1-0.1,0.3,0,0.4-0.1c0.2-0.1,0.3-0.3,0.4-0.5c0-0.1,0-0.1,0-0.2c0-0.1,0.1-0.2,0.1-0.3
					c0-0.1-0.1-0.1-0.1-0.2c0-0.1,0-0.2,0-0.3c0-0.2,0-0.4-0.1-0.5c-0.4-0.7-1.2-0.9-2-0.8c-0.2,0-0.3,0.1-0.4,0.2
					c-0.2,0.1-0.1,0.2-0.3,0.2c-0.1,0-0.2,0.1-0.2,0.2C0.5-48.7,0.5-48.8,0.5-48.7C0.5-48.7,0.5-48.7,0.5-48.7"/>
			</g>
			<g>
				<path class="st2" d="M69.4-41c0,0.1,0,0.1,0,0.2c-0.1,0.1-0.1,0.1-0.2,0.1c-0.1,0.1-0.1,0.3-0.1,0.4c-0.2,0.1,0,0.2,0,0.3
					c0,0,0,0.1,0,0.2c0,0.1,0,0.3,0.1,0.4c0.1,0.2,0.3,0.4,0.4,0.5c0.2,0.1,0.4,0.6,0.6,0.6c0.2,0,0.4-0.1,0.5-0.1
					c0.2,0,0.4,0,0.6-0.1c0.2-0.1,0.1-0.3,0.3-0.5c0.1-0.1,0.3,0,0.4-0.1c0.2-0.1,0.3-0.3,0.4-0.5c0-0.1,0-0.1,0-0.2
					c0-0.1,0.1-0.2,0.1-0.3c0-0.1-0.1-0.1-0.1-0.2c0-0.1,0-0.2,0-0.3c0-0.2,0-0.4-0.1-0.5c-0.4-0.7-1.2-0.9-2-0.8
					c-0.2,0-0.3,0.1-0.4,0.2c-0.2,0.1-0.1,0.2-0.3,0.2c-0.1,0-0.2,0.1-0.2,0.2C69.4-41.1,69.4-41.1,69.4-41C69.4-41,69.4-41,69.4-41
					"/>
				<path class="st2" d="M61.8-41c0,0.1,0,0.1,0,0.2c-0.1,0.1-0.1,0.1-0.2,0.1c-0.1,0.1-0.1,0.3-0.1,0.4c-0.2,0.1,0,0.2,0,0.3
					c0,0,0,0.1,0,0.2c0,0.1,0,0.3,0.1,0.4c0.1,0.2,0.3,0.4,0.4,0.5c0.2,0.1,0.4,0.6,0.6,0.6c0.2,0,0.4-0.1,0.5-0.1
					c0.2,0,0.4,0,0.6-0.1c0.2-0.1,0.1-0.3,0.3-0.5c0.1-0.1,0.3,0,0.4-0.1c0.2-0.1,0.3-0.3,0.4-0.5c0-0.1,0-0.1,0-0.2
					c0-0.1,0.1-0.2,0.1-0.3c0-0.1-0.1-0.1-0.1-0.2c0-0.1,0-0.2,0-0.3c0-0.2,0-0.4-0.1-0.5c-0.4-0.7-1.2-0.9-2-0.8
					c-0.2,0-0.3,0.1-0.4,0.2c-0.2,0.1-0.1,0.2-0.3,0.2c-0.1,0-0.2,0.1-0.2,0.2C61.8-41.1,61.8-41.1,61.8-41C61.8-41,61.8-41,61.8-41
					"/>
				<path class="st2" d="M54.1-41c0,0.1,0,0.1,0,0.2c-0.1,0.1-0.1,0.1-0.2,0.1c-0.1,0.1-0.1,0.3-0.1,0.4c-0.2,0.1,0,0.2,0,0.3
					c0,0,0,0.1,0,0.2c0,0.1,0,0.3,0.1,0.4c0.1,0.2,0.3,0.4,0.4,0.5c0.2,0.1,0.4,0.6,0.6,0.6c0.2,0,0.4-0.1,0.5-0.1
					c0.2,0,0.4,0,0.6-0.1c0.2-0.1,0.1-0.3,0.3-0.5c0.1-0.1,0.3,0,0.4-0.1c0.2-0.1,0.3-0.3,0.4-0.5c0-0.1,0-0.1,0-0.2
					c0-0.1,0.1-0.2,0.1-0.3c0-0.1-0.1-0.1-0.1-0.2c0-0.1,0-0.2,0-0.3c0-0.2,0-0.4-0.1-0.5c-0.4-0.7-1.2-0.9-2-0.8
					c-0.2,0-0.3,0.1-0.4,0.2c-0.2,0.1-0.1,0.2-0.3,0.2c-0.1,0-0.2,0.1-0.2,0.2C54.1-41.1,54.1-41.1,54.1-41C54.1-41,54.1-41,54.1-41
					"/>
				<path class="st2" d="M46.5-41c0,0.1,0,0.1,0,0.2c-0.1,0.1-0.1,0.1-0.2,0.1c-0.1,0.1-0.1,0.3-0.1,0.4c-0.2,0.1,0,0.2,0,0.3
					c0,0,0,0.1,0,0.2c0,0.1,0,0.3,0.1,0.4c0.1,0.2,0.3,0.4,0.4,0.5c0.2,0.1,0.4,0.6,0.6,0.6c0.2,0,0.4-0.1,0.5-0.1
					c0.2,0,0.4,0,0.6-0.1c0.2-0.1,0.1-0.3,0.3-0.5c0.1-0.1,0.3,0,0.4-0.1c0.2-0.1,0.3-0.3,0.4-0.5c0-0.1,0-0.1,0-0.2
					c0-0.1,0.1-0.2,0.1-0.3c0-0.1-0.1-0.1-0.1-0.2c0-0.1,0-0.2,0-0.3c0-0.2,0-0.4-0.1-0.5c-0.4-0.7-1.2-0.9-2-0.8
					c-0.2,0-0.3,0.1-0.4,0.2c-0.2,0.1-0.1,0.2-0.3,0.2c-0.1,0-0.2,0.1-0.2,0.2C46.5-41.1,46.5-41.1,46.5-41C46.5-41,46.5-41,46.5-41
					"/>
				<path class="st2" d="M38.8-41c0,0.1,0,0.1,0,0.2c-0.1,0.1-0.1,0.1-0.2,0.1c-0.1,0.1-0.1,0.3-0.1,0.4c-0.2,0.1,0,0.2,0,0.3
					c0,0,0,0.1,0,0.2c0,0.1,0,0.3,0.1,0.4c0.1,0.2,0.3,0.4,0.4,0.5c0.2,0.1,0.4,0.6,0.6,0.6c0.2,0,0.4-0.1,0.5-0.1
					c0.2,0,0.4,0,0.6-0.1c0.2-0.1,0.1-0.3,0.3-0.5c0.1-0.1,0.3,0,0.4-0.1c0.2-0.1,0.3-0.3,0.4-0.5c0-0.1,0-0.1,0-0.2
					c0-0.1,0.1-0.2,0.1-0.3c0-0.1-0.1-0.1-0.1-0.2c0-0.1,0-0.2,0-0.3c0-0.2,0-0.4-0.1-0.5c-0.4-0.7-1.2-0.9-2-0.8
					c-0.2,0-0.3,0.1-0.4,0.2c-0.2,0.1-0.1,0.2-0.3,0.2c-0.1,0-0.2,0.1-0.2,0.2C38.8-41.1,38.8-41.1,38.8-41C38.8-41,38.8-41,38.8-41
					"/>
				<path class="st2" d="M31.1-41c0,0.1,0,0.1,0,0.2c-0.1,0.1-0.1,0.1-0.2,0.1c-0.1,0.1-0.1,0.3-0.1,0.4c-0.2,0.1,0,0.2,0,0.3
					c0,0,0,0.1,0,0.2c0,0.1,0,0.3,0.1,0.4c0.1,0.2,0.3,0.4,0.4,0.5c0.2,0.1,0.4,0.6,0.6,0.6c0.2,0,0.4-0.1,0.5-0.1
					c0.2,0,0.4,0,0.6-0.1c0.2-0.1,0.1-0.3,0.3-0.5c0.1-0.1,0.3,0,0.4-0.1c0.2-0.1,0.3-0.3,0.4-0.5c0-0.1,0-0.1,0-0.2
					c0-0.1,0.1-0.2,0.1-0.3c0-0.1-0.1-0.1-0.1-0.2c0-0.1,0-0.2,0-0.3c0-0.2,0-0.4-0.1-0.5c-0.4-0.7-1.2-0.9-2-0.8
					c-0.2,0-0.3,0.1-0.4,0.2c-0.2,0.1-0.1,0.2-0.3,0.2c-0.1,0-0.2,0.1-0.2,0.2C31.1-41.1,31.1-41.1,31.1-41C31.1-41,31.1-41,31.1-41
					"/>
				<path class="st2" d="M23.5-41c0,0.1,0,0.1,0,0.2c-0.1,0.1-0.1,0.1-0.2,0.1c-0.1,0.1-0.1,0.3-0.1,0.4c-0.2,0.1,0,0.2,0,0.3
					c0,0,0,0.1,0,0.2c0,0.1,0,0.3,0.1,0.4c0.1,0.2,0.3,0.4,0.4,0.5c0.2,0.1,0.4,0.6,0.6,0.6c0.2,0,0.4-0.1,0.5-0.1
					c0.2,0,0.4,0,0.6-0.1c0.2-0.1,0.1-0.3,0.3-0.5c0.1-0.1,0.3,0,0.4-0.1c0.2-0.1,0.3-0.3,0.4-0.5c0-0.1,0-0.1,0-0.2
					c0-0.1,0.1-0.2,0.1-0.3c0-0.1-0.1-0.1-0.1-0.2c0-0.1,0-0.2,0-0.3c0-0.2,0-0.4-0.1-0.5c-0.4-0.7-1.2-0.9-2-0.8
					c-0.2,0-0.3,0.1-0.4,0.2c-0.2,0.1-0.1,0.2-0.3,0.2c-0.1,0-0.2,0.1-0.2,0.2C23.5-41.1,23.5-41.1,23.5-41C23.5-41,23.5-41,23.5-41
					"/>
				<path class="st2" d="M15.8-41c0,0.1,0,0.1,0,0.2c-0.1,0.1-0.1,0.1-0.2,0.1c-0.1,0.1-0.1,0.3-0.1,0.4c-0.2,0.1,0,0.2,0,0.3
					c0,0,0,0.1,0,0.2c0,0.1,0,0.3,0.1,0.4c0.1,0.2,0.3,0.4,0.4,0.5c0.2,0.1,0.4,0.6,0.6,0.6c0.2,0,0.4-0.1,0.5-0.1
					c0.2,0,0.4,0,0.6-0.1c0.2-0.1,0.1-0.3,0.3-0.5c0.1-0.1,0.3,0,0.4-0.1c0.2-0.1,0.3-0.3,0.4-0.5c0-0.1,0-0.1,0-0.2
					c0-0.1,0.1-0.2,0.1-0.3c0-0.1-0.1-0.1-0.1-0.2c0-0.1,0-0.2,0-0.3c0-0.2,0-0.4-0.1-0.5c-0.4-0.7-1.2-0.9-2-0.8
					c-0.2,0-0.3,0.1-0.4,0.2c-0.2,0.1-0.1,0.2-0.3,0.2c-0.1,0-0.2,0.1-0.2,0.2C15.8-41.1,15.8-41.1,15.8-41C15.8-41,15.8-41,15.8-41
					"/>
				<path class="st2" d="M8.2-41c0,0.1,0,0.1,0,0.2C8.1-40.8,8-40.8,8-40.7c-0.1,0.1-0.1,0.3-0.1,0.4c-0.2,0.1,0,0.2,0,0.3
					c0,0,0,0.1,0,0.2c0,0.1,0,0.3,0.1,0.4c0.1,0.2,0.3,0.4,0.4,0.5c0.2,0.1,0.4,0.6,0.6,0.6c0.2,0,0.4-0.1,0.5-0.1
					c0.2,0,0.4,0,0.6-0.1c0.2-0.1,0.1-0.3,0.3-0.5c0.1-0.1,0.3,0,0.4-0.1c0.2-0.1,0.3-0.3,0.4-0.5c0-0.1,0-0.1,0-0.2
					c0-0.1,0.1-0.2,0.1-0.3c0-0.1-0.1-0.1-0.1-0.2c0-0.1,0-0.2,0-0.3c0-0.2,0-0.4-0.1-0.5c-0.4-0.7-1.2-0.9-2-0.8
					c-0.2,0-0.3,0.1-0.4,0.2c-0.2,0.1-0.1,0.2-0.3,0.2c-0.1,0-0.2,0.1-0.2,0.2C8.2-41.1,8.2-41.1,8.2-41C8.1-41,8.1-41,8.2-41"/>
				<path class="st2" d="M0.5-41c0,0.1,0,0.1,0,0.2c-0.1,0.1-0.1,0.1-0.2,0.1c-0.1,0.1-0.1,0.3-0.1,0.4c-0.2,0.1,0,0.2,0,0.3
					c0,0,0,0.1,0,0.2c0,0.1,0,0.3,0.1,0.4c0.1,0.2,0.3,0.4,0.4,0.5c0.2,0.1,0.4,0.6,0.6,0.6c0.2,0,0.4-0.1,0.5-0.1
					c0.2,0,0.4,0,0.6-0.1c0.2-0.1,0.1-0.3,0.3-0.5C2.8-39,3-39,3.1-39c0.2-0.1,0.3-0.3,0.4-0.5c0-0.1,0-0.1,0-0.2
					c0-0.1,0.1-0.2,0.1-0.3c0-0.1-0.1-0.1-0.1-0.2c0-0.1,0-0.2,0-0.3c0-0.2,0-0.4-0.1-0.5c-0.4-0.7-1.2-0.9-2-0.8
					c-0.2,0-0.3,0.1-0.4,0.2c-0.2,0.1-0.1,0.2-0.3,0.2c-0.1,0-0.2,0.1-0.2,0.2C0.5-41.1,0.5-41.1,0.5-41C0.5-41,0.5-41,0.5-41"/>
			</g>
			<g>
				<path class="st2" d="M69.4-33.4c0,0.1,0,0.1,0,0.2c-0.1,0.1-0.1,0.1-0.2,0.1c-0.1,0.1-0.1,0.3-0.1,0.4c-0.2,0.1,0,0.2,0,0.3
					c0,0,0,0.1,0,0.2c0,0.1,0,0.3,0.1,0.4c0.1,0.2,0.3,0.4,0.4,0.5c0.2,0.1,0.4,0.6,0.6,0.6c0.2,0,0.4-0.1,0.5-0.1
					c0.2,0,0.4,0,0.6-0.1c0.2-0.1,0.1-0.3,0.3-0.5c0.1-0.1,0.3,0,0.4-0.1c0.2-0.1,0.3-0.3,0.4-0.5c0-0.1,0-0.1,0-0.2
					c0-0.1,0.1-0.2,0.1-0.3c0-0.1-0.1-0.1-0.1-0.2c0-0.1,0-0.2,0-0.3c0-0.2,0-0.4-0.1-0.5c-0.4-0.7-1.2-0.9-2-0.8
					c-0.2,0-0.3,0.1-0.4,0.2c-0.2,0.1-0.1,0.2-0.3,0.2c-0.1,0-0.2,0.1-0.2,0.2C69.4-33.4,69.4-33.5,69.4-33.4
					C69.4-33.4,69.4-33.4,69.4-33.4"/>
				<path class="st2" d="M61.8-33.4c0,0.1,0,0.1,0,0.2c-0.1,0.1-0.1,0.1-0.2,0.1c-0.1,0.1-0.1,0.3-0.1,0.4c-0.2,0.1,0,0.2,0,0.3
					c0,0,0,0.1,0,0.2c0,0.1,0,0.3,0.1,0.4c0.1,0.2,0.3,0.4,0.4,0.5c0.2,0.1,0.4,0.6,0.6,0.6c0.2,0,0.4-0.1,0.5-0.1
					c0.2,0,0.4,0,0.6-0.1c0.2-0.1,0.1-0.3,0.3-0.5c0.1-0.1,0.3,0,0.4-0.1c0.2-0.1,0.3-0.3,0.4-0.5c0-0.1,0-0.1,0-0.2
					c0-0.1,0.1-0.2,0.1-0.3c0-0.1-0.1-0.1-0.1-0.2c0-0.1,0-0.2,0-0.3c0-0.2,0-0.4-0.1-0.5c-0.4-0.7-1.2-0.9-2-0.8
					c-0.2,0-0.3,0.1-0.4,0.2c-0.2,0.1-0.1,0.2-0.3,0.2c-0.1,0-0.2,0.1-0.2,0.2C61.8-33.4,61.8-33.5,61.8-33.4
					C61.8-33.4,61.8-33.4,61.8-33.4"/>
				<path class="st2" d="M54.1-33.4c0,0.1,0,0.1,0,0.2c-0.1,0.1-0.1,0.1-0.2,0.1c-0.1,0.1-0.1,0.3-0.1,0.4c-0.2,0.1,0,0.2,0,0.3
					c0,0,0,0.1,0,0.2c0,0.1,0,0.3,0.1,0.4c0.1,0.2,0.3,0.4,0.4,0.5c0.2,0.1,0.4,0.6,0.6,0.6c0.2,0,0.4-0.1,0.5-0.1
					c0.2,0,0.4,0,0.6-0.1c0.2-0.1,0.1-0.3,0.3-0.5c0.1-0.1,0.3,0,0.4-0.1c0.2-0.1,0.3-0.3,0.4-0.5c0-0.1,0-0.1,0-0.2
					c0-0.1,0.1-0.2,0.1-0.3c0-0.1-0.1-0.1-0.1-0.2c0-0.1,0-0.2,0-0.3c0-0.2,0-0.4-0.1-0.5c-0.4-0.7-1.2-0.9-2-0.8
					c-0.2,0-0.3,0.1-0.4,0.2c-0.2,0.1-0.1,0.2-0.3,0.2c-0.1,0-0.2,0.1-0.2,0.2C54.1-33.4,54.1-33.5,54.1-33.4
					C54.1-33.4,54.1-33.4,54.1-33.4"/>
				<path class="st2" d="M46.5-33.4c0,0.1,0,0.1,0,0.2c-0.1,0.1-0.1,0.1-0.2,0.1c-0.1,0.1-0.1,0.3-0.1,0.4c-0.2,0.1,0,0.2,0,0.3
					c0,0,0,0.1,0,0.2c0,0.1,0,0.3,0.1,0.4c0.1,0.2,0.3,0.4,0.4,0.5c0.2,0.1,0.4,0.6,0.6,0.6c0.2,0,0.4-0.1,0.5-0.1
					c0.2,0,0.4,0,0.6-0.1c0.2-0.1,0.1-0.3,0.3-0.5c0.1-0.1,0.3,0,0.4-0.1c0.2-0.1,0.3-0.3,0.4-0.5c0-0.1,0-0.1,0-0.2
					c0-0.1,0.1-0.2,0.1-0.3c0-0.1-0.1-0.1-0.1-0.2c0-0.1,0-0.2,0-0.3c0-0.2,0-0.4-0.1-0.5c-0.4-0.7-1.2-0.9-2-0.8
					c-0.2,0-0.3,0.1-0.4,0.2c-0.2,0.1-0.1,0.2-0.3,0.2c-0.1,0-0.2,0.1-0.2,0.2C46.5-33.4,46.5-33.5,46.5-33.4
					C46.5-33.4,46.5-33.4,46.5-33.4"/>
				<path class="st2" d="M38.8-33.4c0,0.1,0,0.1,0,0.2c-0.1,0.1-0.1,0.1-0.2,0.1c-0.1,0.1-0.1,0.3-0.1,0.4c-0.2,0.1,0,0.2,0,0.3
					c0,0,0,0.1,0,0.2c0,0.1,0,0.3,0.1,0.4c0.1,0.2,0.3,0.4,0.4,0.5c0.2,0.1,0.4,0.6,0.6,0.6c0.2,0,0.4-0.1,0.5-0.1
					c0.2,0,0.4,0,0.6-0.1c0.2-0.1,0.1-0.3,0.3-0.5c0.1-0.1,0.3,0,0.4-0.1c0.2-0.1,0.3-0.3,0.4-0.5c0-0.1,0-0.1,0-0.2
					c0-0.1,0.1-0.2,0.1-0.3c0-0.1-0.1-0.1-0.1-0.2c0-0.1,0-0.2,0-0.3c0-0.2,0-0.4-0.1-0.5c-0.4-0.7-1.2-0.9-2-0.8
					c-0.2,0-0.3,0.1-0.4,0.2c-0.2,0.1-0.1,0.2-0.3,0.2c-0.1,0-0.2,0.1-0.2,0.2C38.8-33.4,38.8-33.5,38.8-33.4
					C38.8-33.4,38.8-33.4,38.8-33.4"/>
				<path class="st2" d="M31.1-33.4c0,0.1,0,0.1,0,0.2c-0.1,0.1-0.1,0.1-0.2,0.1c-0.1,0.1-0.1,0.3-0.1,0.4c-0.2,0.1,0,0.2,0,0.3
					c0,0,0,0.1,0,0.2c0,0.1,0,0.3,0.1,0.4c0.1,0.2,0.3,0.4,0.4,0.5c0.2,0.1,0.4,0.6,0.6,0.6c0.2,0,0.4-0.1,0.5-0.1
					c0.2,0,0.4,0,0.6-0.1c0.2-0.1,0.1-0.3,0.3-0.5c0.1-0.1,0.3,0,0.4-0.1c0.2-0.1,0.3-0.3,0.4-0.5c0-0.1,0-0.1,0-0.2
					c0-0.1,0.1-0.2,0.1-0.3c0-0.1-0.1-0.1-0.1-0.2c0-0.1,0-0.2,0-0.3c0-0.2,0-0.4-0.1-0.5c-0.4-0.7-1.2-0.9-2-0.8
					c-0.2,0-0.3,0.1-0.4,0.2c-0.2,0.1-0.1,0.2-0.3,0.2c-0.1,0-0.2,0.1-0.2,0.2C31.1-33.4,31.1-33.5,31.1-33.4
					C31.1-33.4,31.1-33.4,31.1-33.4"/>
				<path class="st2" d="M23.5-33.4c0,0.1,0,0.1,0,0.2c-0.1,0.1-0.1,0.1-0.2,0.1c-0.1,0.1-0.1,0.3-0.1,0.4c-0.2,0.1,0,0.2,0,0.3
					c0,0,0,0.1,0,0.2c0,0.1,0,0.3,0.1,0.4c0.1,0.2,0.3,0.4,0.4,0.5c0.2,0.1,0.4,0.6,0.6,0.6c0.2,0,0.4-0.1,0.5-0.1
					c0.2,0,0.4,0,0.6-0.1c0.2-0.1,0.1-0.3,0.3-0.5c0.1-0.1,0.3,0,0.4-0.1c0.2-0.1,0.3-0.3,0.4-0.5c0-0.1,0-0.1,0-0.2
					c0-0.1,0.1-0.2,0.1-0.3c0-0.1-0.1-0.1-0.1-0.2c0-0.1,0-0.2,0-0.3c0-0.2,0-0.4-0.1-0.5c-0.4-0.7-1.2-0.9-2-0.8
					c-0.2,0-0.3,0.1-0.4,0.2c-0.2,0.1-0.1,0.2-0.3,0.2c-0.1,0-0.2,0.1-0.2,0.2C23.5-33.4,23.5-33.5,23.5-33.4
					C23.5-33.4,23.5-33.4,23.5-33.4"/>
				<path class="st2" d="M15.8-33.4c0,0.1,0,0.1,0,0.2c-0.1,0.1-0.1,0.1-0.2,0.1c-0.1,0.1-0.1,0.3-0.1,0.4c-0.2,0.1,0,0.2,0,0.3
					c0,0,0,0.1,0,0.2c0,0.1,0,0.3,0.1,0.4c0.1,0.2,0.3,0.4,0.4,0.5c0.2,0.1,0.4,0.6,0.6,0.6c0.2,0,0.4-0.1,0.5-0.1
					c0.2,0,0.4,0,0.6-0.1c0.2-0.1,0.1-0.3,0.3-0.5c0.1-0.1,0.3,0,0.4-0.1c0.2-0.1,0.3-0.3,0.4-0.5c0-0.1,0-0.1,0-0.2
					c0-0.1,0.1-0.2,0.1-0.3c0-0.1-0.1-0.1-0.1-0.2c0-0.1,0-0.2,0-0.3c0-0.2,0-0.4-0.1-0.5c-0.4-0.7-1.2-0.9-2-0.8
					c-0.2,0-0.3,0.1-0.4,0.2c-0.2,0.1-0.1,0.2-0.3,0.2c-0.1,0-0.2,0.1-0.2,0.2C15.8-33.4,15.8-33.5,15.8-33.4
					C15.8-33.4,15.8-33.4,15.8-33.4"/>
				<path class="st2" d="M8.2-33.4c0,0.1,0,0.1,0,0.2C8.1-33.1,8-33.1,8-33.1c-0.1,0.1-0.1,0.3-0.1,0.4c-0.2,0.1,0,0.2,0,0.3
					c0,0,0,0.1,0,0.2c0,0.1,0,0.3,0.1,0.4c0.1,0.2,0.3,0.4,0.4,0.5c0.2,0.1,0.4,0.6,0.6,0.6c0.2,0,0.4-0.1,0.5-0.1
					c0.2,0,0.4,0,0.6-0.1c0.2-0.1,0.1-0.3,0.3-0.5c0.1-0.1,0.3,0,0.4-0.1c0.2-0.1,0.3-0.3,0.4-0.5c0-0.1,0-0.1,0-0.2
					c0-0.1,0.1-0.2,0.1-0.3c0-0.1-0.1-0.1-0.1-0.2c0-0.1,0-0.2,0-0.3c0-0.2,0-0.4-0.1-0.5c-0.4-0.7-1.2-0.9-2-0.8
					c-0.2,0-0.3,0.1-0.4,0.2c-0.2,0.1-0.1,0.2-0.3,0.2c-0.1,0-0.2,0.1-0.2,0.2C8.2-33.4,8.2-33.5,8.2-33.4
					C8.1-33.4,8.1-33.4,8.2-33.4"/>
				<path class="st2" d="M0.5-33.4c0,0.1,0,0.1,0,0.2c-0.1,0.1-0.1,0.1-0.2,0.1c-0.1,0.1-0.1,0.3-0.1,0.4c-0.2,0.1,0,0.2,0,0.3
					c0,0,0,0.1,0,0.2c0,0.1,0,0.3,0.1,0.4c0.1,0.2,0.3,0.4,0.4,0.5c0.2,0.1,0.4,0.6,0.6,0.6c0.2,0,0.4-0.1,0.5-0.1
					c0.2,0,0.4,0,0.6-0.1c0.2-0.1,0.1-0.3,0.3-0.5c0.1-0.1,0.3,0,0.4-0.1c0.2-0.1,0.3-0.3,0.4-0.5c0-0.1,0-0.1,0-0.2
					c0-0.1,0.1-0.2,0.1-0.3c0-0.1-0.1-0.1-0.1-0.2c0-0.1,0-0.2,0-0.3c0-0.2,0-0.4-0.1-0.5c-0.4-0.7-1.2-0.9-2-0.8
					c-0.2,0-0.3,0.1-0.4,0.2c-0.2,0.1-0.1,0.2-0.3,0.2c-0.1,0-0.2,0.1-0.2,0.2C0.5-33.4,0.5-33.5,0.5-33.4
					C0.5-33.4,0.5-33.4,0.5-33.4"/>
			</g>
			<g>
				<path class="st2" d="M69.4-25.7c0,0.1,0,0.1,0,0.2c-0.1,0.1-0.1,0.1-0.2,0.1c-0.1,0.1-0.1,0.3-0.1,0.4c-0.2,0.1,0,0.2,0,0.3
					c0,0,0,0.1,0,0.2c0,0.1,0,0.3,0.1,0.4c0.1,0.2,0.3,0.4,0.4,0.5c0.2,0.1,0.4,0.6,0.6,0.6c0.2,0,0.4-0.1,0.5-0.1
					c0.2,0,0.4,0,0.6-0.1c0.2-0.1,0.1-0.3,0.3-0.5c0.1-0.1,0.3,0,0.4-0.1c0.2-0.1,0.3-0.3,0.4-0.5c0-0.1,0-0.1,0-0.2
					c0-0.1,0.1-0.2,0.1-0.3c0-0.1-0.1-0.1-0.1-0.2c0-0.1,0-0.2,0-0.3c0-0.2,0-0.4-0.1-0.5c-0.4-0.7-1.2-0.9-2-0.8
					c-0.2,0-0.3,0.1-0.4,0.2c-0.2,0.1-0.1,0.2-0.3,0.2c-0.1,0-0.2,0.1-0.2,0.2C69.4-25.8,69.4-25.8,69.4-25.7
					C69.4-25.7,69.4-25.7,69.4-25.7"/>
				<path class="st2" d="M61.8-25.7c0,0.1,0,0.1,0,0.2c-0.1,0.1-0.1,0.1-0.2,0.1c-0.1,0.1-0.1,0.3-0.1,0.4c-0.2,0.1,0,0.2,0,0.3
					c0,0,0,0.1,0,0.2c0,0.1,0,0.3,0.1,0.4c0.1,0.2,0.3,0.4,0.4,0.5c0.2,0.1,0.4,0.6,0.6,0.6c0.2,0,0.4-0.1,0.5-0.1
					c0.2,0,0.4,0,0.6-0.1c0.2-0.1,0.1-0.3,0.3-0.5c0.1-0.1,0.3,0,0.4-0.1c0.2-0.1,0.3-0.3,0.4-0.5c0-0.1,0-0.1,0-0.2
					c0-0.1,0.1-0.2,0.1-0.3c0-0.1-0.1-0.1-0.1-0.2c0-0.1,0-0.2,0-0.3c0-0.2,0-0.4-0.1-0.5c-0.4-0.7-1.2-0.9-2-0.8
					c-0.2,0-0.3,0.1-0.4,0.2c-0.2,0.1-0.1,0.2-0.3,0.2c-0.1,0-0.2,0.1-0.2,0.2C61.8-25.8,61.8-25.8,61.8-25.7
					C61.8-25.7,61.8-25.7,61.8-25.7"/>
				<path class="st2" d="M54.1-25.7c0,0.1,0,0.1,0,0.2c-0.1,0.1-0.1,0.1-0.2,0.1c-0.1,0.1-0.1,0.3-0.1,0.4c-0.2,0.1,0,0.2,0,0.3
					c0,0,0,0.1,0,0.2c0,0.1,0,0.3,0.1,0.4c0.1,0.2,0.3,0.4,0.4,0.5c0.2,0.1,0.4,0.6,0.6,0.6c0.2,0,0.4-0.1,0.5-0.1
					c0.2,0,0.4,0,0.6-0.1c0.2-0.1,0.1-0.3,0.3-0.5c0.1-0.1,0.3,0,0.4-0.1c0.2-0.1,0.3-0.3,0.4-0.5c0-0.1,0-0.1,0-0.2
					c0-0.1,0.1-0.2,0.1-0.3c0-0.1-0.1-0.1-0.1-0.2c0-0.1,0-0.2,0-0.3c0-0.2,0-0.4-0.1-0.5c-0.4-0.7-1.2-0.9-2-0.8
					c-0.2,0-0.3,0.1-0.4,0.2c-0.2,0.1-0.1,0.2-0.3,0.2c-0.1,0-0.2,0.1-0.2,0.2C54.1-25.8,54.1-25.8,54.1-25.7
					C54.1-25.7,54.1-25.7,54.1-25.7"/>
				<path class="st2" d="M46.5-25.7c0,0.1,0,0.1,0,0.2c-0.1,0.1-0.1,0.1-0.2,0.1c-0.1,0.1-0.1,0.3-0.1,0.4c-0.2,0.1,0,0.2,0,0.3
					c0,0,0,0.1,0,0.2c0,0.1,0,0.3,0.1,0.4c0.1,0.2,0.3,0.4,0.4,0.5c0.2,0.1,0.4,0.6,0.6,0.6c0.2,0,0.4-0.1,0.5-0.1
					c0.2,0,0.4,0,0.6-0.1c0.2-0.1,0.1-0.3,0.3-0.5c0.1-0.1,0.3,0,0.4-0.1c0.2-0.1,0.3-0.3,0.4-0.5c0-0.1,0-0.1,0-0.2
					c0-0.1,0.1-0.2,0.1-0.3c0-0.1-0.1-0.1-0.1-0.2c0-0.1,0-0.2,0-0.3c0-0.2,0-0.4-0.1-0.5c-0.4-0.7-1.2-0.9-2-0.8
					c-0.2,0-0.3,0.1-0.4,0.2c-0.2,0.1-0.1,0.2-0.3,0.2c-0.1,0-0.2,0.1-0.2,0.2C46.5-25.8,46.5-25.8,46.5-25.7
					C46.5-25.7,46.5-25.7,46.5-25.7"/>
				<path class="st2" d="M38.8-25.7c0,0.1,0,0.1,0,0.2c-0.1,0.1-0.1,0.1-0.2,0.1c-0.1,0.1-0.1,0.3-0.1,0.4c-0.2,0.1,0,0.2,0,0.3
					c0,0,0,0.1,0,0.2c0,0.1,0,0.3,0.1,0.4c0.1,0.2,0.3,0.4,0.4,0.5c0.2,0.1,0.4,0.6,0.6,0.6c0.2,0,0.4-0.1,0.5-0.1
					c0.2,0,0.4,0,0.6-0.1c0.2-0.1,0.1-0.3,0.3-0.5c0.1-0.1,0.3,0,0.4-0.1c0.2-0.1,0.3-0.3,0.4-0.5c0-0.1,0-0.1,0-0.2
					c0-0.1,0.1-0.2,0.1-0.3c0-0.1-0.1-0.1-0.1-0.2c0-0.1,0-0.2,0-0.3c0-0.2,0-0.4-0.1-0.5c-0.4-0.7-1.2-0.9-2-0.8
					c-0.2,0-0.3,0.1-0.4,0.2c-0.2,0.1-0.1,0.2-0.3,0.2c-0.1,0-0.2,0.1-0.2,0.2C38.8-25.8,38.8-25.8,38.8-25.7
					C38.8-25.7,38.8-25.7,38.8-25.7"/>
				<path class="st2" d="M31.1-25.7c0,0.1,0,0.1,0,0.2c-0.1,0.1-0.1,0.1-0.2,0.1c-0.1,0.1-0.1,0.3-0.1,0.4c-0.2,0.1,0,0.2,0,0.3
					c0,0,0,0.1,0,0.2c0,0.1,0,0.3,0.1,0.4c0.1,0.2,0.3,0.4,0.4,0.5c0.2,0.1,0.4,0.6,0.6,0.6c0.2,0,0.4-0.1,0.5-0.1
					c0.2,0,0.4,0,0.6-0.1c0.2-0.1,0.1-0.3,0.3-0.5c0.1-0.1,0.3,0,0.4-0.1c0.2-0.1,0.3-0.3,0.4-0.5c0-0.1,0-0.1,0-0.2
					c0-0.1,0.1-0.2,0.1-0.3c0-0.1-0.1-0.1-0.1-0.2c0-0.1,0-0.2,0-0.3c0-0.2,0-0.4-0.1-0.5c-0.4-0.7-1.2-0.9-2-0.8
					c-0.2,0-0.3,0.1-0.4,0.2c-0.2,0.1-0.1,0.2-0.3,0.2c-0.1,0-0.2,0.1-0.2,0.2C31.1-25.8,31.1-25.8,31.1-25.7
					C31.1-25.7,31.1-25.7,31.1-25.7"/>
				<path class="st2" d="M23.5-25.7c0,0.1,0,0.1,0,0.2c-0.1,0.1-0.1,0.1-0.2,0.1c-0.1,0.1-0.1,0.3-0.1,0.4c-0.2,0.1,0,0.2,0,0.3
					c0,0,0,0.1,0,0.2c0,0.1,0,0.3,0.1,0.4c0.1,0.2,0.3,0.4,0.4,0.5c0.2,0.1,0.4,0.6,0.6,0.6c0.2,0,0.4-0.1,0.5-0.1
					c0.2,0,0.4,0,0.6-0.1c0.2-0.1,0.1-0.3,0.3-0.5c0.1-0.1,0.3,0,0.4-0.1c0.2-0.1,0.3-0.3,0.4-0.5c0-0.1,0-0.1,0-0.2
					c0-0.1,0.1-0.2,0.1-0.3c0-0.1-0.1-0.1-0.1-0.2c0-0.1,0-0.2,0-0.3c0-0.2,0-0.4-0.1-0.5c-0.4-0.7-1.2-0.9-2-0.8
					c-0.2,0-0.3,0.1-0.4,0.2c-0.2,0.1-0.1,0.2-0.3,0.2c-0.1,0-0.2,0.1-0.2,0.2C23.5-25.8,23.5-25.8,23.5-25.7
					C23.5-25.7,23.5-25.7,23.5-25.7"/>
				<path class="st2" d="M15.8-25.7c0,0.1,0,0.1,0,0.2c-0.1,0.1-0.1,0.1-0.2,0.1c-0.1,0.1-0.1,0.3-0.1,0.4c-0.2,0.1,0,0.2,0,0.3
					c0,0,0,0.1,0,0.2c0,0.1,0,0.3,0.1,0.4c0.1,0.2,0.3,0.4,0.4,0.5c0.2,0.1,0.4,0.6,0.6,0.6c0.2,0,0.4-0.1,0.5-0.1
					c0.2,0,0.4,0,0.6-0.1c0.2-0.1,0.1-0.3,0.3-0.5c0.1-0.1,0.3,0,0.4-0.1c0.2-0.1,0.3-0.3,0.4-0.5c0-0.1,0-0.1,0-0.2
					c0-0.1,0.1-0.2,0.1-0.3c0-0.1-0.1-0.1-0.1-0.2c0-0.1,0-0.2,0-0.3c0-0.2,0-0.4-0.1-0.5c-0.4-0.7-1.2-0.9-2-0.8
					c-0.2,0-0.3,0.1-0.4,0.2c-0.2,0.1-0.1,0.2-0.3,0.2c-0.1,0-0.2,0.1-0.2,0.2C15.8-25.8,15.8-25.8,15.8-25.7
					C15.8-25.7,15.8-25.7,15.8-25.7"/>
				<path class="st2" d="M8.2-25.7c0,0.1,0,0.1,0,0.2C8.1-25.4,8-25.5,8-25.4c-0.1,0.1-0.1,0.3-0.1,0.4c-0.2,0.1,0,0.2,0,0.3
					c0,0,0,0.1,0,0.2c0,0.1,0,0.3,0.1,0.4C8-24,8.2-23.8,8.3-23.6c0.2,0.1,0.4,0.6,0.6,0.6c0.2,0,0.4-0.1,0.5-0.1
					c0.2,0,0.4,0,0.6-0.1c0.2-0.1,0.1-0.3,0.3-0.5c0.1-0.1,0.3,0,0.4-0.1c0.2-0.1,0.3-0.3,0.4-0.5c0-0.1,0-0.1,0-0.2
					c0-0.1,0.1-0.2,0.1-0.3c0-0.1-0.1-0.1-0.1-0.2c0-0.1,0-0.2,0-0.3c0-0.2,0-0.4-0.1-0.5c-0.4-0.7-1.2-0.9-2-0.8
					c-0.2,0-0.3,0.1-0.4,0.2c-0.2,0.1-0.1,0.2-0.3,0.2c-0.1,0-0.2,0.1-0.2,0.2C8.2-25.8,8.2-25.8,8.2-25.7
					C8.1-25.7,8.1-25.7,8.2-25.7"/>
				<path class="st2" d="M0.5-25.7c0,0.1,0,0.1,0,0.2c-0.1,0.1-0.1,0.1-0.2,0.1c-0.1,0.1-0.1,0.3-0.1,0.4c-0.2,0.1,0,0.2,0,0.3
					c0,0,0,0.1,0,0.2c0,0.1,0,0.3,0.1,0.4c0.1,0.2,0.3,0.4,0.4,0.5C0.9-23.5,1-23.1,1.3-23c0.2,0,0.4-0.1,0.5-0.1
					c0.2,0,0.4,0,0.6-0.1c0.2-0.1,0.1-0.3,0.3-0.5c0.1-0.1,0.3,0,0.4-0.1c0.2-0.1,0.3-0.3,0.4-0.5c0-0.1,0-0.1,0-0.2
					c0-0.1,0.1-0.2,0.1-0.3c0-0.1-0.1-0.1-0.1-0.2c0-0.1,0-0.2,0-0.3c0-0.2,0-0.4-0.1-0.5c-0.4-0.7-1.2-0.9-2-0.8
					c-0.2,0-0.3,0.1-0.4,0.2c-0.2,0.1-0.1,0.2-0.3,0.2c-0.1,0-0.2,0.1-0.2,0.2C0.5-25.8,0.5-25.8,0.5-25.7
					C0.5-25.7,0.5-25.7,0.5-25.7"/>
			</g>
			<g>
				<path class="st2" d="M69.4-18.1c0,0.1,0,0.1,0,0.2c-0.1,0.1-0.1,0.1-0.2,0.1c-0.1,0.1-0.1,0.3-0.1,0.4c-0.2,0.1,0,0.2,0,0.3
					c0,0,0,0.1,0,0.2c0,0.1,0,0.3,0.1,0.4c0.1,0.2,0.3,0.4,0.4,0.5c0.2,0.1,0.4,0.6,0.6,0.6c0.2,0,0.4-0.1,0.5-0.1
					c0.2,0,0.4,0,0.6-0.1c0.2-0.1,0.1-0.3,0.3-0.5c0.1-0.1,0.3,0,0.4-0.1c0.2-0.1,0.3-0.3,0.4-0.5c0-0.1,0-0.1,0-0.2
					c0-0.1,0.1-0.2,0.1-0.3c0-0.1-0.1-0.1-0.1-0.2c0-0.1,0-0.2,0-0.3c0-0.2,0-0.4-0.1-0.5c-0.4-0.7-1.2-0.9-2-0.8
					c-0.2,0-0.3,0.1-0.4,0.2c-0.2,0.1-0.1,0.2-0.3,0.2c-0.1,0-0.2,0.1-0.2,0.2C69.4-18.1,69.4-18.2,69.4-18.1
					C69.4-18,69.4-18.1,69.4-18.1"/>
				<path class="st2" d="M61.8-18.1c0,0.1,0,0.1,0,0.2c-0.1,0.1-0.1,0.1-0.2,0.1c-0.1,0.1-0.1,0.3-0.1,0.4c-0.2,0.1,0,0.2,0,0.3
					c0,0,0,0.1,0,0.2c0,0.1,0,0.3,0.1,0.4c0.1,0.2,0.3,0.4,0.4,0.5c0.2,0.1,0.4,0.6,0.6,0.6c0.2,0,0.4-0.1,0.5-0.1
					c0.2,0,0.4,0,0.6-0.1c0.2-0.1,0.1-0.3,0.3-0.5c0.1-0.1,0.3,0,0.4-0.1c0.2-0.1,0.3-0.3,0.4-0.5c0-0.1,0-0.1,0-0.2
					c0-0.1,0.1-0.2,0.1-0.3c0-0.1-0.1-0.1-0.1-0.2c0-0.1,0-0.2,0-0.3c0-0.2,0-0.4-0.1-0.5c-0.4-0.7-1.2-0.9-2-0.8
					c-0.2,0-0.3,0.1-0.4,0.2c-0.2,0.1-0.1,0.2-0.3,0.2c-0.1,0-0.2,0.1-0.2,0.2C61.8-18.1,61.8-18.2,61.8-18.1
					C61.8-18,61.8-18.1,61.8-18.1"/>
				<path class="st2" d="M54.1-18.1c0,0.1,0,0.1,0,0.2c-0.1,0.1-0.1,0.1-0.2,0.1c-0.1,0.1-0.1,0.3-0.1,0.4c-0.2,0.1,0,0.2,0,0.3
					c0,0,0,0.1,0,0.2c0,0.1,0,0.3,0.1,0.4c0.1,0.2,0.3,0.4,0.4,0.5c0.2,0.1,0.4,0.6,0.6,0.6c0.2,0,0.4-0.1,0.5-0.1
					c0.2,0,0.4,0,0.6-0.1c0.2-0.1,0.1-0.3,0.3-0.5c0.1-0.1,0.3,0,0.4-0.1c0.2-0.1,0.3-0.3,0.4-0.5c0-0.1,0-0.1,0-0.2
					c0-0.1,0.1-0.2,0.1-0.3c0-0.1-0.1-0.1-0.1-0.2c0-0.1,0-0.2,0-0.3c0-0.2,0-0.4-0.1-0.5c-0.4-0.7-1.2-0.9-2-0.8
					c-0.2,0-0.3,0.1-0.4,0.2c-0.2,0.1-0.1,0.2-0.3,0.2c-0.1,0-0.2,0.1-0.2,0.2C54.1-18.1,54.1-18.2,54.1-18.1
					C54.1-18,54.1-18.1,54.1-18.1"/>
				<path class="st2" d="M46.5-18.1c0,0.1,0,0.1,0,0.2c-0.1,0.1-0.1,0.1-0.2,0.1c-0.1,0.1-0.1,0.3-0.1,0.4c-0.2,0.1,0,0.2,0,0.3
					c0,0,0,0.1,0,0.2c0,0.1,0,0.3,0.1,0.4c0.1,0.2,0.3,0.4,0.4,0.5c0.2,0.1,0.4,0.6,0.6,0.6c0.2,0,0.4-0.1,0.5-0.1
					c0.2,0,0.4,0,0.6-0.1c0.2-0.1,0.1-0.3,0.3-0.5c0.1-0.1,0.3,0,0.4-0.1c0.2-0.1,0.3-0.3,0.4-0.5c0-0.1,0-0.1,0-0.2
					c0-0.1,0.1-0.2,0.1-0.3c0-0.1-0.1-0.1-0.1-0.2c0-0.1,0-0.2,0-0.3c0-0.2,0-0.4-0.1-0.5c-0.4-0.7-1.2-0.9-2-0.8
					c-0.2,0-0.3,0.1-0.4,0.2c-0.2,0.1-0.1,0.2-0.3,0.2c-0.1,0-0.2,0.1-0.2,0.2C46.5-18.1,46.5-18.2,46.5-18.1
					C46.5-18,46.5-18.1,46.5-18.1"/>
				<path class="st2" d="M38.8-18.1c0,0.1,0,0.1,0,0.2c-0.1,0.1-0.1,0.1-0.2,0.1c-0.1,0.1-0.1,0.3-0.1,0.4c-0.2,0.1,0,0.2,0,0.3
					c0,0,0,0.1,0,0.2c0,0.1,0,0.3,0.1,0.4c0.1,0.2,0.3,0.4,0.4,0.5c0.2,0.1,0.4,0.6,0.6,0.6c0.2,0,0.4-0.1,0.5-0.1
					c0.2,0,0.4,0,0.6-0.1c0.2-0.1,0.1-0.3,0.3-0.5c0.1-0.1,0.3,0,0.4-0.1c0.2-0.1,0.3-0.3,0.4-0.5c0-0.1,0-0.1,0-0.2
					c0-0.1,0.1-0.2,0.1-0.3c0-0.1-0.1-0.1-0.1-0.2c0-0.1,0-0.2,0-0.3c0-0.2,0-0.4-0.1-0.5c-0.4-0.7-1.2-0.9-2-0.8
					c-0.2,0-0.3,0.1-0.4,0.2c-0.2,0.1-0.1,0.2-0.3,0.2c-0.1,0-0.2,0.1-0.2,0.2C38.8-18.1,38.8-18.2,38.8-18.1
					C38.8-18,38.8-18.1,38.8-18.1"/>
				<path class="st2" d="M31.1-18.1c0,0.1,0,0.1,0,0.2c-0.1,0.1-0.1,0.1-0.2,0.1c-0.1,0.1-0.1,0.3-0.1,0.4c-0.2,0.1,0,0.2,0,0.3
					c0,0,0,0.1,0,0.2c0,0.1,0,0.3,0.1,0.4c0.1,0.2,0.3,0.4,0.4,0.5c0.2,0.1,0.4,0.6,0.6,0.6c0.2,0,0.4-0.1,0.5-0.1
					c0.2,0,0.4,0,0.6-0.1c0.2-0.1,0.1-0.3,0.3-0.5c0.1-0.1,0.3,0,0.4-0.1c0.2-0.1,0.3-0.3,0.4-0.5c0-0.1,0-0.1,0-0.2
					c0-0.1,0.1-0.2,0.1-0.3c0-0.1-0.1-0.1-0.1-0.2c0-0.1,0-0.2,0-0.3c0-0.2,0-0.4-0.1-0.5c-0.4-0.7-1.2-0.9-2-0.8
					c-0.2,0-0.3,0.1-0.4,0.2c-0.2,0.1-0.1,0.2-0.3,0.2c-0.1,0-0.2,0.1-0.2,0.2C31.1-18.1,31.1-18.2,31.1-18.1
					C31.1-18,31.1-18.1,31.1-18.1"/>
				<path class="st2" d="M23.5-18.1c0,0.1,0,0.1,0,0.2c-0.1,0.1-0.1,0.1-0.2,0.1c-0.1,0.1-0.1,0.3-0.1,0.4c-0.2,0.1,0,0.2,0,0.3
					c0,0,0,0.1,0,0.2c0,0.1,0,0.3,0.1,0.4c0.1,0.2,0.3,0.4,0.4,0.5c0.2,0.1,0.4,0.6,0.6,0.6c0.2,0,0.4-0.1,0.5-0.1
					c0.2,0,0.4,0,0.6-0.1c0.2-0.1,0.1-0.3,0.3-0.5c0.1-0.1,0.3,0,0.4-0.1c0.2-0.1,0.3-0.3,0.4-0.5c0-0.1,0-0.1,0-0.2
					c0-0.1,0.1-0.2,0.1-0.3c0-0.1-0.1-0.1-0.1-0.2c0-0.1,0-0.2,0-0.3c0-0.2,0-0.4-0.1-0.5c-0.4-0.7-1.2-0.9-2-0.8
					c-0.2,0-0.3,0.1-0.4,0.2c-0.2,0.1-0.1,0.2-0.3,0.2c-0.1,0-0.2,0.1-0.2,0.2C23.5-18.1,23.5-18.2,23.5-18.1
					C23.5-18,23.5-18.1,23.5-18.1"/>
				<path class="st2" d="M15.8-18.1c0,0.1,0,0.1,0,0.2c-0.1,0.1-0.1,0.1-0.2,0.1c-0.1,0.1-0.1,0.3-0.1,0.4c-0.2,0.1,0,0.2,0,0.3
					c0,0,0,0.1,0,0.2c0,0.1,0,0.3,0.1,0.4c0.1,0.2,0.3,0.4,0.4,0.5c0.2,0.1,0.4,0.6,0.6,0.6c0.2,0,0.4-0.1,0.5-0.1
					c0.2,0,0.4,0,0.6-0.1c0.2-0.1,0.1-0.3,0.3-0.5c0.1-0.1,0.3,0,0.4-0.1c0.2-0.1,0.3-0.3,0.4-0.5c0-0.1,0-0.1,0-0.2
					c0-0.1,0.1-0.2,0.1-0.3c0-0.1-0.1-0.1-0.1-0.2c0-0.1,0-0.2,0-0.3c0-0.2,0-0.4-0.1-0.5c-0.4-0.7-1.2-0.9-2-0.8
					c-0.2,0-0.3,0.1-0.4,0.2c-0.2,0.1-0.1,0.2-0.3,0.2c-0.1,0-0.2,0.1-0.2,0.2C15.8-18.1,15.8-18.2,15.8-18.1
					C15.8-18,15.8-18.1,15.8-18.1"/>
				<path class="st2" d="M8.2-18.1c0,0.1,0,0.1,0,0.2C8.1-17.8,8-17.8,8-17.8c-0.1,0.1-0.1,0.3-0.1,0.4c-0.2,0.1,0,0.2,0,0.3
					c0,0,0,0.1,0,0.2c0,0.1,0,0.3,0.1,0.4C8-16.3,8.2-16.1,8.3-16c0.2,0.1,0.4,0.6,0.6,0.6c0.2,0,0.4-0.1,0.5-0.1
					c0.2,0,0.4,0,0.6-0.1c0.2-0.1,0.1-0.3,0.3-0.5c0.1-0.1,0.3,0,0.4-0.1c0.2-0.1,0.3-0.3,0.4-0.5c0-0.1,0-0.1,0-0.2
					c0-0.1,0.1-0.2,0.1-0.3c0-0.1-0.1-0.1-0.1-0.2c0-0.1,0-0.2,0-0.3c0-0.2,0-0.4-0.1-0.5c-0.4-0.7-1.2-0.9-2-0.8
					c-0.2,0-0.3,0.1-0.4,0.2c-0.2,0.1-0.1,0.2-0.3,0.2c-0.1,0-0.2,0.1-0.2,0.2C8.2-18.1,8.2-18.2,8.2-18.1C8.1-18,8.1-18.1,8.2-18.1
					"/>
				<path class="st2" d="M0.5-18.1c0,0.1,0,0.1,0,0.2c-0.1,0.1-0.1,0.1-0.2,0.1c-0.1,0.1-0.1,0.3-0.1,0.4c-0.2,0.1,0,0.2,0,0.3
					c0,0,0,0.1,0,0.2c0,0.1,0,0.3,0.1,0.4c0.1,0.2,0.3,0.4,0.4,0.5c0.2,0.1,0.4,0.6,0.6,0.6c0.2,0,0.4-0.1,0.5-0.1
					c0.2,0,0.4,0,0.6-0.1c0.2-0.1,0.1-0.3,0.3-0.5C2.8-16.1,3-16,3.1-16c0.2-0.1,0.3-0.3,0.4-0.5c0-0.1,0-0.1,0-0.2
					c0-0.1,0.1-0.2,0.1-0.3c0-0.1-0.1-0.1-0.1-0.2c0-0.1,0-0.2,0-0.3c0-0.2,0-0.4-0.1-0.5c-0.4-0.7-1.2-0.9-2-0.8
					c-0.2,0-0.3,0.1-0.4,0.2c-0.2,0.1-0.1,0.2-0.3,0.2c-0.1,0-0.2,0.1-0.2,0.2C0.5-18.1,0.5-18.2,0.5-18.1C0.5-18,0.5-18.1,0.5-18.1
					"/>
			</g>
			<g>
				<path class="st2" d="M69.4-10.4c0,0.1,0,0.1,0,0.2c-0.1,0.1-0.1,0.1-0.2,0.1c-0.1,0.1-0.1,0.3-0.1,0.4c-0.2,0.1,0,0.2,0,0.3
					c0,0,0,0.1,0,0.2c0,0.1,0,0.3,0.1,0.4c0.1,0.2,0.3,0.4,0.4,0.5c0.2,0.1,0.4,0.6,0.6,0.6c0.2,0,0.4-0.1,0.5-0.1
					c0.2,0,0.4,0,0.6-0.1c0.2-0.1,0.1-0.3,0.3-0.5c0.1-0.1,0.3,0,0.4-0.1c0.2-0.1,0.3-0.3,0.4-0.5c0-0.1,0-0.1,0-0.2
					c0-0.1,0.1-0.2,0.1-0.3c0-0.1-0.1-0.1-0.1-0.2c0-0.1,0-0.2,0-0.3c0-0.2,0-0.4-0.1-0.5c-0.4-0.7-1.2-0.9-2-0.8
					c-0.2,0-0.3,0.1-0.4,0.2c-0.2,0.1-0.1,0.2-0.3,0.2c-0.1,0-0.2,0.1-0.2,0.2C69.4-10.5,69.4-10.5,69.4-10.4
					C69.4-10.4,69.4-10.4,69.4-10.4"/>
				<path class="st2" d="M61.8-10.4c0,0.1,0,0.1,0,0.2c-0.1,0.1-0.1,0.1-0.2,0.1c-0.1,0.1-0.1,0.3-0.1,0.4c-0.2,0.1,0,0.2,0,0.3
					c0,0,0,0.1,0,0.2c0,0.1,0,0.3,0.1,0.4c0.1,0.2,0.3,0.4,0.4,0.5c0.2,0.1,0.4,0.6,0.6,0.6c0.2,0,0.4-0.1,0.5-0.1
					c0.2,0,0.4,0,0.6-0.1C63.9-8,63.8-8.2,64-8.3c0.1-0.1,0.3,0,0.4-0.1c0.2-0.1,0.3-0.3,0.4-0.5c0-0.1,0-0.1,0-0.2
					c0-0.1,0.1-0.2,0.1-0.3c0-0.1-0.1-0.1-0.1-0.2c0-0.1,0-0.2,0-0.3c0-0.2,0-0.4-0.1-0.5c-0.4-0.7-1.2-0.9-2-0.8
					c-0.2,0-0.3,0.1-0.4,0.2c-0.2,0.1-0.1,0.2-0.3,0.2c-0.1,0-0.2,0.1-0.2,0.2C61.8-10.5,61.8-10.5,61.8-10.4
					C61.8-10.4,61.8-10.4,61.8-10.4"/>
				<path class="st2" d="M54.1-10.4c0,0.1,0,0.1,0,0.2c-0.1,0.1-0.1,0.1-0.2,0.1c-0.1,0.1-0.1,0.3-0.1,0.4c-0.2,0.1,0,0.2,0,0.3
					c0,0,0,0.1,0,0.2c0,0.1,0,0.3,0.1,0.4c0.1,0.2,0.3,0.4,0.4,0.5c0.2,0.1,0.4,0.6,0.6,0.6c0.2,0,0.4-0.1,0.5-0.1
					c0.2,0,0.4,0,0.6-0.1c0.2-0.1,0.1-0.3,0.3-0.5c0.1-0.1,0.3,0,0.4-0.1c0.2-0.1,0.3-0.3,0.4-0.5c0-0.1,0-0.1,0-0.2
					c0-0.1,0.1-0.2,0.1-0.3c0-0.1-0.1-0.1-0.1-0.2c0-0.1,0-0.2,0-0.3c0-0.2,0-0.4-0.1-0.5c-0.4-0.7-1.2-0.9-2-0.8
					c-0.2,0-0.3,0.1-0.4,0.2c-0.2,0.1-0.1,0.2-0.3,0.2c-0.1,0-0.2,0.1-0.2,0.2C54.1-10.5,54.1-10.5,54.1-10.4
					C54.1-10.4,54.1-10.4,54.1-10.4"/>
				<path class="st2" d="M46.5-10.4c0,0.1,0,0.1,0,0.2c-0.1,0.1-0.1,0.1-0.2,0.1c-0.1,0.1-0.1,0.3-0.1,0.4c-0.2,0.1,0,0.2,0,0.3
					c0,0,0,0.1,0,0.2c0,0.1,0,0.3,0.1,0.4c0.1,0.2,0.3,0.4,0.4,0.5c0.2,0.1,0.4,0.6,0.6,0.6c0.2,0,0.4-0.1,0.5-0.1
					c0.2,0,0.4,0,0.6-0.1c0.2-0.1,0.1-0.3,0.3-0.5c0.1-0.1,0.3,0,0.4-0.1c0.2-0.1,0.3-0.3,0.4-0.5c0-0.1,0-0.1,0-0.2
					c0-0.1,0.1-0.2,0.1-0.3c0-0.1-0.1-0.1-0.1-0.2c0-0.1,0-0.2,0-0.3c0-0.2,0-0.4-0.1-0.5c-0.4-0.7-1.2-0.9-2-0.8
					c-0.2,0-0.3,0.1-0.4,0.2c-0.2,0.1-0.1,0.2-0.3,0.2c-0.1,0-0.2,0.1-0.2,0.2C46.5-10.5,46.5-10.5,46.5-10.4
					C46.5-10.4,46.5-10.4,46.5-10.4"/>
				<path class="st2" d="M38.8-10.4c0,0.1,0,0.1,0,0.2c-0.1,0.1-0.1,0.1-0.2,0.1c-0.1,0.1-0.1,0.3-0.1,0.4c-0.2,0.1,0,0.2,0,0.3
					c0,0,0,0.1,0,0.2c0,0.1,0,0.3,0.1,0.4c0.1,0.2,0.3,0.4,0.4,0.5c0.2,0.1,0.4,0.6,0.6,0.6c0.2,0,0.4-0.1,0.5-0.1
					c0.2,0,0.4,0,0.6-0.1C40.9-8,40.8-8.2,41-8.3c0.1-0.1,0.3,0,0.4-0.1c0.2-0.1,0.3-0.3,0.4-0.5c0-0.1,0-0.1,0-0.2
					c0-0.1,0.1-0.2,0.1-0.3c0-0.1-0.1-0.1-0.1-0.2c0-0.1,0-0.2,0-0.3c0-0.2,0-0.4-0.1-0.5c-0.4-0.7-1.2-0.9-2-0.8
					c-0.2,0-0.3,0.1-0.4,0.2c-0.2,0.1-0.1,0.2-0.3,0.2c-0.1,0-0.2,0.1-0.2,0.2C38.8-10.5,38.8-10.5,38.8-10.4
					C38.8-10.4,38.8-10.4,38.8-10.4"/>
				<path class="st2" d="M31.1-10.4c0,0.1,0,0.1,0,0.2c-0.1,0.1-0.1,0.1-0.2,0.1c-0.1,0.1-0.1,0.3-0.1,0.4c-0.2,0.1,0,0.2,0,0.3
					c0,0,0,0.1,0,0.2c0,0.1,0,0.3,0.1,0.4c0.1,0.2,0.3,0.4,0.4,0.5c0.2,0.1,0.4,0.6,0.6,0.6c0.2,0,0.4-0.1,0.5-0.1
					c0.2,0,0.4,0,0.6-0.1c0.2-0.1,0.1-0.3,0.3-0.5c0.1-0.1,0.3,0,0.4-0.1c0.2-0.1,0.3-0.3,0.4-0.5c0-0.1,0-0.1,0-0.2
					c0-0.1,0.1-0.2,0.1-0.3c0-0.1-0.1-0.1-0.1-0.2c0-0.1,0-0.2,0-0.3c0-0.2,0-0.4-0.1-0.5c-0.4-0.7-1.2-0.9-2-0.8
					c-0.2,0-0.3,0.1-0.4,0.2c-0.2,0.1-0.1,0.2-0.3,0.2c-0.1,0-0.2,0.1-0.2,0.2C31.1-10.5,31.1-10.5,31.1-10.4
					C31.1-10.4,31.1-10.4,31.1-10.4"/>
				<path class="st2" d="M23.5-10.4c0,0.1,0,0.1,0,0.2c-0.1,0.1-0.1,0.1-0.2,0.1c-0.1,0.1-0.1,0.3-0.1,0.4c-0.2,0.1,0,0.2,0,0.3
					c0,0,0,0.1,0,0.2c0,0.1,0,0.3,0.1,0.4c0.1,0.2,0.3,0.4,0.4,0.5c0.2,0.1,0.4,0.6,0.6,0.6c0.2,0,0.4-0.1,0.5-0.1
					c0.2,0,0.4,0,0.6-0.1c0.2-0.1,0.1-0.3,0.3-0.5c0.1-0.1,0.3,0,0.4-0.1c0.2-0.1,0.3-0.3,0.4-0.5c0-0.1,0-0.1,0-0.2
					c0-0.1,0.1-0.2,0.1-0.3c0-0.1-0.1-0.1-0.1-0.2c0-0.1,0-0.2,0-0.3c0-0.2,0-0.4-0.1-0.5c-0.4-0.7-1.2-0.9-2-0.8
					c-0.2,0-0.3,0.1-0.4,0.2c-0.2,0.1-0.1,0.2-0.3,0.2c-0.1,0-0.2,0.1-0.2,0.2C23.5-10.5,23.5-10.5,23.5-10.4
					C23.5-10.4,23.5-10.4,23.5-10.4"/>
				<path class="st2" d="M15.8-10.4c0,0.1,0,0.1,0,0.2c-0.1,0.1-0.1,0.1-0.2,0.1c-0.1,0.1-0.1,0.3-0.1,0.4c-0.2,0.1,0,0.2,0,0.3
					c0,0,0,0.1,0,0.2c0,0.1,0,0.3,0.1,0.4c0.1,0.2,0.3,0.4,0.4,0.5c0.2,0.1,0.4,0.6,0.6,0.6c0.2,0,0.4-0.1,0.5-0.1
					c0.2,0,0.4,0,0.6-0.1C17.9-8,17.8-8.2,18-8.3c0.1-0.1,0.3,0,0.4-0.1c0.2-0.1,0.3-0.3,0.4-0.5c0-0.1,0-0.1,0-0.2
					c0-0.1,0.1-0.2,0.1-0.3c0-0.1-0.1-0.1-0.1-0.2c0-0.1,0-0.2,0-0.3c0-0.2,0-0.4-0.1-0.5c-0.4-0.7-1.2-0.9-2-0.8
					c-0.2,0-0.3,0.1-0.4,0.2c-0.2,0.1-0.1,0.2-0.3,0.2c-0.1,0-0.2,0.1-0.2,0.2C15.8-10.5,15.8-10.5,15.8-10.4
					C15.8-10.4,15.8-10.4,15.8-10.4"/>
				<path class="st2" d="M8.2-10.4c0,0.1,0,0.1,0,0.2C8.1-10.1,8-10.2,8-10.1C7.9-10,7.9-9.8,7.9-9.8c-0.2,0.1,0,0.2,0,0.3
					c0,0,0,0.1,0,0.2c0,0.1,0,0.3,0.1,0.4C8-8.7,8.2-8.5,8.3-8.3c0.2,0.1,0.4,0.6,0.6,0.6c0.2,0,0.4-0.1,0.5-0.1
					c0.2,0,0.4,0,0.6-0.1c0.2-0.1,0.1-0.3,0.3-0.5c0.1-0.1,0.3,0,0.4-0.1c0.2-0.1,0.3-0.3,0.4-0.5c0-0.1,0-0.1,0-0.2
					c0-0.1,0.1-0.2,0.1-0.3c0-0.1-0.1-0.1-0.1-0.2c0-0.1,0-0.2,0-0.3c0-0.2,0-0.4-0.1-0.5c-0.4-0.7-1.2-0.9-2-0.8
					c-0.2,0-0.3,0.1-0.4,0.2c-0.2,0.1-0.1,0.2-0.3,0.2c-0.1,0-0.2,0.1-0.2,0.2C8.2-10.5,8.2-10.5,8.2-10.4
					C8.1-10.4,8.1-10.4,8.2-10.4"/>
				<path class="st2" d="M0.5-10.4c0,0.1,0,0.1,0,0.2c-0.1,0.1-0.1,0.1-0.2,0.1C0.3-10,0.2-9.8,0.2-9.8c-0.2,0.1,0,0.2,0,0.3
					c0,0,0,0.1,0,0.2c0,0.1,0,0.3,0.1,0.4c0.1,0.2,0.3,0.4,0.4,0.5C0.9-8.2,1-7.8,1.3-7.7c0.2,0,0.4-0.1,0.5-0.1
					c0.2,0,0.4,0,0.6-0.1C2.6-8,2.5-8.2,2.7-8.3c0.1-0.1,0.3,0,0.4-0.1c0.2-0.1,0.3-0.3,0.4-0.5c0-0.1,0-0.1,0-0.2
					c0-0.1,0.1-0.2,0.1-0.3c0-0.1-0.1-0.1-0.1-0.2c0-0.1,0-0.2,0-0.3c0-0.2,0-0.4-0.1-0.5c-0.4-0.7-1.2-0.9-2-0.8
					c-0.2,0-0.3,0.1-0.4,0.2c-0.2,0.1-0.1,0.2-0.3,0.2c-0.1,0-0.2,0.1-0.2,0.2C0.5-10.5,0.5-10.5,0.5-10.4
					C0.5-10.4,0.5-10.4,0.5-10.4"/>
			</g>
		</g>
		<g>
			<path class="st2" d="M69.4-2.8c0,0.1,0,0.1,0,0.2c-0.1,0.1-0.1,0.1-0.2,0.1c-0.1,0.1-0.1,0.3-0.1,0.4c-0.2,0.1,0,0.2,0,0.3
				c0,0,0,0.1,0,0.2c0,0.1,0,0.3,0.1,0.4c0.1,0.2,0.3,0.4,0.4,0.5C69.8-0.5,70-0.1,70.2,0c0.2,0,0.4-0.1,0.5-0.1
				c0.2,0,0.4,0,0.6-0.1c0.2-0.1,0.1-0.3,0.3-0.5c0.1-0.1,0.3,0,0.4-0.1c0.2-0.1,0.3-0.3,0.4-0.5c0-0.1,0-0.1,0-0.2
				c0-0.1,0.1-0.2,0.1-0.3c0-0.1-0.1-0.1-0.1-0.2c0-0.1,0-0.2,0-0.3c0-0.2,0-0.4-0.1-0.5c-0.4-0.7-1.2-0.9-2-0.8
				c-0.2,0-0.3,0.1-0.4,0.2c-0.2,0.1-0.1,0.2-0.3,0.2c-0.1,0-0.2,0.1-0.2,0.2C69.4-2.8,69.4-2.9,69.4-2.8
				C69.4-2.7,69.4-2.8,69.4-2.8"/>
			<path class="st2" d="M61.8-2.8c0,0.1,0,0.1,0,0.2c-0.1,0.1-0.1,0.1-0.2,0.1c-0.1,0.1-0.1,0.3-0.1,0.4c-0.2,0.1,0,0.2,0,0.3
				c0,0,0,0.1,0,0.2c0,0.1,0,0.3,0.1,0.4C61.6-1,61.8-0.8,62-0.7c0.2,0.1,0.4,0.6,0.6,0.6c0.2,0,0.4-0.1,0.5-0.1
				c0.2,0,0.4,0,0.6-0.1c0.2-0.1,0.1-0.3,0.3-0.5c0.1-0.1,0.3,0,0.4-0.1c0.2-0.1,0.3-0.3,0.4-0.5c0-0.1,0-0.1,0-0.2
				c0-0.1,0.1-0.2,0.1-0.3c0-0.1-0.1-0.1-0.1-0.2c0-0.1,0-0.2,0-0.3c0-0.2,0-0.4-0.1-0.5c-0.4-0.7-1.2-0.9-2-0.8
				c-0.2,0-0.3,0.1-0.4,0.2c-0.2,0.1-0.1,0.2-0.3,0.2c-0.1,0-0.2,0.1-0.2,0.2C61.8-2.8,61.8-2.9,61.8-2.8
				C61.8-2.7,61.8-2.8,61.8-2.8"/>
			<path class="st2" d="M54.1-2.8c0,0.1,0,0.1,0,0.2C54-2.5,54-2.5,53.9-2.5c-0.1,0.1-0.1,0.3-0.1,0.4c-0.2,0.1,0,0.2,0,0.3
				c0,0,0,0.1,0,0.2c0,0.1,0,0.3,0.1,0.4C54-1,54.1-0.8,54.3-0.7c0.2,0.1,0.4,0.6,0.6,0.6c0.2,0,0.4-0.1,0.5-0.1
				c0.2,0,0.4,0,0.6-0.1c0.2-0.1,0.1-0.3,0.3-0.5c0.1-0.1,0.3,0,0.4-0.1C56.9-0.8,57-1,57.1-1.2c0-0.1,0-0.1,0-0.2
				c0-0.1,0.1-0.2,0.1-0.3c0-0.1-0.1-0.1-0.1-0.2c0-0.1,0-0.2,0-0.3c0-0.2,0-0.4-0.1-0.5c-0.4-0.7-1.2-0.9-2-0.8
				c-0.2,0-0.3,0.1-0.4,0.2c-0.2,0.1-0.1,0.2-0.3,0.2c-0.1,0-0.2,0.1-0.2,0.2C54.1-2.8,54.1-2.9,54.1-2.8
				C54.1-2.7,54.1-2.8,54.1-2.8"/>
			<path class="st2" d="M46.5-2.8c0,0.1,0,0.1,0,0.2c-0.1,0.1-0.1,0.1-0.2,0.1c-0.1,0.1-0.1,0.3-0.1,0.4c-0.2,0.1,0,0.2,0,0.3
				c0,0,0,0.1,0,0.2c0,0.1,0,0.3,0.1,0.4c0.1,0.2,0.3,0.4,0.4,0.5C46.8-0.5,47-0.1,47.2,0c0.2,0,0.4-0.1,0.5-0.1
				c0.2,0,0.4,0,0.6-0.1c0.2-0.1,0.1-0.3,0.3-0.5c0.1-0.1,0.3,0,0.4-0.1c0.2-0.1,0.3-0.3,0.4-0.5c0-0.1,0-0.1,0-0.2
				c0-0.1,0.1-0.2,0.1-0.3c0-0.1-0.1-0.1-0.1-0.2c0-0.1,0-0.2,0-0.3c0-0.2,0-0.4-0.1-0.5c-0.4-0.7-1.2-0.9-2-0.8
				c-0.2,0-0.3,0.1-0.4,0.2c-0.2,0.1-0.1,0.2-0.3,0.2c-0.1,0-0.2,0.1-0.2,0.2C46.5-2.8,46.5-2.9,46.5-2.8
				C46.5-2.7,46.5-2.8,46.5-2.8"/>
			<path class="st2" d="M38.8-2.8c0,0.1,0,0.1,0,0.2c-0.1,0.1-0.1,0.1-0.2,0.1c-0.1,0.1-0.1,0.3-0.1,0.4c-0.2,0.1,0,0.2,0,0.3
				c0,0,0,0.1,0,0.2c0,0.1,0,0.3,0.1,0.4C38.6-1,38.8-0.8,39-0.7c0.2,0.1,0.4,0.6,0.6,0.6c0.2,0,0.4-0.1,0.5-0.1
				c0.2,0,0.4,0,0.6-0.1c0.2-0.1,0.1-0.3,0.3-0.5c0.1-0.1,0.3,0,0.4-0.1c0.2-0.1,0.3-0.3,0.4-0.5c0-0.1,0-0.1,0-0.2
				c0-0.1,0.1-0.2,0.1-0.3c0-0.1-0.1-0.1-0.1-0.2c0-0.1,0-0.2,0-0.3c0-0.2,0-0.4-0.1-0.5c-0.4-0.7-1.2-0.9-2-0.8
				c-0.2,0-0.3,0.1-0.4,0.2c-0.2,0.1-0.1,0.2-0.3,0.2c-0.1,0-0.2,0.1-0.2,0.2C38.8-2.8,38.8-2.9,38.8-2.8
				C38.8-2.7,38.8-2.8,38.8-2.8"/>
			<path class="st2" d="M31.1-2.8c0,0.1,0,0.1,0,0.2c-0.1,0.1-0.1,0.1-0.2,0.1c-0.1,0.1-0.1,0.3-0.1,0.4c-0.2,0.1,0,0.2,0,0.3
				c0,0,0,0.1,0,0.2c0,0.1,0,0.3,0.1,0.4C31-1,31.1-0.8,31.3-0.7c0.2,0.1,0.4,0.6,0.6,0.6c0.2,0,0.4-0.1,0.5-0.1
				c0.2,0,0.4,0,0.6-0.1c0.2-0.1,0.1-0.3,0.3-0.5c0.1-0.1,0.3,0,0.4-0.1c0.2-0.1,0.3-0.3,0.4-0.5c0-0.1,0-0.1,0-0.2
				c0-0.1,0.1-0.2,0.1-0.3c0-0.1-0.1-0.1-0.1-0.2c0-0.1,0-0.2,0-0.3c0-0.2,0-0.4-0.1-0.5c-0.4-0.7-1.2-0.9-2-0.8
				c-0.2,0-0.3,0.1-0.4,0.2c-0.2,0.1-0.1,0.2-0.3,0.2c-0.1,0-0.2,0.1-0.2,0.2C31.1-2.8,31.1-2.9,31.1-2.8
				C31.1-2.7,31.1-2.8,31.1-2.8"/>
			<path class="st2" d="M23.5-2.8c0,0.1,0,0.1,0,0.2c-0.1,0.1-0.1,0.1-0.2,0.1c-0.1,0.1-0.1,0.3-0.1,0.4c-0.2,0.1,0,0.2,0,0.3
				c0,0,0,0.1,0,0.2c0,0.1,0,0.3,0.1,0.4c0.1,0.2,0.3,0.4,0.4,0.5C23.8-0.5,24-0.1,24.3,0c0.2,0,0.4-0.1,0.5-0.1
				c0.2,0,0.4,0,0.6-0.1c0.2-0.1,0.1-0.3,0.3-0.5c0.1-0.1,0.3,0,0.4-0.1c0.2-0.1,0.3-0.3,0.4-0.5c0-0.1,0-0.1,0-0.2
				c0-0.1,0.1-0.2,0.1-0.3c0-0.1-0.1-0.1-0.1-0.2c0-0.1,0-0.2,0-0.3c0-0.2,0-0.4-0.1-0.5c-0.4-0.7-1.2-0.9-2-0.8
				c-0.2,0-0.3,0.1-0.4,0.2c-0.2,0.1-0.1,0.2-0.3,0.2c-0.1,0-0.2,0.1-0.2,0.2C23.5-2.8,23.5-2.9,23.5-2.8
				C23.5-2.7,23.5-2.8,23.5-2.8"/>
			<path class="st2" d="M15.8-2.8c0,0.1,0,0.1,0,0.2c-0.1,0.1-0.1,0.1-0.2,0.1c-0.1,0.1-0.1,0.3-0.1,0.4c-0.2,0.1,0,0.2,0,0.3
				c0,0,0,0.1,0,0.2c0,0.1,0,0.3,0.1,0.4C15.7-1,15.8-0.8,16-0.7c0.2,0.1,0.4,0.6,0.6,0.6c0.2,0,0.4-0.1,0.5-0.1
				c0.2,0,0.4,0,0.6-0.1c0.2-0.1,0.1-0.3,0.3-0.5c0.1-0.1,0.3,0,0.4-0.1c0.2-0.1,0.3-0.3,0.4-0.5c0-0.1,0-0.1,0-0.2
				c0-0.1,0.1-0.2,0.1-0.3c0-0.1-0.1-0.1-0.1-0.2c0-0.1,0-0.2,0-0.3c0-0.2,0-0.4-0.1-0.5c-0.4-0.7-1.2-0.9-2-0.8
				c-0.2,0-0.3,0.1-0.4,0.2c-0.2,0.1-0.1,0.2-0.3,0.2c-0.1,0-0.2,0.1-0.2,0.2C15.8-2.8,15.8-2.9,15.8-2.8
				C15.8-2.7,15.8-2.8,15.8-2.8"/>
			<path class="st2" d="M8.2-2.8c0,0.1,0,0.1,0,0.2C8.1-2.5,8-2.5,8-2.5C7.9-2.4,7.9-2.2,7.9-2.1c-0.2,0.1,0,0.2,0,0.3
				c0,0,0,0.1,0,0.2c0,0.1,0,0.3,0.1,0.4C8-1,8.2-0.8,8.3-0.7C8.5-0.5,8.7-0.1,8.9,0c0.2,0,0.4-0.1,0.5-0.1c0.2,0,0.4,0,0.6-0.1
				c0.2-0.1,0.1-0.3,0.3-0.5c0.1-0.1,0.3,0,0.4-0.1c0.2-0.1,0.3-0.3,0.4-0.5c0-0.1,0-0.1,0-0.2c0-0.1,0.1-0.2,0.1-0.3
				c0-0.1-0.1-0.1-0.1-0.2c0-0.1,0-0.2,0-0.3c0-0.2,0-0.4-0.1-0.5c-0.4-0.7-1.2-0.9-2-0.8C9-3.5,8.8-3.4,8.7-3.4
				C8.5-3.3,8.6-3.2,8.4-3.1C8.3-3.1,8.2-3,8.2-2.9C8.2-2.8,8.2-2.9,8.2-2.8C8.1-2.7,8.1-2.8,8.2-2.8"/>
			<path class="st2" d="M0.5-2.8c0,0.1,0,0.1,0,0.2C0.4-2.5,0.4-2.5,0.3-2.5C0.3-2.4,0.2-2.2,0.2-2.1c-0.2,0.1,0,0.2,0,0.3
				c0,0,0,0.1,0,0.2c0,0.1,0,0.3,0.1,0.4C0.3-1,0.5-0.8,0.7-0.7C0.9-0.5,1-0.1,1.3,0c0.2,0,0.4-0.1,0.5-0.1c0.2,0,0.4,0,0.6-0.1
				c0.2-0.1,0.1-0.3,0.3-0.5c0.1-0.1,0.3,0,0.4-0.1C3.3-0.8,3.4-1,3.5-1.2c0-0.1,0-0.1,0-0.2c0-0.1,0.1-0.2,0.1-0.3
				c0-0.1-0.1-0.1-0.1-0.2c0-0.1,0-0.2,0-0.3c0-0.2,0-0.4-0.1-0.5c-0.4-0.7-1.2-0.9-2-0.8C1.3-3.5,1.2-3.4,1-3.4
				C0.9-3.3,0.9-3.2,0.7-3.1C0.6-3.1,0.5-3,0.5-2.9C0.5-2.8,0.5-2.9,0.5-2.8C0.5-2.7,0.5-2.8,0.5-2.8"/>
		</g>
	</g>
</pattern>
<g id="Layer_14">
	<path class="st3" d="M324.7,276.8c0,0,27.6,15.6,49,20.2c40,8.6,88.7,87.1,171.8,38.4c38-22.3,185.8-138.8,248.7-175.5
		C861.8,120.4,974,83,1032,97.4c63.8,15.9,68,44.7,77.7,44.1c27-1.7-16.9-66-51.7-90.3c-32.1-22.4-75.7-41.8-128.9-47.7
		c-73.7-8.2-122.9-1-182.4,10.9c-50.2,10-103.9,29.2-130.4,38.6c-41.6,14.7-76.4,32.4-126.6,63.7
		c-69.8,43.5-125.2,107.2-142.2,129.6C334.7,262.9,331.4,267.6,324.7,276.8z"/>
</g>
<g id="Layer_13">
	<path class="st4" d="M528.9,329.4c83-43.6,142.8-111,203.6-163.8c59.6-51.7,95.9-75.2,132.4-91.8c60.3-27.6,124.4-32.2,159.8-21.3
		c31.5,9.6,65.1,37.2,87.6,80.8c2.1,4,1.3,6.4-0.8,7.4c-3.6,1.7-4.7,0.1-6.5-0.9c-77.6-68-163.6-49.6-255.5-0.4
		c-64.6,34.2-129.3,88.2-144.4,101.1c-7.9,6.7-25.9,20.7-47.2,36.8c-20.2,15.4-51.8,32.5-75.9,41.2
		C555.9,327.8,531.7,329.9,528.9,329.4z"/>
	<path class="st4" d="M180.8,405.4c20.8,24.1,88.5,62.2,120.1,72.1C337.7,489,412,509,529.7,513.3c70.7,2.6,162.9-7.8,243.7-39.6
		c62.7-24.6,116.5-53.2,157.3-82.3c60.4-43.2,104.7-89.7,137.3-136.9c2.2-3.2,5.2-9,4.9-12.8c-0.4-3.8-4.5-5.7-7.2-4.8
		c-3.7,1.3-6.5,5.1-9.2,8.4c-57.5,71.3-153.6,150.1-277.4,194.8c-207,74.8-351.8,5.6-450-13.3C294,420.2,245.9,413,180.8,405.4z"/>
	<path class="st4" d="M316.3,310.4c-2.2,4.2-5.6,11-7.1,14.6c0,0,9.7,3.6,31.2,6.9c40.5,6.2,93.6,10.9,173.7-42.6
		c36.6-24.5,79.1-61.1,128.6-114.5c26.5-28.5,53.1-56.4,78-78c16.4-14.3,45.4-37.8,75.3-53.8c30.2-16.1,61.6-24.5,82.7-25.2
		c-22.7-2.3-54.8,0.3-81.8,4.5c-25.9,4-52.8,8.6-67.6,12.5c-16.7,4.4-37.7,8.7-63.2,17.1c-25.7,8.5-56,18.6-81.9,29.5
		c-40.7,17.1-80.5,40.4-128.8,74.5c-65.1,45.9-106,97.4-129,136.3L316.3,310.4z"/>
	<path class="st5" d="M511.5,423.1c-28.6-18.3-86.7,11.2-48.8,38.8c33.3,24.3,167.4,50.7,324.6-10.1
		c59.7-23.1,104.4-48.9,146.8-78.7c65.5-46.1,113.1-97,146.8-144.1c1.8-2.5-14.2,0.1-16.1,2.5c-58.3,70.8-151.1,155.1-269,197.2
		C671.4,473.1,582.4,468.4,511.5,423.1z"/>
	<path class="st4" d="M296.8,359.2c2.8-9.6,7.6-22.1,12.9-34c29.2,7.9,58.7,11.4,81.5,10.2c42.3-2.1,75.8-19.2,84.6-23.5
		c62.3-30.9,122-89.1,159.5-129c40.5-43,77.4-84.3,131-121.4c32.2-22.3,65.4-37.3,99.7-42.5c32.2-4.8,54.5-0.9,78.9,3
		c24.4,3.9,68.2,20.2,90,34c-22.2-9.5-54.7-12-95-5.4c-53.3,8.8-101.2,32.9-140.9,61.7c-52.9,38.4-101.5,84.9-138.9,119.6
		c-26.7,24.9-59.8,53.1-92.6,74.4c-17.5,11.4-50.7,32.8-104.6,51.2c-31.2,10.7-56.8,13.8-65,14.3c-8,0.6-18.5,1.2-33.5,0.4
		c-11.8-0.6-23.6-2.1-37.1-4.9C320.4,366.1,307.3,362.8,296.8,359.2z"/>
	<path class="st4" d="M616.8,145.5c13.2-8,35.5-23.7,27.4-45.7c-3.9-10.6,29.3-3.7,23.3,20.7c-4.3,17.7-24.9,27.4-47.7,36.4
		c-11.3,4.5-52.5,25.7-60.1,38.4C568.9,173.3,602,154.5,616.8,145.5z"/>
	<path class="st4" d="M566.9,109.7c-14.5,16.9-18,27.6-22.4,40.5c-9.3,27.9-7.9,59.9-4.4,68.2c-1.3-4.9-1-11.6,1.5-19.8
		c3.4-10.9,9.5-19.9,16.6-27.4c10.3-10.9,20.5-18.7,28.5-25.4c6.4-5.4,18.4-12.7,23.4-23.5c4-8.6,2.2-19.2-6.3-24.1
		C589.7,89.9,574.9,100.4,566.9,109.7z"/>
	<path class="st4" d="M520.1,189.6c6.5,7.4,8.5,17.2,9.5,22.9c1.1,6.5,2.3,17.4,1,25.9c-0.2-4.7-6.9-12.9-10.8-15.9
		c-5.3-4-11.4-8.8-15.1-11.9c-3-2.5-8-7.5-9.2-12.4c-1.3-5.3,0.4-10.5,3.7-13.2C506.7,179,515.7,184.5,520.1,189.6z"/>
	<path class="st6" d="M557.7,134.5c1.6-4.7,10-20.1,18.1-27.6c6.8-6.3,12.9-6.5,14.6-4.9c1.7,1.5-2,6.5-6.7,8.1
		c-6,2-10.1,6.7-12.8,9.9C567.1,122.2,559.6,133.7,557.7,134.5z"/>
	<path class="st7" d="M503.9,197.5c-5.3-4.2-2.2-7.6-0.6-8.4c9.5-4.9,19,19.9,15.7,17.6C516.6,205.1,507.3,190.8,503.9,197.5z"/>
	<path class="st8" d="M637.9,135.2c-4.6,0.3-3.4,4.5-13.6,9.9c-5.9,3.1,4.1,0.7,12.9-5.7C639.3,137.8,642.5,134.9,637.9,135.2z"/>
	<path class="st8" d="M647.7,116.8c1-2.8,1.1-4.6,1.4-7.2c-2-5.6,7.5-2.7,5.1,6c-0.8,2.8-6.8,9-7.2,3.2L647.7,116.8z"/>
</g>
<g id="Layer_15">
	<g>
		<g>
			<path class="st9" d="M787.8,212.2l-10.3,59.7l-5.6-1l-4.6,15.1l14.7-7l-33.7,74.6l-151.7,26.7c0,0,36-38.5,37.9-44.9l24.8-79.9
				c0,0-7-15.8-8.7-19.6L787.8,212.2 M800.1,199.9l-14,2.4L649,226l-12.6,2.2l5.2,11.7c1.2,2.6,5,11.3,7.1,16.1l-23.6,75.9
				c-2.7,4.9-20.6,25.2-35.8,41.5l-20.4,21.9l29.5-5.2L750,363.4l5.2-0.9l2.2-4.8l33.7-74.6l11.3-25l-13.5,6.4l8.8-50.7L800.1,199.9
				L800.1,199.9z"/>
		</g>
		<g>
			<path class="st9" d="M1011,173.1c12.8,0,18,5.4,21.7,9.1c4.4,4.5,9.1,16.2,4.6,30.7l-9.5,29.7c-1.6,5.2-6.4,12.2-15.1,18.4
				l3.8,20.7c3.1,7.1,7.9,19.6,9.9,22.9l-191.3,33.7c5.2-6.8,36.1-38.2,38.1-44.7l24.7-80.9c-2.6-6-7.3-15.5-8.9-19.2l115.6-20.1
				C1007,173.2,1009.1,173.1,1011,173.1 M1011,163.1v10V163.1L1011,163.1c-2.4,0-4.9,0.2-7.5,0.5l-0.3,0l-0.3,0l-115.6,20.1
				l-12.6,2.2l5.2,11.7c0.8,1.8,2.2,4.7,3.8,8.1c1.2,2.5,2.5,5.3,3.7,7.8l-23.5,76.8c-2.4,4.3-16.9,20-23.9,27.6
				c-6.7,7.2-10.8,11.8-12.8,14.4l-15.5,20.4l25.2-4.4l191.3-33.7l14.3-2.5l-7.5-12.5c-1-1.6-4.1-9.2-6-13.8c-1-2.5-2-4.8-2.9-6.9
				l-2.5-13.7c6.8-5.9,11.6-12.8,13.7-19.5l9.4-29.6c5.5-17.5,0.2-33.4-7-40.7C1035.7,171,1028,163.1,1011,163.1L1011,163.1z"/>
		</g>
	</g>
	<g>
		<path class="st9" d="M908,190.5l-10.1,60.1l-6-1.1l-4.7,15.4l14.7-7.2l-33.4,74.6l-152.1,26.8c4.3-4.8,35.9-38,37.9-44.5
			l24.9-80.4c-2.2-4.5-6.8-15.4-8.4-19.1L908,190.5 M920.2,178.2l-14,2.5l-137.1,24.6l-12.5,2.2l5.1,11.6c0.5,1.1,1.2,2.7,2,4.7
			c1.5,3.6,3.4,7.8,4.9,11.1L745,311.3c-2.1,3.8-12.7,16.1-31.5,36.4c-2.1,2.3-3.7,3.9-4.4,4.8L689.9,374l28.4-5l152.1-26.8l5.2-0.9
			l2.2-4.8l33.4-74.6l11.3-25.2l-13.1,6.4l8.5-50.8L920.2,178.2L920.2,178.2z"/>
	</g>
	<g>
		<path class="st9" d="M1163.1,145.4l-19.6,94.1c-2.1,7-9.8,27.1-14.9,32.7c-5.8,6.5-19.8,17.9-31.8,20l-98,17.2l9.5-66.9
			c0,0,2.1,1.2,4.6,2.1c-0.2-5.6,2.9-16.3,5.3-24.4l10.2-30.2c2.2-7.1,10.8-13.8,16.6-18.8c6.2-5.1,10.3-6.8,22.4-8.9L1163.1,145.4
			 M1175.9,133l-14.5,2.6l-95.6,16.9c-12.9,2.3-18.9,4.3-27,11.1l0,0l0,0c-0.5,0.4-1.1,0.9-1.6,1.4c-6.4,5.4-15.1,12.7-18,21.9
			l-10.2,30.1l0,0.1l0,0.1c-1.4,4.7-2.6,8.6-3.4,12.1l-4.9-2.7l-2,14.4l-9.5,66.9l-1.9,13.6l13.6-2.4l98-17.2
			c14.7-2.6,30.5-15.3,37.5-23.2c7.2-8.1,15.6-32.1,17-36.4l0.1-0.4l0.1-0.5l19.6-94.1L1175.9,133L1175.9,133z"/>
	</g>
</g>
<g id="Layer_16">
	<g>
		<path class="st10" d="M873.9,197.3c56-5.9,60.8,1.1,82.1,18.9c15.9,13.4,25,10.5,12.9,55.5c-106.6-4.5-215.3,33.6-295.9,58.4
			c-87,26.8-139.6,41.8-239.5,44.1c-66,1.6-101.6,5.9-164.7-2.9c-68.4-9.5-153.6-80.8-190-132.6c50,32.6,168.7,52.9,218.5,54.4
			c119.4,3.6,231.1,1.8,325.4-30.2C702.5,236,804.1,204.6,873.9,197.3z"/>
	</g>
</g>
<g id="Layer_17">
	<g>
		<path class="st11" d="M741.7,301.8c-32.4,5.4-94.8,21.7-114.4,28.4c-17.7,6-61.6,11.8-80.6,15.6c-20.4,4.1-44.9,8.8-67.8,11.8
			c-21,2.8-53.3,5.6-80.4,6.5c-29.9,1-102.5,3.6-142.9-9.8c-40.4-13.5-91.2-47.3-118-77.6c30.5,16.6,127.4,41.2,234.1,30.5
			c45-4.5,186.6-33.5,214.6-39.3c43.4-9,75.5-20.2,103.3-28.1c31.2-8.8,69.3-19.7,92.4-22.1c23.2-2.4,46.8-1.8,59.2,11.7
			c4,4.4,27.7,33.9,9.7,50.7C839.1,271.9,793.3,293.2,741.7,301.8z"/>
	</g>
</g>
<g id="Layer_18">
	<g>
		<path class="st10" d="M862.5,167.7c10.7-5.6,24.9-13.9,40.1-20.6c13.8-6.2,30.2-12.7,42.5-16c63.5-17.3,101.8-1.8,123.8,19.2
			c19.1,18.3,22.8,37.5,13.3,85.6c-119.6,5.8-198.2,57.6-276.8,109c-76.3,50-134.3,86.3-266.1,109.7
			c-83.2,14.8-170.7,16.6-237.7,2.4c-77.8-16.4-135.9-51.9-181.7-109.9c109.9,38,224.6,23.3,259.8,16.7
			c154.1-28.9,236.8-74.1,316.1-106.8C770.2,226.4,835.3,182,862.5,167.7z"/>
	</g>
</g>
<g id="Layer_19">
	<g>
		<path class="st11" d="M966.6,203.5c-13.6-0.5-60.7,24.5-58.5,12.1c2.4-13.8-18.4-4.7-39.1,11c-5.3,4-10.7,8-16.3,12.2
			c-8.6,1.6-11.8,1.9-17,3.2c-2.7,6.2-26.8,47.9-36.5,57.2c-27.9,26.6-25.3,27.2-44.8,42.4c-18.2,14.2-42.7,29.8-67.8,41.4
			c-35.5,16.4-77.5,32.7-139.2,47.4c-38,9.1-95.7,16.8-133,16.3c-30.9-0.3-66.6-1.3-106.6-11c-37.2-9-65-33.2-80.8-52.2
			c27.3,11.3,72.7,18.9,116.7,18.4c39.8-0.5,86-19.1,128.3-29.9c48.7-12.4,104.2-30.5,140.7-46c35.4-15,66.7-64.1,96.3-80.5
			c20.2-11.2,46.7-18.7,73.2-23.6c19.6-3.6,39.6-6.7,54.4-9.8c8-1.7,18.4-6.4,28.3-10c10.4-3.8,54.1-27.4,78.9-35.8
			c35.7-12,57.7-12.6,74.6-1.1c10,6.9,17.8,21.9,4.3,54.3C1006.3,209.5,985,204.1,966.6,203.5z"/>
	</g>
</g>
<g id="Layer_20">
	<path class="st12" d="M906,162c-14.6,5.9-22.8,7-11.3,0.7c18.8-10.4,44-20.5,60-24.6c31.9-8.1,48.2-6,64.3-2.8
		c14.1,2.8,18.4,9.1,16,10.8c-2.4,2.2-5.3,2.1-10.7,2.9c-2.7,0.4-6.9,0.1-9.9-0.6c-11.1-2-24-7.3-56-1.6
		C940.1,150,923.4,155.4,906,162z"/>
</g>
<g id="Layer_21">
	<path class="st10" d="M321.1,298.3l-48.3,159.7c7.7,4.6,37.3,21.2,41.4,23.5L0,536.6c0,0,146.3-67.8,155.1-75.5l91-291.3
		c0,0,2.9-7.6-0.4-13.8c-3.3-6.2-11.5-11.4-34.9-11.4c-48,0-70.6,0-70.6,0l307.6-53c25.7-5.1,33.4-1.1,39.9,0.7
		c7.3,1.8,16.4,13.5,13.7,32.1l-36.5,120.2c-5.4,14.2-27.9,32.2-62.5,38.3L321.1,298.3z M338.9,239.2l14.9-3.1l24.2-80.7l-14.8,2.7
		L338.9,239.2z"/>
	<g>
		<g>
			<path class="st9" d="M488.3,264.6c10.3,0,19.5,4.5,22.3,7.6c3.1,3.4,15.4,10.2,6.6,40.2l-10.5,34.3c-3.2,10.3-8.2,28.1-16.9,37.5
				c-5.7,6.2-15.2,15.6-32.4,20.4l-61.5,10.8c-3.5,0.8-6.8,1.1-10,1.1c-12.7,0-22-5.5-24.5-9c-2.5-3.9-11.8-9.2-7.1-31.9l15.5-50.4
				c3.2-10.3,8.3-23.8,17.7-32.4c6.4-5.9,21.4-15.3,31.3-16.5l61.4-10.7C483,264.9,485.7,264.6,488.3,264.6 M488.3,254.6
				L488.3,254.6c-3.4,0-6.8,0.4-10,1.2l-60.8,10.6c-12.5,1.7-29.2,12.3-36.5,19c-11.4,10.4-17.2,26-20.5,36.8l-15.5,50.4l-0.1,0.5
				l-0.1,0.5c-4.9,24,3.6,33.8,7.7,38.5c0.3,0.3,0.7,0.8,0.8,0.9l0.1,0.1l0.1,0.2c2.5,3.5,7,6.8,12.6,9.3c6.1,2.6,13,4,20,4
				c4,0,8-0.4,11.9-1.3l61.3-10.8l0.5-0.1l0.5-0.1c18.6-5.2,29.6-15.1,37-23.2c9.6-10.5,14.9-27.8,18.5-39.3l0.6-2l10.5-34.4l0,0
				l0,0c8.6-29,0.2-41.5-8.1-49.1c-0.2-0.2-0.6-0.5-0.7-0.6C513,260.1,501.3,254.6,488.3,254.6L488.3,254.6z"/>
		</g>
		<g>
			<path class="st9" d="M785.2,212.8l-10.3,55.9l-8.4-1.6l-8.8,31.5c0,0,4-0.7,11-4.3c-1.5,3.8-23.3,60.1-23.3,60.1l-149.7,25.9
				c0,0,36-38.5,37.9-44.9l24.8-79.9c0,0-7-15.8-8.6-19.6L785.2,212.8 M797.6,200.5l-14.1,2.4l-135.3,23l-12.7,2.2l5.2,11.7
				l7.1,16.1l-23.6,75.9c-2.7,4.9-20.6,25.2-35.8,41.5l-20.4,21.8l29.4-5.1l149.7-25.9l5.6-1l2-5.3c0.2-0.6,21.8-56.3,23.3-60.1
				l9.6-24.6l-3.8,2l0.9-4.7l10.3-55.9L797.6,200.5L797.6,200.5z M773.1,280.7l0.6-2.1l2.6,0.5L773.1,280.7L773.1,280.7z"/>
		</g>
	</g>
	<g>
		<path class="st9" d="M421.2,275.6c0,0-35.4,37.3-38.4,44.4l-24.6,80.7l8.6,19.6l-119.3,21.3c0,0,35.1-37.8,38.2-43.9l24.6-81
			c0,0-6.8-15.9-8.4-19.6L421.2,275.6 M449.5,260.3l-30,5.4l-119.4,21.5l-12.5,2.3l5.1,11.6c1.1,2.6,4.9,11.3,6.9,16.1l-23.2,76.3
			c-3.5,5-21.1,24.8-36.3,41.2l-20.3,21.9l29.4-5.3L368.7,430l12.5-2.2l-5.1-11.6l-7.1-16.2l23.3-76.3c3-5,20.9-25,36.3-41.2
			L449.5,260.3L449.5,260.3z"/>
	</g>
	<g>
		<path class="st9" d="M693.6,228.1c-4.9,6.7-35.2,37.2-37.2,43.6l-32,103.5l-173.1,30.5c2.2-2.4,10.9-12.2,19.7-22
			c8.6-9.5,17.2-19.1,18.2-22.6l24.6-80.4c-2.2-5.1-6.7-15.8-8.4-19.5L693.6,228.1 M716.4,213.9l-24.5,4.3l-188.3,33.2l-12.6,2.2
			l5.2,11.7c1.3,3,4.6,10.6,6.9,16l-23.4,76.6c-1.7,3-10,12.4-15.6,18.6l-0.5,0.5c-8.2,9.1-17.4,19.4-19.7,22l-19.1,21.5l28.3-5
			l173.1-30.5l6-1.1l1.8-5.8l31.9-103c2.3-4.1,15.4-18.3,22.5-26.1c7.2-7.8,11.4-12.3,13.4-15.1L716.4,213.9L716.4,213.9z"/>
	</g>
</g>
<g id="Layer_22">
	<path class="st11" d="M310.9,286l-52.2,173.3c-2.1,7.7,13.7,11.8,16.4,14.4L89.3,506.6c6-4.2,74.4-29.9,78-39.5L262,161
		c0,0,1.4-3.3,0.7-7.7c-1-5.5-14.2-14.3-18.3-16.6l192-33.8c19.9-3.8,33-3.8,39.5-2.1c7.3,1.8,13.8,10.9,12.1,17.6l-34.3,116.9
		c-5.4,14.2-16.3,25.1-66,36.2L310.9,286z M320,255.6l33.2-6.5c8.9-1.7,10.5-3.3,12.3-6.7c2.3-4.4,30.6-101.1,30.6-101.1l-43.9,8.1
		L320,255.6z"/>
	<g>
		<g>
			<path class="st13" d="M391.8,290.9c-4.3,4.8-17.4,18.4-19.5,27.6l-23.5,74.3c-3,8.4,1.4,14.4,3,18.1l-75.3,13.5
				c4.3-4.8,17.5-18.8,19.5-25.3l23.7-78.1c3.5-7.9-1.1-13-2.8-16.7L391.8,290.9 M418.5,275.9l-28.5,5.1l-74.8,13.5l-12.5,2.3
				l5.1,11.6c0.5,1.1,1,2.1,1.6,3c1.8,3.3,2,3.9,1.2,5.6l-0.2,0.6l-0.2,0.6l-23.7,78c-1,2.6-6.2,9.2-15.5,19.5
				c-0.7,0.8-1.4,1.5-1.9,2.1l-19.2,21.6l28.5-5.1l75.3-13.5l12.5-2.2L361,407c-0.4-0.8-0.8-1.6-1.2-2.4c-1.9-3.7-2.6-5.6-1.6-8.3
				l0.1-0.2l0.1-0.2l23.5-74.3l0.1-0.4l0.1-0.4c1.3-5.7,11.9-17.4,15.4-21.2c0.7-0.8,1.3-1.4,1.8-2L418.5,275.9L418.5,275.9z"/>
		</g>
		<g>
			<path class="st13" d="M488.7,274.5c9.3,0,15.4,4.3,18.2,8.1c4.4,6,3.1,16.5,0,26.7l-14.7,47.2c-4.8,14.4-10.1,19.8-15.4,25
				c-6.3,6.1-17.4,10.7-25.3,12.1l-59.2,10.5c-2.7,0.7-5.2,1-7.5,1c-9.5,0-16.1-5.2-18.5-8.7c-2.5-3.9-3.2-13.7,0-23.9l13.6-44.7
				c3.2-10.3,7.5-20.1,14.1-26.9c6.1-6.2,16-13.1,28.8-15.2l61.7-11C485.9,274.5,487.4,274.5,488.7,274.5 M455.4,309.8l-10,1.8
				c-3.3,0.6-7.5,0.7-9.8,3.2c-1.6,1.8-1.9,4.3-3.8,10.3l-13.6,44.5l10-1.7c5.1-0.9,7.7-0.8,10-3.5c1.6-1.9,4.1-11.8,5.9-17.8
				L455.4,309.8 M488.7,264.5L488.7,264.5c-1.9,0-3.8,0.1-5.7,0.4l-0.2,0l-0.2,0l-61.6,11c-17.2,2.8-28.9,12.5-34.3,18
				c-6.9,7-12.3,17.1-16.5,30.9l-13.6,44.7c-3.8,12.3-3.3,25.3,1.1,32.2l0.1,0.2l0.1,0.2c4.2,6,13.7,13,26.7,13
				c3.2,0,6.4-0.4,9.7-1.3l58.8-10.4c9.3-1.7,22.3-6.9,30.5-14.8l0.1-0.1l0.1-0.1c5.5-5.4,12.2-12.2,17.8-29l0-0.1l0-0.1l14.7-47.2
				c4.8-15.7,4.3-27.7-1.5-35.6C509.4,269,499.6,264.5,488.7,264.5L488.7,264.5z"/>
		</g>
		<g>
			<path class="st13" d="M665.6,242.8c-4.3,4.8-17.2,17.9-19.2,24.4l-30.1,97.5l-60.8,10.7l-11.6-58.9l-14.3,46.7
				c-2.5,7.6,1.2,10.7,3.2,16.2l-53.2,9.6c4.3-4.8,17.5-18.2,19.5-24.6l23.8-77.4c2.2-7.1,2.6-8.3-2.6-18.5l71.5-12.5l10.4,56.4
				l13.8-44.8c2-6.5-1.8-11.9-3.4-15.6L665.6,242.8 M692.1,228.1l-28.2,4.9l-53.1,9.1l-12.6,2.2l0.2,0.4l-8.3,1.5l-71.5,12.5
				l-13.3,2.3l6.1,12.1c2.6,5.1,3.1,6.6,3.1,7c0,0.5-0.6,2.4-1,3.9l0,0.1l-23.8,77.3c-1.3,3.6-11.2,14.2-14.4,17.7
				c-1.2,1.3-2.2,2.4-3,3.3L452.9,404l28.5-5.2l53.2-9.6l11.6-2.1l-4-11.1c-0.7-2-1.5-3.7-2.2-5c-1.4-2.9-1.5-3-0.9-4.7l0-0.1l0-0.1
				l2.6-8.6l3.9,19.8l1.9,9.6l9.7-1.7l60.8-10.7l6-1.1l1.8-5.8l30.1-97.5c1.3-3.5,11-14,14.2-17.4c1.2-1.3,2.2-2.4,3-3.2
				L692.1,228.1L692.1,228.1z M604.6,270.4l-3-16.3l-0.7-3.8l2.5,5.6c0.4,0.9,0.8,1.7,1.2,2.5c1.4,2.8,2.3,4.7,1.8,6.2L604.6,270.4
				L604.6,270.4z"/>
		</g>
		<g>
			<path class="st13" d="M774.2,223.7l-6,34.8c-6-1.3-9-1.8-11.7-1.8c-3.1,0-5.6,0.7-11.4,1.7l-27.1,4.8l-3.4,11.3
				c0,0,40.1-7.1,45.2-9.8L749,303.6c-2.6-2.6-4.8-3.5-7.7-3.5c-1.4,0-2.9,0.2-4.7,0.5l-31.7,5.7l-4,13.4l28.4-5.1
				c4.4-0.8,18.7-5.8,27.6-10l-16.6,38.2l-115.9,20.5c4.3-4.8,17.1-18.3,19.1-24.8l23.1-74.4c2-6.5,4.6-10.2-1.7-21.1L774.2,223.7
				 M786.5,211.4l-14,2.5L663.2,233l-14.1,2.5l7.1,12.4c3.3,5.7,3,6.7,1.6,10.8c-0.3,0.8-0.5,1.6-0.8,2.4l-23.1,74.4
				c-0.9,2.5-5.9,8.8-14.9,18.7c-0.8,0.9-1.6,1.7-2.1,2.4l-19.2,21.5l28.4-5L742,352.6l5.3-0.9l2.1-4.9l16.6-38.2l10.5-24.2
				l-13.5,6.3l6.1-21.7l7.3,1.5l1.8-10.3l6-34.8L786.5,211.4L786.5,211.4z"/>
		</g>
		<g>
			<path class="st13" d="M894.1,202.1l-5.7,34.9c-3.6-0.7-6-1.6-10.2-1.6c-2.2,0-5,0.3-8.7,0.9l-30.9,5.4l-3.5,10.9l45.8-7.3
				l-11.9,37c-1.8-1.2-4.6-3.5-8.8-3.5c-0.7,0-1.4,0.1-2.2,0.2l-32.6,5.9l-4.5,13l28.1-4.7c3.9-0.7,18.8-6.4,27.3-10.6l-16,38.7
				l-115.6,20.5c4.3-4.8,16.6-17.1,18.6-23.6l25-80c2-6.5-1.2-13.3-2.8-17L894.1,202.1 M906.3,189.8l-13.9,2.4l-108.6,19.1
				l-12.6,2.2l5.2,11.7l0.2,0.4c1.1,2.6,3.1,6.9,2.2,9.6l-25,80c-1.2,3.4-10.4,13.3-13.4,16.5c-1.2,1.3-2.3,2.5-3.1,3.4l-19.2,21.5
				l28.4-5l115.6-20.5l5.4-1l2.1-5.1l16-38.7l10.1-24.5l-11.5,5.7l6.2-19.2l0.2-0.7l6,1.2l1.7-10.2l5.7-34.9L906.3,189.8
				L906.3,189.8z"/>
		</g>
		<g>
			<path class="st13" d="M1010.3,182.7c7.7,0,11.6,3.3,14.1,6c3,3,4.5,13,2.4,19.8l-7.8,26c-1.6,5.2-6.8,11.3-9,13.9
				c-3,3.5-7.9,5.4-9,5.4l3.1,22.4c1.1,6.5,4.9,14.5,6.8,19.1l-60.9,10.4l-4.5-41.5l-1.2,0.2l-9.4,29c-2,6.5,2.6,11.1,4.2,14.9
				l-75.8,12.3c4.3-4.8,18.1-19.3,20.1-25.7l24.1-77.6c2-6.5-1.7-12.8-3.3-16.5l100.1-17.5C1006.6,182.8,1008.6,182.7,1010.3,182.7
				 M973.2,217.7l-15.8,3.1l-3.8,11.6l12.5-2.1c3.8-0.9,3.8-3.3,5-6.4L973.2,217.7 M1010.3,172.7c-2.4,0-5,0.2-7.8,0.7l-100,17.5
				L890,193l5.2,11.7c0.2,0.5,0.5,1.1,0.8,1.7c1.2,2.5,2.7,5.9,2.1,7.9L874,291.9c-1,2.6-6.3,9.2-15.7,19.5c-0.9,1-1.7,1.9-2.3,2.5
				l-18.7,21l27.8-4.5l75.8-12.3l12.8-2.1l-0.3-0.8l59.4-10.1l12.6-2.1l-5.1-11.7c-0.2-0.6-0.5-1.2-0.8-1.8
				c-1.8-4.1-4.6-10.3-5.3-14.8l-2-14.9c2.1-1.4,4.1-3,5.7-4.9l0.1-0.1l0.1-0.1l0.5-0.7c2.9-3.5,8.2-9.9,10.2-16.6l0,0l0,0l7.8-25.9
				c2.8-9.2,1.6-23.2-4.7-29.6C1027.9,177.8,1021.7,172.7,1010.3,172.7L1010.3,172.7z"/>
		</g>
		<g>
			<path class="st13" d="M1149.5,158l-5.4,39.4c-3.3-2.2-8.3-7.2-12.7-7.2c-0.3,0-0.7,0-1,0.1l-7.6,1.4l-31.6,5.4
				c-5.3,1-5.9,2.6-5.9,2.6l27.4-4.7c3.3-0.6,6.2-0.8,8.6-0.8c7.4,0,11.3,2.3,13.3,4.6c2.8,2.9,5,11.8,2.8,18.9l-10.4,34.7
				c-2.1,7-9.8,15.1-15.6,20.1c-6.2,5.1-11.8,6.8-23.8,9l-78.3,13.9l5.7-30.2c7-1.6,14-2.9,28.1-5.4l33-5.9l0.2-1.9l-25,5
				c-3.9,0.7-7.4,1-10.5,1c-7,0-11.9-1.5-13.8-3.4c-3-2.8-5.5-12.5-3.1-20.5l10.9-34c2.2-7.1,9.3-15.1,15.1-20.1
				c6.1-5.1,14.9-7.3,26.9-9.4L1149.5,158 M1161.3,145.8l-13.5,2.3l-72.7,12.5l0,0l0,0c-11.8,2.1-23.2,4.6-31.5,11.6l0,0l0,0
				c-3.4,2.8-14.5,13-18.2,24.7l-10.8,33.9l0,0.1l0,0.1c-2.3,7.6-1.7,16.8,1.2,23.7c-0.9,0.2-1.9,0.4-2.8,0.6l-6.4,1.4l-1.2,6.5
				l-5.7,30.2l-2.7,14.2l14.2-2.5l78.3-13.9c13.3-2.4,20.6-4.6,28.5-11.1l0,0l0,0c3.5-3,15.2-13.6,18.7-24.7l0,0l0,0l10.4-34.7
				c0.8-2.6,1.2-5.5,1.3-8.4l3.5,2.3l2.2-15.7l5.4-39.4L1161.3,145.8L1161.3,145.8z"/>
		</g>
	</g>
</g>
<g id="Layer_23">
	<polygon class="st10" points="750.6,340.8 757.8,339.5 749.1,346.4 740.5,344.8 752.7,317.8 758.4,320.9 	"/>
</g>
<g id="Layer_24">
	<path class="st10" d="M310.3,264l38.9-7.4c8.9-1.7,15-3.7,18.2-5.9c2.2-1.6,3.9-4.7,5.3-9.2l30.4-98.9c1.3-4.3,1.3-7,0-8.2
		c-1.6-1.3-5.8-1.3-12.6,0l-44.3,8.5L310.3,264z M262.3,183.6l7.7-28.1c1.3-6.3-3.6-12.4-7.6-14.7L432,110.9
		c19.9-3.8,33.2-4.8,39.7-3.1c7.3,1.8,10.1,6.1,8.3,12.9l-33.1,113.5c-5.4,14.2-25.4,24.3-60.1,30.3L305.5,280l-53.6,177.7
		c-1.3,6.3,0,10.6,4.1,12.9l-115.4,20.1c6-4.2,29.2-12.1,32.8-21.7L262.3,183.6z"/>
	<g>
		<g>
			<path class="st9" d="M647.9,252.4c-4.3,4.8-7.2,9.8-9.2,16.2l-20.3,66.1l-7.3,23.9l-50.4,8.8l-15.4-78.3l-21.6,70.2
				c-2,6.5-2.1,11.1-0.4,14.9l-25.9,4.6c4.3-4.8,7.2-10,9.2-16.4l22.8-74.1c2-6.5,2.1-11.1,0.4-14.9l56.7-10.1l14.1,76.9l21.1-68.4
				c2-6.5,2.1-11.1,0.5-14.9L647.9,252.4 M674.3,237.7l-28.1,4.8l-25.9,4.5l-12.6,2.2l5.2,11.7c0.6,1.3,0.3,4.1-0.9,7.9l-9,29.3
				l-6.7-36.6l-1.8-9.8l-9.8,1.8L528,263.5l-12.5,2.2l5.2,11.6c0.6,1.3,0.3,4.1-0.9,7.9l-22.8,74.1c-1.5,5-3.7,9-7.1,12.7
				l-19.2,21.6l28.5-5.1L525,384l12.5-2.2l-5.1-11.6c-0.6-1.4-0.3-4.2,0.9-7.9l9.9-32.2l7.7,39.3l1.9,9.6l9.7-1.7l50.4-8.8l6-1.1
				l1.8-5.9l7.3-23.9l20.3-66.1c1.5-4.9,3.6-8.6,7.1-12.5L674.3,237.7L674.3,237.7z"/>
		</g>
		<g>
			<path class="st9" d="M886.1,210.3l-3.1,18.8c-2.3-0.5-3.9-0.7-5.7-0.7c-2.5,0-5.6,0.5-11.8,1.6l-32.5,5.8l-7.9,25.6l46.6-8.2
				l-6.2,20.1c-1.2-0.9-3-1.3-5.4-1.3c-1.6,0-3.4,0.2-5.6,0.6l-34.8,6.2l-8.5,27.6l38.5-6.9c3.9-0.7,7.4-2.1,15.9-6.3l-9.9,22
				L762,332.1c4.3-4.8,7.2-10.2,9.2-16.7l22.8-74.1c2-6.5,2.1-11.1,0.4-14.9L886.1,210.3 M898.2,198l-13.9,2.4l-91.6,16l-12.6,2.2
				l5.1,11.7c0.6,1.4,0.3,4.2-0.9,7.9l-22.8,74.1c-1.6,5.3-3.9,9.4-7.1,13L735.3,347l28.4-5.1l93.8-16.7l5.2-0.9l2.2-4.8l9.9-22
				l11.4-25.4l-11.6,5.7l0.5-1.5l6.2-20.1l4.8-15.6l-16.1,2.8l-30.5,5.4l1.3-4.1l26.5-4.7c5.7-1,8.4-1.5,10.1-1.5
				c0.9,0,1.7,0.1,3.8,0.5l10.1,2l1.7-10.2l3.1-18.8L898.2,198L898.2,198z M827.5,287.6l28.8-5.2c1.9-0.3,3.2-0.4,3.8-0.4
				c0.2,0,0.3,0,0.4,0l2.2,1.5l-1.5,0.7c-8.2,4.1-10.7,4.9-13.3,5.4l-22.4,4L827.5,287.6L827.5,287.6z"/>
		</g>
		<g>
			<path class="st9" d="M1141.7,165.5l-2.9,20.5c-2.5-1.6-4.5-2.3-7.1-2.3c-1.1,0-2.4,0.1-3.8,0.4l-4.7,0.8l-35.9,6.4
				c-5.3,0.9-7.5,2.7-8.7,6.8l-1.1,3.6c-1.3,4.1-1.2,5.6,1.7,5.6c1.1,0,2.6-0.2,4.6-0.6l25.6-4.6c6-1.1,10.1-1.6,13.1-1.6
				c3.6,0,5.5,0.8,7,2.5c2.8,2.9,3,8.9,0.8,16l-8.9,28.8c-2.1,7-6.2,12.9-12,17.8c-6.1,5.1-10.3,6.8-22.4,8.9l-69,12.4l2.5-17
				l22-3.9l30.1-5.3c5.6-1,5.6-1,6.7-1.6c2-1.1,2.6-2.1,3.6-5.4l1-3.3c1.3-4.3,1.2-5.8-1-5.8c-0.5,0-1,0.1-1.6,0.2l-29.3,5.3
				c-6,1.1-10.3,1.6-13.4,1.6c-3.4,0-5.4-0.7-6.8-2c-3-2.8-3.2-8.4-0.7-16.5l8.9-28.9c2.2-7.1,6.2-13.1,12-18
				c6.2-5.1,10.3-6.8,22.4-8.9L1141.7,165.5 M1153.5,153.3l-13.5,2.3l-67.4,11.7l0,0l0,0c-12.9,2.3-18.9,4.3-27,11.1l0,0l0,0
				c-7.3,6.2-12.4,13.8-15.1,22.7l-8.9,28.9c-3.7,12.1-2.6,21.1,3.4,26.7c0.7,0.7,1.5,1.3,2.2,1.8l-8.2,1.5l-7.1,1.3l-1,7.1l-2.5,17
				l-2,13.7l13.7-2.4l69-12.4c12.9-2.3,18.9-4.3,27-11.1l0,0l0,0c7.3-6.2,12.4-13.8,15.1-22.5l8.9-28.8c3.2-10.4,2.4-19.1-2.3-24.8
				l9,5.9l2.2-15.7l2.9-20.5L1153.5,153.3L1153.5,153.3z"/>
		</g>
	</g>
</g>
<g id="Layer_25">
	<g>
		<path class="st9" d="M374,302.1c-5.4,6.1-7.8,11.3-10.1,19.5l-8,26L344,386.2c0,0-2.1,6.4-2.8,9.5c-0.7,2.7-1.4,7.9,0.4,11.8
			l-48.2,8.7c4.4-5,6.5-9,8.5-14.3l13.3-43.2c0,0,8.9-29,9-29.4c0.1-0.4,1.5-5,1.5-5c2.1-7.4,1-11.5,0.1-13.6L374,302.1
			 M400.3,287.2l-28,5l-48.2,8.7l-12.7,2.3l5.4,11.7c0.1,0.2,0.8,1.9-0.6,6.6c-0.2,0.6-1.4,4.6-1.5,5c-0.2,0.6-6,19.4-9,29.3
			l-13.2,42.9c-1.5,4-3.1,7-6.6,11L267,431.1l28.1-5.1l48.2-8.7l12.8-2.3l-5.6-11.8c-0.2-0.5-0.4-2.4,0.3-5.2
			c0.5-2.3,2.1-7.1,2.6-8.7l0-0.1l0-0.1l11.9-38.6l8-26l0-0.1l0-0.1c2.1-7.4,4-11,8.1-15.7L400.3,287.2L400.3,287.2z"/>
	</g>
	<g>
		<path class="st9" d="M487.7,282.5c6.6,0,11.4,2.4,13.2,5.5c2.9,4.9,1.4,13.5-2.3,24.2c0,0-9.1,29.7-9.5,30.8
			c-1.9,5.9-3.6,12-5.2,16.3c-3.2,8.3-7.4,14.4-12.6,18.7c-7.5,6.2-15.8,9.3-20.3,10.2l-59.2,10.6c-2.6,0.6-5.1,0.9-7.3,0.9
			c-6.7,0-11.6-2.5-13.4-5.8c-1.9-3.5-2.1-8.6,0.6-18.3l13.7-44.7c3.4-11.7,7.5-19.6,13.9-25.6c5.7-5.4,15.1-10.2,22.4-11.5
			l61.7-11.1C485,282.6,486.4,282.5,487.7,282.5 M413.3,378.2c0.1,0,0.2,0,0.3,0c4.7-0.2,9.6-1.3,12.2-1.8
			c6.6-1.4,14.4-1.4,17.9-7.9c1.2-2.2,4.4-13,6.2-19c0,0,10.8-33.6,12.3-40.6c0.8-3.6-1.3-4.9-4.2-4.9c-0.8,0-1.6,0.1-2.5,0.3
			c-3.2,0.6-8.7,1.5-10.8,1.9c-7.9,1.6-10,1.3-14.2,5c-2.5,2.2-3.5,6.5-7,17.6c0,0-12.8,42.4-13.4,44.1
			C409.5,374.5,409.6,378.2,413.3,378.2 M487.7,272.5L487.7,272.5c-1.8,0-3.7,0.1-5.7,0.4l-0.2,0l-0.2,0L420.1,284
			c-9.1,1.6-20.4,7.4-27.5,14.1c-7.5,7.1-12.6,16.3-16.6,30l-13.7,44.6l0,0.1l0,0.1c-3.3,11.6-3.3,19.3,0.2,25.7
			c3.7,7,12,11.1,22.2,11.1c3,0,6.1-0.4,9.3-1.1l59-10.6l0.1,0l0.1,0c6.3-1.3,16.1-5.1,24.7-12.3c6.6-5.5,11.8-13.1,15.5-22.8
			c1.3-3.5,2.6-7.7,4-12.3c0.5-1.5,0.9-3.1,1.4-4.6c0.4-1.2,8.7-28.4,9.5-30.8c6.6-19.6,4.4-27.4,1.3-32.4
			C505.6,276.4,497.5,272.5,487.7,272.5L487.7,272.5z M437.5,318.4c1.1-0.9,1.5-1,5.5-1.7c1.1-0.2,2.3-0.4,3.7-0.7
			c0.7-0.1,2-0.4,3.4-0.6c-2.6,8.8-6.7,21.9-9.7,31.1l0,0.1l0,0.1c-0.3,0.9-0.6,1.9-0.9,3c-1.2,4-3.8,12.3-4.6,14.4
			c-0.7,0.9-4.3,1.5-7,2c-1.3,0.2-2.7,0.4-4,0.7l-0.3,0.1c-0.3,0.1-0.6,0.1-1,0.2c3.1-10.3,8.1-26.5,10.6-35.1
			c0.5-1.7,1-3.2,1.4-4.6C435.7,323.3,436.8,319.7,437.5,318.4L437.5,318.4z"/>
	</g>
	<g>
		<path class="st9" d="M765.3,233.1l-3.1,19c-2-0.3-3.2-0.7-5.5-0.7c-2,0-4.9,0.3-9.9,1.2l-34.6,6.2l-7.9,25.6
			c0,0,24.7-4.4,29.8-5.3c8.8-1.6,11.4-2.1,17.6-5.4l-7,22.6c-1.1-0.7-2.7-1.3-5.4-1.3c-1.3,0-2.9,0.1-4.9,0.5l-35.5,6.3l-8.5,27.7
			l38.2-6.9c4.4-0.8,7.3-2,16.2-6.3l-9.9,21.9l-93.8,16.5c4.7-5.3,7.4-10.4,9.7-18l20.4-66.2c2.1-7.2,5.3-14.6,2.4-21.3L765.3,233.1
			 M777.5,220.8l-13.9,2.5L672,239.5l-12.5,2.2l5,11.6c1,2.3-0.4,6.8-1.8,11.1c-0.3,1.1-0.7,2.2-1,3.3l-20.3,66.1l0,0l0,0
			c-1.9,6.2-3.9,10.1-7.6,14.2l-19.2,21.5l28.4-5l93.8-16.5l5.2-0.9l2.2-4.8l9.9-21.9l11.4-25.3l-11.6,5.7l0.5-1.5l7-22.6l4.3-13.9
			l4.9,0.8l1.6-9.8l3.1-19L777.5,220.8L777.5,220.8z M720,267.6l28.6-5.1c1.7-0.3,3.2-0.6,4.4-0.7l-5.9,3.1
			c-4.9,2.6-6.4,2.8-14.7,4.4c-2.1,0.4-7.8,1.4-13.6,2.5L720,267.6L720,267.6z M736.2,305.3c1.6-0.3,2.6-0.3,3.2-0.3
			c0.2,0,0.3,0,0.4,0l2.3,1.5l-1.6,0.8c-8.5,4.2-10.6,4.9-13.6,5.5l-22.1,4l1.9-6.2L736.2,305.3L736.2,305.3z"/>
	</g>
	<g>
		<path class="st9" d="M1010,190.7c5.1,0,7.3,1.5,9.2,4.2c2,3,2.1,8.5,0.6,13.2l-7.2,23.2c-1.6,5.3-3.7,9.7-6.1,12.2
			c-6,6.1-12.4,6.5-14.1,6.6L997,277c1.1,6.5,1.7,10.1,3.7,14.6l-45.6,8l-4.6-42l-12.3,2.2c0,0-9,28.8-9.8,32.1
			c-0.9,3.6-1.3,8.6,0.3,12.3l-48.2,8.2c3.5-4,5.9-7.7,8.3-13.8c0,0,22.4-72,24.1-78.3c1.7-6.3,1.4-10,0-13.3l90-15.7
			C1005.8,190.9,1008.1,190.7,1010,190.7 M943.2,242.1c0,0,18.6-3.3,20.8-3.7c5.9-1.2,6.5-1.3,8.3-2.8c1-0.8,2-1.9,3.2-5.4
			c1.5-4.1,2.9-9,3.3-10.5c0.7-2.5,1.7-5.3,0.8-6.9c-0.3-0.7-1.3-0.9-2.5-0.9c-2.2,0-5.1,0.7-7.1,1c-3.1,0.5-18.9,3.4-18.9,3.4
			L943.2,242.1 M1010,180.7c-2.4,0-5.2,0.2-8.6,0.8l-0.1,0l-0.1,0l-90,15.7l-12.3,2.1l4.8,11.5c0.3,0.8,0.9,2.1-0.4,6.9
			c-1.4,5-17.6,57.3-23.9,77.6c-2.1,5-3.9,7.7-6.4,10.6l-18.5,21.2l27.7-4.7l48.2-8.2l12.7-2.2l-5.2-11.7c-0.3-0.8-0.5-3.1,0.2-5.8
			c0.3-1.3,2.4-8,4.7-15.6l2.4,21.8l1.2,10.6l10.5-1.8l45.6-8l12.7-2.2l-5.3-11.7c-1.5-3.3-2-5.9-3-12.1l-3.1-18
			c3.6-1.6,6.9-3.9,9.8-6.9c3.5-3.6,6.4-9,8.6-16.3l7.2-23.1c2-6.3,2.5-15.4-1.9-21.9C1023.5,183.4,1018,180.7,1010,180.7
			L1010,180.7z M959,225.1c2.7-0.5,5.8-1,8.3-1.5c-0.3,1.1-0.7,2.1-1.1,3.1c-0.2,0.5-0.3,0.8-0.4,1.1c-1,0.2-2.5,0.5-3.7,0.8
			c-0.5,0.1-2.2,0.4-4.5,0.8L959,225.1L959,225.1z"/>
	</g>
</g>
<g id="Layer_26">
	<g>
		<path class="st11" d="M276.5,424.5c-19.4-9.2-41.3-30.3-49.4-41c13.2,6.1,46,14.2,74,16.5c-0.5,1.9-2.3,7.5-4.9,11.2
			C292.1,417.1,277.4,423.9,276.5,424.5z"/>
	</g>
</g>
<g id="Layer_27">
	<path class="st14" d="M274,143.8c2.4-0.4,183.3-32,183.3-32s6.1-0.8,10.6,0.8c4.3,1.6,3.4,6.1,3.4,6.1s-26.4,4.6-51.4,9.4
		c-1.7-1.9-3.9-4.9-13.4-3c-20.1,3.9-43.6,8.1-63.9,12c-3.1,0.6-1.7,4.2-4.7,4.8c-25.2,4.5-49.6,9-51.6,9
		C280,143.2,275.3,144.1,274,143.8z M282.3,167.1c-1,6-5.6,20.8-5.6,20.8S195,454,194.1,456.7c-0.9,2.7-5.1,13.7-17.8,18.8
		c3.7-3.4,5.4-6.5,6.6-8.9c1-2.2,2.4-6,2.4-6L269,185.2c0,0,4.3-14.4,5.4-19.3c2-6.8,1.7-10.7,1.6-14.2
		C280.3,155.8,283.7,158.4,282.3,167.1z"/>
	<path class="st14" d="M331.1,313.2c2.1-0.3,22.1-3.8,35.4-6.5c-0.8,0.4-3.3,3.1-4.7,5.8c-1.4,0.2-23.9,4.4-25.2,4.7
		C335,314,331.8,313.5,331.1,313.2z M334.7,322.9c0.4,2.7,0.1,4.9-0.8,9.3c-0.9,4-1.8,6.7-1.8,6.7l-15.4,50.2c0,0-2.1,9-6.3,12.9
		c-2.6,3-4.1,3.9-6.3,5.4c2.9-4.1,4.1-7.7,5.5-11c1.1-2.5,1.9-5.4,1.9-5.4l18.1-61.3c0,0,0.9-3.8,1.3-5.9c0.3-1.5,0.9-4.3,0.5-6.7
		C333,318.9,334.3,320.4,334.7,322.9z"/>
	<path class="st14" d="M536.2,276.1c1.7-0.2,33.1-5.7,46.5-8.3c-1.5,0.7-3.5,1.9-4.8,5.8c-15.1,2.6-32.8,5.8-36.2,6.4
		C540.1,276.8,537.5,276.4,536.2,276.1z"/>
	<path class="st14" d="M680.1,251.5c3.9-0.6,65.7-11.3,79.2-13.8c-1.3,0.7-3,3.2-3.4,4.8c-15.3,2.7-69.2,12.2-70.9,12.4
		C684.4,253.2,681.9,251.6,680.1,251.5z"/>
	<path class="st14" d="M680.6,273.9c-1.8,6.6-14.5,47.6-17.9,58c-2.7,8.1-7.1,12.8-11.7,16.2c3.1-4.5,5.2-10.8,6.3-14.7
		c2-6.9,18.9-60.5,20.4-65.4c1.8-5.7,1.6-8.9,1.5-12.5C684.6,259,683.5,263.1,680.6,273.9z"/>
	<path class="st14" d="M466,331.5c-1.8,6.6-4.7,17-8,27.1c-1.8,5.4-2.9,9.5-5.6,12.4c-4.7,5.2-8.9,5.3-12.4,6.1
		c6.7-1.9,8.5-6.8,11.6-16c1.9-5.6,10.5-32.5,12.3-39c3.8-13.4,2.4-14.7,2.3-18.3C471.4,308.7,470.8,313.1,466,331.5z"/>
	<path class="st14" d="M399.6,322.9c-1.8,4.9-11.6,33.7-11.6,33.7s-4.8,15.6-6,21.4c-2.6,12.3-0.4,16,5.3,17.3
		c-6-0.1-9.5-1.4-10.9-6c-1.1-3.8,0.4-9.9,1.3-13.9c2.7-12,12-39.9,14.1-46.4c1.4-4.1,7-16,10.3-19.7c4-4.6,10.6-8.6,16.5-10.3
		c6.5-1.9,58.5-10.8,63.2-11.5c4.7-0.6,9.4-1,11,0.1c-4,0-6.9,2.6-8.1,3.6c-15.4,2.1-56.9,9.8-62.4,11.1
		C415.2,303.9,404.3,310.3,399.6,322.9z"/>
	<path class="st14" d="M559.4,318.5c1.3,6.7,7.7,40.2,7.7,40.2l-3.9,4.1l-4.3-23.1c0,0-4.5-26.3-5.7-32.5
		c-1.4-7.4-2.3-12.9-3.6-16.5C553.1,294.2,555.2,296.5,559.4,318.5z"/>
	<path class="st14" d="M1091,245.4c0.9,1.3,0.7,3,0.3,4.9c-0.8,4-1.8,6.8-2.8,9.4c-1.8,4.3-5.2,6-9.3,6.8c-7,1.4-55.5,10-55.5,10
		l0.7-3.7c0,0,35.3-6.2,51.3-9.3c6.5-1.2,8.2-1.3,10.1-7.3c1.1-3.5,1.5-5.9,1.9-7.8c0.3-1.7,0.7-3.2-0.6-4.6
		C1088.1,243.7,1090,244,1091,245.4z"/>
	<path class="st14" d="M1081.4,179.3c5.9-0.9,42.8-7.5,55-9.7c-2.1,1.1-3.2,2.7-4,5.6c-15.2,2.4-47.5,8.3-56.3,9.9
		c-11.6,2-22.2,6.8-26.1,18.3c-1.9,5.6-10.6,35.4-10.6,35.4s-2.2,4.8,2.7,8.8c-4.8-0.3-9.1-2.4-7.5-8.1c1.9-6.9,8.6-30.3,10.1-34.2
		C1050.2,190.4,1055.2,183.1,1081.4,179.3z"/>
	<path class="st14" d="M987,212c0.7,0.7,1.7,2.1,0.9,4.6c-2.4,7.5-5,16-6.5,19.4c-2.4,5.6-8.6,8.2-13.4,9
		c-8.9,1.4-18.7,2.7-18.7,2.7l-4-2.8c0,0,6.1-0.9,21.5-3.4c5.2-0.8,9.6-2.9,12-8.9c1.3-3.3,4.9-14.5,5.5-17.1c0.8-3.3-1-4.3-2.9-4.8
		C981.5,210.7,985.6,210.8,987,212z"/>
	<path class="st14" d="M415.3,135c0.8,1.9,0.7,4.2-0.2,7.6c-0.4,1.5-1.9,7.6-1.9,7.6l-27.4,91.1c0,0-1.2,3.6-2.7,6.4
		c-1.7,3.1-4,5.7-7,7.4c-2.9,1.7-8.7,3.5-13.7,4c5.2-2.1,8-3,11.4-6.7c2.1-2.3,4.9-10.6,4.9-10.6l28.1-93.5c0,0,1.9-7.4,2.3-8.8
		c1.5-7.3,0.8-9.3-6.2-8.9C411.9,128.5,414.6,133.1,415.3,135z"/>
	<path class="st14" d="M623.4,292c-2,6.6-13.1,39.3-13.1,39.3l-5.7,8.4c0,0,17.2-55.5,18.7-60.7c1.6-5.6,3.5-11.1,3.3-14.7
		C628.3,270.1,628.9,273.9,623.4,292z"/>
	<path class="st14" d="M536.6,288c-1.4,4.8-14.1,47.8-21,70.1c-3.3,10.7-7.2,11.5-8.2,12.6c0.7-1.5,1.5-0.9,5.1-13.3
		c1.4-4.3,19.5-64.5,20.9-69.5c1.1-4,1.6-4.9,1.4-8.5C537.1,281.9,537.6,284.6,536.6,288z"/>
	<path class="st14" d="M801.9,228.7c3.7-0.5,65.8-11.2,79.2-13.8c-1.4,0.9-2.9,2.8-3.4,5c-15.3,2.7-69.6,12.2-70.9,12.4
		C806.2,230.5,803.7,228.8,801.9,228.7z"/>
	<path class="st14" d="M802.4,250.5c-1.8,6.6-14.8,48.2-18.3,58.6c-2.7,8.1-7.1,12.8-11.7,16.2c3.1-4.5,5.2-10.8,6.3-14.7
		c2-6.9,19.2-61,20.7-66c1.8-5.7,1.6-8.9,1.5-12.5C806.4,235.6,805.3,239.7,802.4,250.5z"/>
	<path class="st14" d="M919.4,210.5c3.7-0.5,74.6-12.8,88.1-15.4c-1.4,0.9-2.9,2.8-3.4,5c-15.3,2.7-78.4,13.7-79.7,14
		C923.6,212.3,921.1,210.6,919.4,210.5z"/>
	<path class="st14" d="M919.9,232.3c-1.8,6.6-14.8,48.2-18.3,58.6c-2.7,8.1-7.1,12.8-11.7,16.2c3.1-4.5,5.2-10.8,6.3-14.7
		c2-6.9,19.2-61,20.7-66c1.8-5.7,1.6-8.9,1.5-12.5C923.9,217.5,922.8,221.6,919.9,232.3z"/>
</g>
</svg>
