<?xml version="1.0" encoding="utf-8"?>
<!-- Generator: Adobe Illustrator 19.0.0, SVG Export Plug-In . SVG Version: 6.00 Build 0)  -->
<svg version="1.1" id="Pioneer_x5F_Blue_xA0_Image_1_"
	 xmlns="http://www.w3.org/2000/svg" xmlns:xlink="http://www.w3.org/1999/xlink" x="0px" y="0px" viewBox="0 0 1163.5 590.2"
	 style="enable-background:new 0 0 1163.5 590.2;" xml:space="preserve">
<style type="text/css">
	.st0{fill-rule:evenodd;clip-rule:evenodd;fill:none;stroke:#000000;}
	.st1{fill-rule:evenodd;clip-rule:evenodd;}
</style>
<path id="bg" class="st0" d="M509,230.2c5.1,3,11.9,4.8,18.8,6.2c1.7-5.1,3.2-10.2,4.8-15.2c0.2-0.7,0.5-1.3,0.4-2.1
	c-0.3-2.1-2.7-2.3-5.2-2.3c-3.3,0-6.7,0-10,0c14.2-2.5,29-5,43.4-7.5c2-0.4,4.4-0.7,6.3,0.2c0.9,0.4,1.3,1.2,1.6,2.4
	c3.2-1.9,6.5-3.8,9.9-5.4c3.5-1.6,7.3-3,11.1-4.2c7.6-2.5,15.9-4.7,25.1-5.6c4.7-0.5,10.2-0.3,14.6,0.2c4.6,0.5,8.7,1.7,12.1,3.2
	c3.5,1.5,6.8,3.4,9.3,6c1.8,2,3.7,4,4.9,6.6c0.5,1,1.7,3.9-0.5,3.8c-0.5,0-1.2-0.7-1.6-1.1c-4-3.2-9.2-5.9-16.7-5.5
	c-1.5,0.1-2.9,0.4-4.3,0.6c-2.8,0.6-5.2,1.4-7.6,2.3c-4.7,1.9-8.9,4.3-13,6.8c-4,2.5-7.8,5.3-11.4,8.3c2-0.4,4.2-0.7,6.3-1.1
	c0.7-0.1,1.5-0.2,2.1-0.4c0.4-0.1,0.8-0.4,1.2-0.7c2.8-1.6,5.4-3.2,8.2-4.8c3.1-1.8,6.5-3.5,9.9-4.9c3.5-1.4,7.8-2.6,12.5-2.1
	c4.5,0.4,7.4,2.3,9.7,5.1c4-0.7,8-1.4,12-2.1c0,0.4-0.1,0.7-0.1,1.1c-0.8,3.8-1.7,8-2.5,11.8c-0.3,1.4-0.8,2.6-1.4,3.8
	c-0.6,1.2-1.4,2-2.4,2.8c-1.1,0.8-2.2,1.3-3.6,1.6c-1.4,0.3-2.9,0.5-4.4,0.8c-1.5,0.3-3,0.4-4.4,0.8c-0.3,0.1-0.8,0.8-1.1,1.1
	c-5.1,5.5-11,10.3-17.6,14.4c-3.5,2.1-7.3,4.1-11.1,5.9c-11.5,5.3-25.4,9.2-42.5,8.4c-10.5-0.5-20.1-1.9-28.7-4.2
	c-0.3-0.1-0.6-0.2-0.8-0.2c-0.4,0-0.9,0.1-1.4,0.2c-14.3,2.6-29,5.1-43.3,7.6c6.7-3.2,14.1-6.4,20.7-10c0.4-0.2,1.3-0.5,1.4-0.8
	c0.3-0.7,0.4-1.4,0.6-2.2c0.6-1.8,1.1-3.4,1.6-5.3c0.1-0.3,0.4-0.8,0.3-1c0-0.2-0.8-0.7-1-0.9c-2.4-2-4.8-4.4-6.6-6.8
	c2.9,0.9,5.9,1.8,9.2,2.4c0.4-1,0.7-2.1,1.1-3.1C518.9,240.8,513.4,236.1,509,230.2z M630.4,198.9c-2-0.3-4.1-0.5-6.2-0.4
	c-4.1,0.2-7.6,1.2-10.7,2.6c-3.1,1.4-5.8,3.1-8.3,5c-3.8,2.8-7.2,6-10.5,9.3c-1.1,1.1-2.2,2.2-3.3,3.3c-4,4.4-8.3,8.8-12.8,12.7
	c-0.2,0.2-0.4,0.3-0.3,0.4c0.1,0,0.5-0.1,0.8-0.1c3.6-0.6,7.1-1.2,10.6-1.9c0.6-0.1,1.2-0.1,1.6-0.3c0.3-0.1,0.9-0.8,1.3-1.2
	c3.1-2.9,6.2-5.8,9.3-8.5c3.6-3.2,7.3-6.3,11.4-9c4.1-2.7,8.6-5,13.9-6.5c5-1.4,12.6-2.4,17.7-0.2c0,0,0.1,0,0,0
	C640.8,201.6,636.1,199.8,630.4,198.9z M581,221.1c1.3-0.8,2.7-1.5,4-2.2c2.7-1.3,6.3-2.2,7.5-4.9c0.7-1.5,0.3-3-0.8-3.8
	c-0.3-0.2-2.1-1.1-2.4-0.3c-0.1,0.3,0.2,0.7,0.2,1.1c0.3,2.1-1,3.5-2.2,4.5c-1.2,1-2.5,1.6-3.7,2.4c-2.4,1.5-4.9,3.2-6.3,5.9
	c0,0,0,0.1,0,0.1C578.4,222.8,579.7,221.8,581,221.1z M574.6,227.1c-0.1-3.8,1.8-5.9,3.9-7.8c1-0.9,2.1-1.9,3.2-2.7
	c1.1-0.8,2.4-1.8,2.9-3c0.8-1.9-0.4-3.7-2.2-3.8c-2-0.2-3.3,1.2-4.2,2.3c-2,2.3-3.3,5.4-3.9,9.1
	C574.2,222.7,574.1,225.6,574.6,227.1C574.6,227,574.6,227.1,574.6,227.1z M557.4,233.6c1.5-0.5,2.9-1.2,3.9-2.3
	c1-1,1.4-2.7,1.8-4.3c1.3-4.6,2.6-8.7,3.9-13.1c0.1-0.4,0.3-0.9,0.3-1.3c0-0.9-0.6-1.6-1.3-2c-0.7-0.4-1.9-0.4-2.9-0.3
	c-1.3,0.1-2.7,0.3-4,0.6c-8.9,1.6-17.8,3.1-26.6,4.7c0.8,0.8,2.9,1.4,2.6,3.1c-0.2,0.9-0.6,1.8-0.9,2.7c-2,6.5-3.9,12.9-5.9,19.3
	c-2.2,7-4.3,13.7-6.4,20.6c-0.1,0.5-0.2,1.1-0.4,1.4c-0.2,0.3-0.7,0.6-1.2,0.9c-2.9,1.7-6.2,2.9-9.2,4.3c-0.2,0.1-0.6,0.2-0.6,0.3
	c8.8-1.5,17.5-3.1,26.3-4.6c-0.5-0.6-2.3-0.8-2.3-1.8c0-0.4,0.3-0.9,0.4-1.4c0.4-1.4,0.9-3,1.3-4.3c0.3,0.1,0.6,0.4,0.9,0.5
	c0.3,0,0.9-0.2,1.3-0.2c3.1-0.5,6.4-1.2,9.4-1.7c-0.1-0.3-0.3-0.7-0.4-1.1c-0.2-0.7,0-1.5,0.3-2.3c0.9-3,1.8-5.8,2.7-8.6
	c0.2-0.7,0.4-1.5,0.7-2.1c0.6-1.1,1.4-2,2.2-2.8c0.1-0.1,0.4-0.3,0.2-0.3c-3.6,0.6-7,1.3-10.6,1.9c0.2,0.6,0.6,0.9,0.6,1.7
	c0,0.4-0.3,1-0.4,1.5c-1,3.4-2.2,7.1-3.2,10.4c-0.8-0.1-1.8-0.2-2.6-0.4c1.6-5.2,3.2-10.5,4.7-15.7
	C547.3,235.7,552.6,235.2,557.4,233.6z M626.5,219.3c0.7-0.3,1.4-0.5,2.1-0.8c3.2-1.1,7.8-2.4,12-1.6c0.9,0.2,1.8,0.5,2.8,0.4
	c0.5,0,1.8-0.1,1.8-0.6c0-0.4-0.8-0.8-1.2-1c-0.6-0.2-1.2-0.3-1.7-0.4c-4.4-0.8-8.4,0.2-11.8,1.5c-1.7,0.6-3.3,1.4-4.8,2.2
	c-0.5,0.3-1.1,0.5-1.4,1C625.2,219.9,625.9,219.5,626.5,219.3z M607.2,238c-0.8,2.2-1.8,4.4-2.5,6.6c5.2-0.9,10.4-1.9,15.6-2.8
	c0.8-1.8,1.5-3.7,2.3-5.5c-1.1,0.5-2.3,1-3.6,1.4c-1.3,0.4-2.8,0.5-4.3,0.8c0.2-0.6,0.4-1.3,0.6-1.8c0.8-0.1,1.6-0.3,2.5-0.4
	c1.4-0.2,2.8-0.7,3.7,0.1c0.5-1.8,1.1-3.5,1.7-5.3c-2.2,0.3-4.4,0.7-6.5,1c0.2-0.5,0.3-1,0.5-1.5c2.3-0.2,4.7-1.3,7.1-0.6
	c0.2-1.2,0.4-2.4,0.6-3.6c0.4-0.2,1.9-0.8,2.2-0.1c0.1,0.4-0.2,1.1-0.3,1.6c-0.8,2.6-1.6,5-2.3,7.5c-0.3,1.1-0.5,2.1-0.9,3
	c-0.5,1.1-1.7,2.2-2.5,3.1c-0.1,0.1-0.3,0.3-0.2,0.4c3.5-0.6,7.2-1.1,10.7-1.8c-0.3-0.6-0.8-1.2-0.6-2c0.1-0.7,0.5-1.4,0.7-2.2
	c0.1-0.4,0.2-0.7,0.3-1.1c0.1-0.4,0.2-0.8,0.4-1c0.2,1.9,0.4,3.9,0.7,5.9c4.4-0.7,9.1-1.6,13.7-2.4c2.4-0.4,4.7-0.8,6.8-1.2
	c1.1-0.3,2-0.6,2.7-1.3c0.7-0.6,1.4-1.3,1.8-2.2c0.5-1,0.8-2.4,1.2-3.8c0.2-0.6,0.5-1.2,0.6-1.9c0.4-1.9-0.6-3.1-2.4-3.1
	c-1.7,0-3.4,0.7-5,0.8c0.8-0.4,2-0.5,3.2-0.8c0.5-0.1,1.1-0.2,1.7-0.3c0.6-0.1,1.3-0.3,1.7-0.3c0.7,0.1,1.1,0.8,1.7,1
	c0.2-1.9,0.5-3.7,0.8-5.6c-2.1,0.3-4.2,0.7-6.3,1.1c-2.1,0.3-4.2,0.6-6.2,1.2c-0.9,0.3-1.6,0.7-2.3,1.4c-0.6,0.6-1.2,1.3-1.5,2.2
	c-0.3,0.9-0.6,1.8-0.9,2.8c-0.3,1-0.8,1.8-0.9,2.8c-0.1,0.9,0.1,1.9,0.6,2.4c0.5,0.4,1.3,0.4,2,0.4c1.3,0,2.6-0.4,3.8-0.6
	c0.4-0.1,0.8-0.2,1.2-0.2c0,0.2-0.3,0.2-0.4,0.2c-2.8,0.6-5.7,0.9-8.3,1.5c-0.3,1.3-0.5,2.6-0.8,3.9c-0.8-1.4-1-3.5-1.2-5.5
	c0.9-0.2,1.3-0.8,1.8-1.4c0.8-1.1,1.1-2.6,1.6-4.1c0.3-1,0.7-2,0.8-3.2c0.2-4.3-3.6-5.6-7.8-5c-3.4,0.5-6.4,1.8-9,3.1
	c-1.4,0.6-2.7,1.3-4.1,2c-1.4,0.7-2.8,1.2-4.2,1.8c-0.7,0.3-1.4,0.6-2.2,0.8c-2.5,0.6-5.3,0.9-7.8,1.4c-0.4,2.2-0.8,4.5-1.3,6.7
	c-0.4-0.1-0.8-0.2-1.2-0.2c-0.4,1.5-0.8,3-1.3,4.5C606.3,238.5,606.8,238.2,607.2,238z M571.6,222.9c-0.5-0.5-1.1-0.8-1.9-0.8
	c-1.2,0-1.8,1.5-1.4,2.6c0.6,1.4,2.3,2.2,3.5,3.2c0.7,0.6,1.1,1.3,1.4,2.1C573.6,227.3,573.1,224.3,571.6,222.9z M608,227.9
	c-7.6,1.4-15.3,2.7-23,4c0.3,0.6,0.7,1.3,0.5,2c-0.1,0.5-0.3,1.1-0.5,1.6c-0.5,1.6-1.1,3.3-1.5,4.9c-0.5-2.6-1-5.3-1.5-7.9
	c-3.4,0.6-6.8,1.2-10.2,1.8c0.2,0.5,0.6,1,0.6,1.6c0,0.6-0.4,1.5-0.6,2.2c-0.9,2.9-1.7,5.7-2.6,8.4c-0.2,0.7-0.4,1.5-0.7,2.1
	c-0.6,1-1.5,1.8-2.2,2.6c-0.1,0.1-0.3,0.2-0.2,0.3c2.5-0.5,5-0.9,7.5-1.4c-0.2-0.7-0.7-1.1-0.5-1.9c0.1-0.5,0.3-1.2,0.5-1.7
	c0.5-1.7,1.1-3.7,1.6-5.2c0.5,2.8,1.1,5.5,1.6,8.3c2.9-0.5,5.8-1,8.7-1.5c1.2-4,2.6-8.3,3.8-12.3c0.2-0.6,0.3-1.2,0.5-1.8
	c0.6-1.2,1.8-2.1,2.6-3.1c0.3,0.6,0.6,1.2,0.4,2.1c-0.2,0.9-0.6,1.9-0.9,2.9c-0.6,1.9-1.2,3.9-1.8,5.8c-0.3,1-0.5,2.1-0.9,2.9
	c-0.3,0.6-0.8,1.2-1.3,1.7c-0.4,0.4-0.7,0.8-1.1,1.2c-0.1,0.1-0.3,0.2-0.2,0.4c5.5-1,11-1.9,16.4-2.9c0.8-1.8,1.6-3.6,2.3-5.4
	c-2.2,1.1-5.1,1.7-7.9,2.1c0.2-0.6,0.3-1.3,0.6-1.8c0.8-0.1,1.7-0.3,2.6-0.5c1-0.2,2.6-0.7,3.3-0.1c0.1,0.1,0.2,0.2,0.3,0.2
	c0.5-1.8,1-3.6,1.5-5.5c-2,0.6-4.2,1-6.4,1.4c0.2-0.5,0.3-1.1,0.5-1.6c2.3-0.2,4.7-1.3,7.1-0.7C607.4,231.2,607.8,229.6,608,227.9z
	 M563.2,235.9c-1.2,0.2-2.5,0.4-3.7,0.6c-1.3,0.2-2.5,0.4-3.5,0.9c-3.2,1.5-3.9,4.3-5,8c-0.4,1.2-0.6,2.2-1,3.3
	c-0.3,0.9-0.8,2.6-0.3,3.7c0.2,0.4,0.7,0.8,1.2,1.1c1.2,0.6,2.4,0.3,3.7,0c1.8-0.3,3.8-0.7,5.5-1c1.3-0.2,2.5-0.4,3.5-0.8
	c1-0.4,1.8-1.1,2.5-1.8c1.3-1.5,1.9-3.9,2.6-6.2c0.3-1.1,0.7-2.1,1.1-3.3c0.3-0.9,0.7-2.6,0.3-3.7c-0.4-1.1-1.9-1.6-3.3-1.5
	C565.7,235.3,564.4,235.6,563.2,235.9z M525.9,242.5c0.4-1.3,0.8-2.6,1.2-3.9c-3.5-0.7-6.9-1.7-9.7-3
	C519.8,238.2,522.7,240.5,525.9,242.5z M568.9,264.1c5.2,1.4,11.9,1.9,18.4,1.5c8.2-0.5,15.6-2.5,22-4.9c13-4.9,23.9-12.1,32.9-20.9
	c0,0,0,0-0.1,0c-2.4,0.5-4.9,0.9-7.3,1.3c-6.6,1.2-13.3,2.4-19.9,3.5c-0.6,0.1-1.3,0.1-1.8,0.3c-0.4,0.1-0.8,0.6-1.2,0.8
	c-6.3,4.2-12.6,7.9-20.2,10.7c-8.1,3-16.9,4.7-27.3,5.7C565.5,263.1,567.2,263.6,568.9,264.1z M575.5,251.5
	c-6.6,1.2-13.3,2.3-20,3.5c-1.1,0.2-2.3,0.5-3.5,0.4c-1.1-0.1-2-0.5-2.8-1.2c0.2,0.6,0.5,1.1,0.7,1.7c-3.3,0.6-6.6,1.1-9.8,1.8
	c5,1.5,10.9,2,17.2,2c3,0,6-0.3,8.9-0.7c8.7-1.1,16-3.1,23.1-5.8c4.7-1.7,9.1-3.8,12.8-6.4c0,0,0,0,0,0
	C593.5,248.4,584.4,249.9,575.5,251.5z"/>
<path id="splash4" class="st1" d="M590.1,213.4c-0.4-0.5,0.3-1.2,0.1-1.9c0,0,0.1-0.1,0.1-0.1C591.4,211.4,591,213.4,590.1,213.4z"
	/>
<path id="splash3" class="st1" d="M588.9,215.4c-0.1,0.5-0.7,0.8-1.1,1c-0.4,0.2-0.9,0.5-1.4,0.6c0.3-0.3,0.7-0.4,1-0.7
	C587.9,215.9,588.1,215.2,588.9,215.4z"/>
<path id="splash2" class="st1" d="M581.9,210.6c0,1-1,1-1.6,1.4c-0.4,0.3-0.8,0.7-1.1,1.1c-0.7,0.4-1.1,1.3-1.7,1.9
	c0,0-0.1,0.2-0.2,0.1c0.7-1.3,1.5-2.9,2.7-4C580.4,210.8,581.1,210.3,581.9,210.6z"/>
<path id="splash1" class="st1" d="M571.7,225.6c-0.6-0.2-1.4-2.2-2.3-1.4c-0.5-0.3-0.4-1.2,0.3-1.3
	C570.9,222.9,571.6,224.8,571.7,225.6z"/>
<path id="S" class="st1" d="M659.9,222.5c-0.2,0.1-0.4-0.2-0.7-0.2c-0.5-0.1-1.3,0.1-1.9,0.2c-1.2,0.2-2.4,0.4-3.7,0.6
	c-0.8,0.1-1.6,0.2-2,0.6c-0.4,0.4-0.5,1.2-0.5,1.7c0.5,0.3,1,0,1.6-0.1c0.5-0.1,1.1-0.2,1.6-0.3c1.1-0.2,2.2-0.5,3.3-0.5
	c0.9,0,1.3,0.6,1.3,1.7c-0.1,0.9-0.5,1.8-0.7,2.6c-0.3,0.9-0.5,1.7-0.8,2.6c-0.6,1.6-1.8,2.9-3.3,3.3c-0.9,0.3-1.9,0.4-2.8,0.5
	c-2.8,0.5-5.6,1-8.5,1.5c0.1-0.8,0.3-1.6,0.3-2.4c2-0.3,4.2-0.7,6.4-1.1c0.7-0.1,1.6-0.1,2-0.4c0.5-0.3,0.6-1.3,0.7-1.9
	c-0.5-0.2-1.1,0-1.6,0.1c-0.5,0.1-1.1,0.2-1.7,0.3c-1.1,0.2-2.4,0.6-3.5,0.5c-0.8-0.1-1.1-0.6-1.1-1.6c0.1-0.9,0.5-1.8,0.7-2.6
	c0.2-0.8,0.5-1.6,0.8-2.5c0.5-1.6,1.5-2.8,3.1-3.4c1.6-0.6,3.6-0.8,5.5-1.1c1.9-0.3,3.8-0.6,5.6-1c0.2,0,0.3-0.1,0.2,0.2
	C660.2,220.7,659.9,221.9,659.9,222.5z M654.1,221.2c-1.8,0.3-3.6,0.4-5.1,1.1c-1.5,0.6-2.2,2-2.7,3.5c-0.3,1-0.7,2.4-1.1,3.6
	c-0.3,1-0.5,2,0.8,2c-0.1-0.2-0.3-0.4-0.4-0.7c-0.1-0.5,0.2-1.1,0.3-1.6c0.2-0.5,0.3-1.1,0.4-1.5c0.3-1,0.5-2.1,0.9-3
	c0.8-1.7,3-2.1,5.1-2.5c2.2-0.4,4.4-0.7,6.5-1.1c0.1-0.3,0.4-0.7,0.5-0.8C657.8,220.6,656,220.9,654.1,221.2z M652.4,232.4
	c-0.1,0.5-0.3,0.8-0.6,1c-0.5,0.2-1.3,0.3-2,0.4c-2,0.4-4.3,0.8-6.2,1.1c0,0.2-0.1,0.4-0.1,0.6c2-0.4,4.6-0.8,6.8-1.2
	c0.9-0.2,1.9-0.3,2.3-0.9c0.3-0.5,1.2-2.6,0-2.6C652.8,231.2,652.5,231.9,652.4,232.4z"/>
<path id="R2" class="st1" d="M636.3,227.1c-0.2,0.5-0.2,1.2-0.5,1.6c-0.5,0.5-1.4,0.2-2.2,0.5c0.2-0.5,0.4-1,0.5-1.6
	C634.8,227.4,635.6,227.3,636.3,227.1z"/>
<path id="R" class="st1" d="M639.1,231.7c0.3,2,0.6,4.2,1.1,5.9c-2.2,0.3-4.3,0.8-6.4,1.1c-0.2-2-0.5-3.9-0.6-5.9
	c-0.6,0.1-1.2,0.2-1.7,0.3c-0.3,0.8-0.6,1.6-0.8,2.5c-0.3,0.8-0.6,1.7-0.7,2.6c0,0.5,0,0.9,0.1,1.2c-2.2,0.4-4.5,0.8-6.7,1.2
	c-0.1-0.1,0.1-0.2,0.2-0.3c0.6-0.8,1-1.8,1.3-2.9c0.9-3,1.9-6,2.8-9.2c0.3-0.9,0.6-1.7,0.3-2.7c4.5-0.6,8.8-1.7,13.2-2.3
	c0.8-0.1,1.7-0.1,2,0.7c0.1,0.3,0.1,0.9,0.1,1.3c-0.1,0.9-0.5,1.8-0.9,2.8C641.6,230.1,641.2,231.5,639.1,231.7z M641,223.9
	c-3.8,0.7-8.4,1.5-12.3,2.2c0.3,0.1,0.5,0.3,0.7,0.5c3.8-0.7,7.5-1.3,11.3-2C640.7,224.3,641.4,223.8,641,223.9z M637.7,227.3
	c-0.2,0.8-0.4,1.7-0.8,2.3c-0.7,1.1-3.1,1-4.5,1.3c0.4,0.6,0.9,0.4,1.7,0.3c1-0.1,2.2-0.2,2.9-0.8c0.6-0.5,0.8-1.3,1.1-2.2
	c0.1-0.4,0.5-1.3,0.4-1.7c-0.1-0.3-0.5-0.5-0.9-0.4C638.2,226.3,637.9,226.8,637.7,227.3z M633.2,226.9c-0.4,1.2-0.8,2.4-1.1,3.7
	c0.6-0.1,1.3-0.2,1.9-0.3c0.7-0.1,1.4-0.1,1.9-0.4c0.7-0.3,0.8-1.1,1-1.8c0.2-0.5,0.5-1.1,0.3-1.6
	C635.8,226.2,634.5,226.8,633.2,226.9z M627.6,230.6c-0.3,1.1-0.6,2.1-1,3.1c-0.6,2-1.3,4.4-2.1,6.1c0,0,0,0,0,0
	c1.6-1.1,2-3.6,2.7-5.8c0.5-1.6,1.1-3.2,1.5-4.9c0.1-0.6,0.4-1.2,0.3-1.8c-0.1-0.3-0.4-0.7-0.6-0.6
	C628.5,228.2,628,229.2,627.6,230.6z"/>
<path id="N" class="st1" d="M589.9,232.1c0.1,0.1-0.1,0.3-0.2,0.3c-0.7,0.8-1,1.9-1.4,3.1c-1.2,3.8-2.4,7.9-3.6,11.7
	c-2.4,0.4-4.8,0.9-7.2,1.2c-0.7-3.7-1.4-7.4-2.2-11.1c-0.9,2.7-1.8,5.6-2.6,8.4c-0.3,1.1-0.9,2.5-0.5,3.6c-1.2,0.3-2.5,0.4-3.6,0.7
	c0-0.1,0.3-0.4,0.4-0.6c0.5-0.7,0.7-1.5,1-2.5c0.9-2.9,1.8-5.9,2.8-8.9c0.3-0.9,0.7-2,0.3-3c2.7-0.5,5.3-1,8-1.4
	c0.7,3.6,1.3,7.3,2,10.9c0.8-2.6,1.7-5.4,2.5-8.1c0.4-1.2,1-2.4,0.5-3.7C587.5,232.5,588.7,232.3,589.9,232.1z M585.5,239.1
	c-0.5,1.8-1.1,3.5-1.6,5.3c0,0,0,0.1,0,0.1c0.8-0.9,1-1.9,1.5-3.2c0.4-1.3,0.9-2.7,1.3-4c0.3-1,0.8-2.4,0.3-3.5
	C586.6,235.7,586,237.4,585.5,239.1z M574.1,235.4c0.4,0,0.6,0.3,0.8,0.5c1.7-0.3,3.4-0.6,5.1-0.9c0.1-0.4,0.5-0.7,0.6-0.9
	C578.5,234.7,576.2,235,574.1,235.4z M572.9,239.6c-0.3,1-0.6,2.1-0.9,3.1c-0.6,2.1-1.2,4.2-2,6.1c0,0,0,0.1,0,0.1
	c1-0.6,1.2-2,1.6-3.3c0.7-2.5,1.5-5,2.3-7.5c0.2-0.8,0.6-1.7,0-2.2C573.7,237.3,573.3,238.4,572.9,239.6z M578.5,247.1
	c0-0.2-0.2-0.8-0.2-1.1c-0.2-1.3-0.4-2.3-0.6-3.6c-0.3-1.7-0.6-3.9-1.6-4.9c0,0,0,0,0,0c0.8,3.2,1.2,6.8,1.9,10.1
	C578.1,247.6,578.5,247.3,578.5,247.1z"/>
<path id="E2" class="st1" d="M623.9,226c-0.1,0.8-0.3,1.8-0.4,2.7c-1.3-0.2-2.7,0.2-4,0.4c-1.1,0.2-2.1,0.4-3.1,0.5
	c-0.4,1.2-0.8,2.4-1.1,3.7c2.2-0.4,4.4-0.8,6.6-1.2c-0.3,0.9-0.6,1.9-0.9,2.8c-1-0.4-2.5,0.1-3.6,0.3c-1,0.2-2,0.4-2.9,0.5
	c-0.4,1.3-0.8,2.6-1.2,4c2.6-0.6,5.7-0.7,7.7-1.9c-0.4,1-0.9,2.1-1.4,3.1c-4.4,0.8-8.8,1.5-13.2,2.4c-0.1-0.1,0.1-0.2,0.2-0.3
	c0.6-0.8,0.9-1.7,1.3-2.8c0.9-2.9,1.8-5.9,2.8-9c0.3-0.9,0.7-1.9,0.3-2.9C615.2,227.6,619.6,226.8,623.9,226z M622.9,227
	c0.1-0.2,0.4-0.3,0.2-0.3c-0.3,0-0.9,0.2-1.3,0.3c-3.2,0.6-6.8,1.1-9.8,1.7c0.4,0,0.5,0.4,0.8,0.5c3.4-0.6,6.7-1.2,10-1.7
	C622.8,227.3,622.8,227.2,622.9,227z M611.4,231.6c-0.5,1.6-1,3.2-1.5,4.7c-0.7,2.2-1.2,4.3-2.2,6.1c1.6-1,2-3.4,2.8-5.8
	c0.5-1.6,1.1-3.2,1.5-4.9c0.3-1,0.7-2.2-0.2-2.6C611.9,230.2,611.6,230.8,611.4,231.6z"/>
<path id="E1" class="st1" d="M606.7,229.3c-0.1,0.8-0.3,1.8-0.4,2.7c-1.2-0.2-2.6,0.2-3.9,0.4c-1.1,0.2-2.1,0.4-3.2,0.6
	c-0.4,1.2-0.8,2.4-1.1,3.6c2.2-0.4,4.9-0.6,6.7-1.5c-0.3,1-0.7,2.1-1,3.1c-1.1-0.3-2.6,0.1-3.8,0.3c-0.9,0.2-1.9,0.3-2.7,0.5
	c-0.4,1.3-0.8,2.6-1.2,3.9c2.6-0.6,5.7-0.7,7.7-1.8c-0.3,1-0.9,2.1-1.3,3.1c-4.4,0.7-8.8,1.5-13.3,2.3c0-0.1,0.1-0.2,0.2-0.3
	c0.6-0.8,0.9-1.7,1.3-2.8c0.9-2.9,1.9-5.9,2.8-8.9c0.3-0.9,0.7-2,0.3-3C598.1,230.8,602.4,230.1,606.7,229.3z M605.6,230.2
	c0.1-0.1,0.3-0.2,0.2-0.3c-0.1,0-0.5,0.1-0.7,0.1c-3.4,0.6-7.2,1.2-10.5,1.8c0.3,0,0.5,0.4,0.8,0.5c0.2,0,0.9-0.1,1.3-0.2
	c2.9-0.5,6-1.1,8.7-1.5C605.4,230.5,605.5,230.4,605.6,230.2z M594.4,232.6c0.1,1.3-0.4,2.4-0.8,3.5c-0.3,1.1-0.7,2.2-1,3.3
	c-0.7,2.1-1.3,4.4-2.2,6.4c1.6-1.1,2-3.6,2.7-5.8c0.5-1.6,1.1-3.2,1.5-5c0.2-0.9,0.6-2.1-0.3-2.4
	C594.4,232.5,594.4,232.5,594.4,232.6z"/>
<path id="O2" class="st1" d="M557.4,248.7c0.5-1.9,1.2-4,1.8-6c0.2-0.6,0.3-1.7,0.8-1.9c0.5-0.3,1.9-0.3,2.5-0.5c0,0,0,0,0,0.1
	c-0.6,1.8-1.3,4-1.8,6c-0.2,0.6-0.4,1.7-0.9,1.9C559.2,248.6,558.2,248.5,557.4,248.7z"/>
<path id="O" class="st1" d="M566.8,236.4c0.9-0.1,2,0.1,2.4,0.9c0.1,0.3,0.1,0.8,0.1,1.2c-0.1,1-0.5,2-0.8,3c-0.3,1-0.6,2-0.9,2.9
	c-0.6,1.8-1.2,4-2.4,5.3c-0.6,0.6-1.5,1.1-2.5,1.5c-1,0.4-2.2,0.4-3.3,0.6c-1.1,0.2-2.2,0.4-3.3,0.6c-1.1,0.2-2.3,0.5-3.3,0.6
	c-1,0.1-1.8-0.2-2.2-0.8c-0.5-0.9,0-2.5,0.3-3.3c0.6-2,1.3-4.2,1.9-6.2c0.7-2.1,1.7-3.5,3.8-4.3c0.9-0.4,2.1-0.5,3.3-0.8
	c1.7-0.3,3.4-0.6,5.1-0.9C565.6,236.5,566.2,236.4,566.8,236.4z M567.1,237c-2.1,0.2-4.4,0.7-6.6,1.1c-2,0.4-4.3,0.7-5.5,2.1
	c-0.5,0.6-0.9,1.5-1.3,2.4c-0.8,1.8-1.2,3.6-1.8,5.6c-0.2,0.8-0.8,2.1-0.6,3.1c0.1,0.7,0.8,1.2,1.6,1.1c-0.8-0.1-0.9-0.9-0.9-1.7
	c0.1-1,0.4-1.9,0.7-2.8c0.3-0.9,0.5-1.7,0.9-2.6c0.6-1.6,1-3.7,2.1-4.8c1.3-1.4,3.2-1.5,5.1-1.9c1.4-0.3,3-0.6,4.4-0.8
	c0.5-0.1,1.1-0.1,1.5-0.2c0.4-0.1,0.7-0.6,1.2-0.6C567.7,236.9,567.3,236.9,567.1,237z M563.1,246.8c0.2-0.6,0.4-1.3,0.6-1.9
	c0.4-1.4,0.9-2.6,1-4c0.1-0.8-0.1-1.1-0.5-1.5c0,0,0,0,0,0c0.2,1.2-0.3,2.3-0.5,3.2c-0.5,1.5-0.9,3-1.4,4.4
	c-0.4,1.1-0.7,2.3-1.7,2.7C562.3,249.6,562.6,248.3,563.1,246.8z M561,239.7c-0.6,0.1-1.2,0.2-1.5,0.4c-0.9,0.5-1.1,1.7-1.4,2.8
	c-0.5,1.5-0.9,3-1.4,4.6c-0.1,0.4-0.8,1.9-0.5,2.3c0.3,0.5,1.5,0.1,2.1,0c0.8-0.2,1.5-0.2,2.1-0.5c0.8-0.4,1-1.7,1.3-2.7
	c0.6-1.9,1.2-3.7,1.7-5.7c0.1-0.4,0.3-1,0.2-1.2c-0.1-0.3-0.6-0.3-0.8-0.2C562.3,239.5,561.7,239.6,561,239.7z"/>
<path id="I" class="st1" d="M550.9,239.1c0.1,0.1-0.1,0.2-0.2,0.3c-0.6,0.8-1,1.8-1.3,2.9c-0.9,3-1.8,6-2.8,9.1
	c-0.3,0.9-0.6,1.8-0.3,2.7c-2.3,0.4-4.5,0.8-6.7,1.2c-0.1,0,0.1-0.2,0.2-0.3c0.6-0.8,1-1.7,1.3-2.9c0.9-3,1.8-6,2.8-9.1
	c0.3-0.9,0.6-1.8,0.3-2.7C546.4,240,548.7,239.5,550.9,239.1z M544.9,240.7c0.4,0.1,0.6,0.3,0.8,0.6c1.2-0.3,2.4-0.5,3.6-0.7
	c0-0.2,0.2-0.3,0.3-0.4c0.1-0.1,0.3-0.3,0.2-0.4C548.2,240.1,546.5,240.4,544.9,240.7z M544.9,241.4c0,1-0.4,2.3-0.8,3.4
	c-0.3,1.1-0.7,2.2-1,3.2c-0.6,2.2-1.1,4.4-2.2,6.1c1.6-0.8,2-3.2,2.7-5.4c0.3-1.1,0.7-2.1,1-3.1c0.3-1,0.8-2.2,0.8-3.3
	c0-0.5-0.3-0.9-0.5-1.1C544.9,241.3,544.9,241.4,544.9,241.4z"/>
<path id="p2" class="st1" d="M554.1,216.2c0,0.3-0.1,0.6-0.2,0.9c-1.2,4-2.4,8.1-3.7,12.2c-0.2,0.6-0.4,1.4-0.7,1.7
	c-0.6,0.5-2.1,0.7-3,0.8c-1.1,0.2-2.1,0.4-3.2,0.6c1.5-5,3.1-10.1,4.6-15.1C550,217,552,216.6,554.1,216.2z M549.5,218.6
	c-1.2,3.8-2.3,7.7-3.5,11.6c0.7-0.1,1.4-0.3,2.1-0.4c1-3.3,2-6.8,3-10.1c0.1-0.5,0.4-0.9,0.3-1.4
	C550.8,218.4,550.2,218.5,549.5,218.6z"/>
<path id="P" class="st1" d="M535.3,255.5c-0.3,0.9-0.5,1.9-0.9,3c-0.3,1-0.7,2-0.9,2.9c-0.1,0.7,0.1,1.4,0.5,1.6
	c-5.4,1-10.8,1.9-16.3,2.8c0.7-0.4,1.6-0.8,2.5-1.3c0.8-0.4,1.7-0.9,2.1-1.6c0.2-0.4,0.3-0.9,0.4-1.4c4-12.6,7.8-25.3,11.8-37.9
	c0.4-1.4,0.8-2.8,1.2-4.3c0.2-0.8,0.5-1.5,0.2-2.2c-0.2-0.5-0.6-0.8-0.9-1.1c7.7-1.3,15.3-2.7,23.1-4.1c1.2-0.2,2.5-0.5,3.9-0.6
	c1.6-0.2,3.8-0.3,4,1.1c0.1,0.7-0.4,1.9-0.6,2.5c-1.4,4.7-2.7,9.2-4.1,14c-0.2,0.8-0.6,1.4-1.1,1.9c-2.1,2-5.6,2.5-9,3.1
	c-3.4,0.6-6.7,1.3-10.1,1.9c-1.7,5.4-3.3,11-5,16.5c-2.2-0.4-4.3-1-6.1-1.7c0,0,0,0,0,0C531.4,252.6,533.5,254.2,535.3,255.5z
	 M563,212c-2.2,0.3-4.4,0.8-6.6,1.1c-2.2,0.4-4.4,0.8-6.6,1.2c-4.4,0.8-8.9,1.5-13.1,2.3c0.4,0,0.6,0.1,0.9,0.2
	c0.4,0.2,0.6,0.7,1,0.8c0.2,0,0.6-0.1,0.9-0.2c1.7-0.3,3-0.5,4.6-0.8c0.4-0.1,1.5-0.1,1.8-0.3c0.2-0.1,0.2-0.5,0.4-0.6
	c0.2-0.1,0.8-0.2,1.2-0.2c2.1-0.4,4.3-0.8,6.4-1.2c0.9-0.2,2.2-0.6,2.9-0.3c0.2,0.1,0.5,0.4,0.7,0.4c0.2,0,0.6-0.1,0.9-0.2
	c1.6-0.3,3.1-0.6,4.5-0.9c0.6-0.1,1.2-0.1,1.8-0.4C565,212,563.8,211.9,563,212z M555.6,217.2c-1.2,4.4-2.6,8.6-3.9,12.8
	c-0.2,0.7-0.5,1.6-0.8,2c-0.4,0.5-1.2,0.7-1.6,1c0.8-0.1,1.8-0.4,2.4-0.9c0.7-0.6,1-1.7,1.3-2.7c1.2-4,2.4-7.8,3.6-11.8
	c0.2-0.7,0.5-1.6,0.4-2.2c-0.1-0.7-1-1.1-1.8-0.8C556.7,214.4,555.9,216.5,555.6,217.2z M546.1,232.9c1.4-0.3,3.1-0.4,4-1.1
	c0.4-0.3,0.7-1.1,0.9-1.8c1.3-4.3,2.5-8.2,3.8-12.5c0.2-0.6,0.7-1.7,0.4-2.2c-0.1-0.2-0.6-0.2-0.9-0.2c-2.5,0.2-4.9,1-7.3,1.3
	c-1.7,5.8-3.4,11.5-5.1,17.3C543.2,233.5,544.7,233.2,546.1,232.9z M536.5,221c-0.3,1-0.6,2-0.9,2.9c-3.5,11.6-7,23.1-10.5,34.7
	c-0.5,1.6-0.9,3.6-1.8,4.8c-0.1,0.2-0.4,0.3-0.3,0.5c1.9-0.7,2.5-2.6,3-4.5c2.9-9.7,5.9-19.1,8.8-28.8c0.8-2.8,1.8-5.7,2.7-8.6
	c0.3-0.9,0.8-2.3,0.5-3.2c-0.2-0.5-0.5-0.8-0.9-1.1C537.2,218.7,536.8,220,536.5,221z"/>
</svg>
